<svg width="100%" height="100%" viewBox="0 0 1440 808" fill="none" xmlns="http://www.w3.org/2000/svg">
    <g opacity="0.02">
        <path
            d="M1282.94 212.39C1375.07 372.405 1425.93 535.758 1433.85 670.378C1441.78 805.296 1406.59 909.873 1328.6 954.778C1250.61 999.682 1142.5 977.609 1029.81 903.007C917.359 828.57 801.623 702.571 709.493 542.556C617.363 382.541 566.502 219.188 558.583 84.5678C550.646 -50.3503 585.834 -154.927 663.826 -199.832C741.817 -244.736 849.925 -222.663 962.621 -148.061C1075.07 -73.6242 1190.81 52.3753 1282.94 212.39Z"
            stroke="url(#paint0_linear_35_2158)" stroke-width="8.91256" />
        <path
            d="M1250.65 230.979C1342.78 390.994 1393.64 554.347 1401.56 688.967C1409.5 823.885 1374.31 928.462 1296.32 973.367C1218.32 1018.27 1110.22 996.198 997.52 921.596C885.072 847.159 769.336 721.16 677.206 561.145C585.075 401.13 534.214 237.777 526.295 103.157C518.359 -31.7613 553.547 -136.338 631.538 -181.243C709.53 -226.147 817.638 -204.074 930.334 -129.472C1042.78 -55.0352 1158.52 70.9643 1250.65 230.979Z"
            stroke="url(#paint1_linear_35_2158)" stroke-width="8.91256" />
        <path
            d="M1218.36 249.569C1310.49 409.584 1361.35 572.937 1369.27 707.557C1377.21 842.475 1342.02 947.052 1264.03 991.957C1186.04 1036.86 1077.93 1014.79 965.233 940.186C852.785 865.749 737.049 739.75 644.919 579.735C552.789 419.719 501.928 256.367 494.009 121.747C486.072 -13.1713 521.26 -117.748 599.252 -162.653C677.243 -207.557 785.351 -185.484 898.047 -110.882C1010.5 -36.4453 1126.23 89.5543 1218.36 249.569Z"
            stroke="url(#paint2_linear_35_2158)" stroke-width="8.91256" />
        <path
            d="M1186.07 268.158C1278.2 428.173 1329.07 591.526 1336.98 726.146C1344.92 861.064 1309.73 965.641 1231.74 1010.55C1153.75 1055.45 1045.64 1033.38 932.946 958.775C820.498 884.338 704.762 758.339 612.631 598.324C520.501 438.309 469.64 274.956 461.721 140.336C453.785 5.41781 488.973 -99.1592 566.964 -144.064C644.956 -188.968 753.064 -166.895 865.76 -92.2933C978.208 -17.8562 1093.94 108.143 1186.07 268.158Z"
            stroke="url(#paint3_linear_35_2158)" stroke-width="8.91256" />
        <path
            d="M1153.79 286.749C1245.92 446.764 1296.78 610.116 1304.7 744.737C1312.63 879.655 1277.45 984.232 1199.46 1029.14C1121.46 1074.04 1013.36 1051.97 900.659 977.366C788.211 902.928 672.475 776.929 580.345 616.914C488.215 456.899 437.354 293.547 429.435 158.926C421.498 24.008 456.686 -80.569 534.678 -125.473C612.669 -170.378 720.777 -148.305 833.473 -73.7031C945.921 0.734041 1061.66 126.734 1153.79 286.749Z"
            stroke="url(#paint4_linear_35_2158)" stroke-width="8.91256" />
        <path
            d="M1121.5 305.338C1213.63 465.353 1264.49 628.705 1272.41 763.326C1280.35 898.244 1245.16 1002.82 1167.17 1047.73C1089.18 1092.63 981.068 1070.56 868.372 995.955C755.924 921.518 640.188 795.518 548.058 635.503C455.927 475.488 405.067 312.136 397.148 177.515C389.211 42.5971 424.399 -61.9799 502.39 -106.884C580.382 -151.788 688.49 -129.716 801.186 -55.114C913.634 19.3232 1029.37 145.323 1121.5 305.338Z"
            stroke="url(#paint5_linear_35_2158)" stroke-width="8.91256" />
        <path
            d="M1089.21 323.928C1181.34 483.943 1232.2 647.295 1240.12 781.916C1248.06 916.834 1212.87 1021.41 1134.88 1066.32C1056.89 1111.22 948.782 1089.15 836.085 1014.54C723.637 940.108 607.901 814.108 515.771 654.093C423.641 494.078 372.78 330.726 364.861 196.105C356.924 61.1873 392.112 -43.3897 470.104 -88.294C548.095 -133.198 656.203 -111.125 768.899 -36.5238C881.347 37.9134 997.084 163.913 1089.21 323.928Z"
            stroke="url(#paint6_linear_35_2158)" stroke-width="8.91256" />
        <path
            d="M1056.93 342.517C1149.06 502.532 1199.92 665.884 1207.84 800.505C1215.77 935.423 1180.59 1040 1102.59 1084.9C1024.6 1129.81 916.494 1107.74 803.798 1033.13C691.35 958.697 575.614 832.698 483.484 672.682C391.353 512.667 340.493 349.315 332.573 214.695C324.637 79.7766 359.825 -24.8005 437.816 -69.7048C515.808 -114.609 623.916 -92.5361 736.612 -17.9345C849.06 56.5026 964.796 182.502 1056.93 342.517Z"
            stroke="url(#paint7_linear_35_2158)" stroke-width="8.91256" />
        <path
            d="M1024.64 361.107C1116.77 521.122 1167.63 684.475 1175.55 819.095C1183.49 954.013 1148.3 1058.59 1070.31 1103.49C992.315 1148.4 884.207 1126.33 771.511 1051.72C659.063 977.287 543.327 851.288 451.197 691.273C359.066 531.257 308.206 367.905 300.286 233.285C292.35 98.3667 327.538 -6.21037 405.529 -51.1147C483.521 -96.019 591.629 -73.946 704.325 0.655558C816.773 75.0927 932.509 201.092 1024.64 361.107Z"
            stroke="url(#paint8_linear_35_2158)" stroke-width="8.91256" />
        <path
            d="M992.352 379.697C1084.48 539.712 1135.34 703.064 1143.26 837.684C1151.2 972.603 1116.01 1077.18 1038.02 1122.08C960.028 1166.99 851.92 1144.92 739.224 1070.31C626.776 995.876 511.04 869.877 418.91 709.862C326.779 549.847 275.918 386.495 267.999 251.874C260.063 116.956 295.251 12.3789 373.242 -32.5255C451.234 -77.4297 559.342 -55.3567 672.038 19.2448C784.486 93.6819 900.222 219.681 992.352 379.697Z"
            stroke="url(#paint9_linear_35_2158)" stroke-width="8.91256" />
        <path
            d="M960.065 398.286C1052.2 558.301 1103.06 721.653 1110.98 856.273C1118.91 991.192 1083.72 1095.77 1005.73 1140.67C927.741 1185.58 819.633 1163.5 706.937 1088.9C594.489 1014.47 478.753 888.466 386.623 728.451C294.492 568.436 243.631 405.084 235.712 270.463C227.776 135.545 262.964 30.968 340.955 -13.9364C418.947 -58.8406 527.055 -36.7676 639.751 37.8339C752.199 112.271 867.935 238.271 960.065 398.286Z"
            stroke="url(#paint10_linear_35_2158)" stroke-width="8.91256" />
        <path
            d="M927.778 416.875C1019.91 576.89 1070.77 740.243 1078.69 874.863C1086.63 1009.78 1051.44 1114.36 973.446 1159.26C895.454 1204.17 787.346 1182.09 674.65 1107.49C562.202 1033.06 446.466 907.056 354.336 747.041C262.205 587.026 211.344 423.673 203.425 289.053C195.489 154.135 230.677 49.5577 308.668 4.65336C386.66 -40.2509 494.768 -18.1779 607.464 56.4236C719.912 130.861 835.648 256.86 927.778 416.875Z"
            stroke="url(#paint11_linear_35_2158)" stroke-width="8.91256" />
        <path
            d="M895.491 435.465C987.622 595.48 1038.48 758.832 1046.4 893.453C1054.34 1028.37 1019.15 1132.95 941.159 1177.85C863.167 1222.76 755.059 1200.68 642.363 1126.08C529.915 1051.64 414.179 925.645 322.048 765.63C229.918 605.615 179.057 442.263 171.138 307.642C163.202 172.724 198.39 68.1473 276.381 23.243C354.373 -21.6613 462.481 0.411685 575.177 75.0132C687.625 149.45 803.361 275.45 895.491 435.465Z"
            stroke="url(#paint12_linear_35_2158)" stroke-width="8.91256" />
        <path
            d="M863.204 454.055C955.334 614.07 1006.2 777.422 1014.11 912.043C1022.05 1046.96 986.863 1151.54 908.871 1196.44C830.88 1241.35 722.772 1219.27 610.076 1144.67C497.628 1070.23 381.891 944.235 289.761 784.22C197.631 624.205 146.77 460.853 138.851 326.232C130.915 191.314 166.103 86.737 244.094 41.8327C322.086 -3.07157 430.193 19.0014 542.89 93.6029C655.338 168.04 771.074 294.04 863.204 454.055Z"
            stroke="url(#paint13_linear_35_2158)" stroke-width="8.91256" />
        <path
            d="M830.917 472.644C923.048 632.659 973.908 796.012 981.828 930.632C989.764 1065.55 954.576 1170.13 876.585 1215.03C798.593 1259.94 690.485 1237.86 577.789 1163.26C465.341 1088.82 349.605 962.825 257.474 802.81C165.344 642.794 114.483 479.442 106.564 344.822C98.6279 209.904 133.816 105.327 211.807 60.4223C289.799 15.518 397.907 37.591 510.603 112.193C623.051 186.63 738.787 312.629 830.917 472.644Z"
            stroke="url(#paint14_linear_35_2158)" stroke-width="8.91256" />
    </g>
    <defs>
        <linearGradient id="paint0_linear_35_2158" x1="1286.8" y1="210.167" x2="705.631" y2="544.779"
            gradientUnits="userSpaceOnUse">
            <stop stop-color="white" />
            <stop offset="1" stop-color="#807D7D" stop-opacity="0.54" />
        </linearGradient>
        <linearGradient id="paint1_linear_35_2158" x1="1254.51" y1="228.756" x2="673.344" y2="563.368"
            gradientUnits="userSpaceOnUse">
            <stop stop-color="white" />
            <stop offset="1" stop-color="#807D7D" stop-opacity="0.54" />
        </linearGradient>
        <linearGradient id="paint2_linear_35_2158" x1="1222.22" y1="247.346" x2="641.057" y2="581.958"
            gradientUnits="userSpaceOnUse">
            <stop stop-color="white" />
            <stop offset="1" stop-color="#807D7D" stop-opacity="0.54" />
        </linearGradient>
        <linearGradient id="paint3_linear_35_2158" x1="1189.94" y1="265.935" x2="608.77" y2="600.548"
            gradientUnits="userSpaceOnUse">
            <stop stop-color="white" />
            <stop offset="1" stop-color="#807D7D" stop-opacity="0.54" />
        </linearGradient>
        <linearGradient id="paint4_linear_35_2158" x1="1157.65" y1="284.526" x2="576.483" y2="619.138"
            gradientUnits="userSpaceOnUse">
            <stop stop-color="white" />
            <stop offset="1" stop-color="#807D7D" stop-opacity="0.54" />
        </linearGradient>
        <linearGradient id="paint5_linear_35_2158" x1="1125.36" y1="303.115" x2="544.196" y2="637.727"
            gradientUnits="userSpaceOnUse">
            <stop stop-color="white" />
            <stop offset="1" stop-color="#807D7D" stop-opacity="0.54" />
        </linearGradient>
        <linearGradient id="paint6_linear_35_2158" x1="1093.08" y1="321.705" x2="511.909" y2="656.317"
            gradientUnits="userSpaceOnUse">
            <stop stop-color="white" />
            <stop offset="1" stop-color="#807D7D" stop-opacity="0.54" />
        </linearGradient>
        <linearGradient id="paint7_linear_35_2158" x1="1060.79" y1="340.294" x2="479.622" y2="674.906"
            gradientUnits="userSpaceOnUse">
            <stop stop-color="white" />
            <stop offset="1" stop-color="#807D7D" stop-opacity="0.54" />
        </linearGradient>
        <linearGradient id="paint8_linear_35_2158" x1="1028.5" y1="358.884" x2="447.335" y2="693.496"
            gradientUnits="userSpaceOnUse">
            <stop stop-color="white" />
            <stop offset="1" stop-color="#807D7D" stop-opacity="0.54" />
        </linearGradient>
        <linearGradient id="paint9_linear_35_2158" x1="996.214" y1="377.473" x2="415.048" y2="712.086"
            gradientUnits="userSpaceOnUse">
            <stop stop-color="white" />
            <stop offset="1" stop-color="#807D7D" stop-opacity="0.54" />
        </linearGradient>
        <linearGradient id="paint10_linear_35_2158" x1="963.927" y1="396.062" x2="382.761" y2="730.675"
            gradientUnits="userSpaceOnUse">
            <stop stop-color="white" />
            <stop offset="1" stop-color="#807D7D" stop-opacity="0.54" />
        </linearGradient>
        <linearGradient id="paint11_linear_35_2158" x1="931.64" y1="414.652" x2="350.474" y2="749.264"
            gradientUnits="userSpaceOnUse">
            <stop stop-color="white" />
            <stop offset="1" stop-color="#807D7D" stop-opacity="0.54" />
        </linearGradient>
        <linearGradient id="paint12_linear_35_2158" x1="899.353" y1="433.242" x2="318.187" y2="767.854"
            gradientUnits="userSpaceOnUse">
            <stop stop-color="white" />
            <stop offset="1" stop-color="#807D7D" stop-opacity="0.54" />
        </linearGradient>
        <linearGradient id="paint13_linear_35_2158" x1="867.066" y1="451.832" x2="285.899" y2="786.444"
            gradientUnits="userSpaceOnUse">
            <stop stop-color="white" />
            <stop offset="1" stop-color="#807D7D" stop-opacity="0.54" />
        </linearGradient>
        <linearGradient id="paint14_linear_35_2158" x1="834.779" y1="470.421" x2="253.613" y2="805.033"
            gradientUnits="userSpaceOnUse">
            <stop stop-color="white" />
            <stop offset="1" stop-color="#807D7D" stop-opacity="0.54" />
        </linearGradient>
    </defs>
</svg>
