<svg width="100%" height="100%" viewBox="0 0 1095 515" fill="none" xmlns="http://www.w3.org/2000/svg">
    <g opacity="0.06">
        <path
            d="M917.424 528.715L898.216 526.203L917.424 528.715ZM913.346 559.9L894.138 557.388L913.346 559.9ZM894.909 618.989L877.684 610.125L894.909 618.989ZM830.76 725.692L816.479 712.604L830.76 725.692ZM809.688 748.685L795.407 735.597L809.688 748.685ZM788.616 771.678L802.897 784.767L788.616 771.678ZM740.968 811.04L730.809 794.546L740.968 811.04ZM687.817 843.777L697.976 860.271L687.817 843.777ZM630.896 867.515L626.325 848.69L630.896 867.515ZM570.205 882.253L574.776 901.078L570.205 882.253ZM508.632 888.423L509.376 869.066L508.632 888.423ZM446.177 886.023L446.921 866.666L446.177 886.023ZM384.716 875.751L390.283 857.196L384.716 875.751ZM324.248 857.606L318.681 876.16L324.248 857.606ZM269.824 828.286L282.257 813.431L269.824 828.286ZM221.443 787.791L209.01 802.646L221.443 787.791ZM178.295 742.674L193.701 730.93L178.295 742.674ZM159.337 717.804L174.743 706.06L159.337 717.804ZM140.38 692.934L124.974 704.677L140.38 692.934ZM110.515 638.65L92.3516 645.386L110.515 638.65ZM99.6073 609.237L117.77 602.502L99.6073 609.237ZM71.6349 456.107L52.3046 457.369L71.6349 456.107ZM188.523 172.891L201.536 187.241L188.523 172.891ZM211.878 151.711L198.864 137.362L211.878 151.711ZM235.232 130.532L222.219 116.182L235.232 130.532ZM287.282 96.5728L295.163 114.269L287.282 96.5728ZM315.977 83.7935L308.097 66.0975L315.977 83.7935ZM707.104 96.6711L700.046 114.711L707.104 96.6711ZM760.308 128.718L747.691 143.417L760.308 128.718ZM846.604 218.797L829.298 227.501L846.604 218.797ZM874.937 275.128L892.243 266.424L874.937 275.128ZM896.872 333.407L878.115 338.246L896.872 333.407ZM912.409 393.635L931.167 388.796L912.409 393.635ZM921.528 434.398L902.311 436.835L921.528 434.398ZM921.502 497.53L940.71 500.042L921.502 497.53ZM917.424 528.715L898.216 526.203L894.138 557.388L913.346 559.9L932.553 562.412L936.632 531.227L917.424 528.715ZM913.346 559.9L894.138 557.388C891.708 575.968 886.232 593.515 877.684 610.125L894.909 618.989L912.133 627.853C922.731 607.259 929.545 585.413 932.553 562.412L913.346 559.9ZM894.909 618.989L877.684 610.125L863.325 638.029L880.55 646.892L897.775 655.756L912.133 627.853L894.909 618.989ZM880.55 646.892L863.325 638.029L848.967 665.932L866.191 674.796L883.416 683.659L897.775 655.756L880.55 646.892ZM866.191 674.796L848.967 665.932C840.178 683.011 829.355 698.554 816.479 712.604L830.76 725.692L845.042 738.78C860.262 722.173 873.06 703.785 883.416 683.659L866.191 674.796ZM830.76 725.692L816.479 712.604L795.407 735.597L809.688 748.685L823.969 761.774L845.042 738.78L830.76 725.692ZM809.688 748.685L795.407 735.597L774.335 758.59L788.616 771.678L802.897 784.767L823.969 761.774L809.688 748.685ZM788.616 771.678L774.335 758.59C761.497 772.598 747.002 784.572 730.809 794.546L740.968 811.04L751.127 827.534C770.368 815.683 787.638 801.417 802.897 784.767L788.616 771.678ZM740.968 811.04L730.809 794.546L704.234 810.915L714.393 827.409L724.552 843.902L751.127 827.534L740.968 811.04ZM714.393 827.409L704.234 810.915L677.658 827.283L687.817 843.777L697.976 860.271L724.552 843.902L714.393 827.409ZM687.817 843.777L677.658 827.283C661.671 837.13 644.583 844.256 626.325 848.69L630.896 867.515L635.467 886.339C657.67 880.947 678.529 872.249 697.976 860.271L687.817 843.777ZM630.896 867.515L626.325 848.69L595.979 856.06L600.55 874.884L605.122 893.708L635.467 886.339L630.896 867.515ZM600.55 874.884L595.979 856.06L565.633 863.429L570.205 882.253L574.776 901.078L605.122 893.708L600.55 874.884ZM570.205 882.253L565.633 863.429C547.143 867.919 528.408 869.797 509.376 869.066L508.632 888.423L507.888 907.78C530.493 908.648 552.806 906.413 574.776 901.078L570.205 882.253ZM508.632 888.423L509.376 869.066L478.148 867.866L477.405 887.223L476.661 906.58L507.888 907.78L508.632 888.423ZM477.405 887.223L478.148 867.866L446.921 866.666L446.177 886.023L445.433 905.38L476.661 906.58L477.405 887.223ZM446.177 886.023L446.921 866.666C427.755 865.929 408.888 862.779 390.283 857.196L384.716 875.751L379.148 894.305C400.856 900.819 422.963 904.517 445.433 905.38L446.177 886.023ZM384.716 875.751L390.283 857.196L360.05 848.124L354.482 866.678L348.914 885.232L379.148 894.305L384.716 875.751ZM354.482 866.678L360.05 848.124L329.816 839.052L324.248 857.606L318.681 876.16L348.914 885.232L354.482 866.678ZM324.248 857.606L329.816 839.052C312.174 833.758 296.369 825.242 282.257 813.431L269.824 828.286L257.391 843.141C275.533 858.326 296.011 869.357 318.681 876.16L324.248 857.606ZM269.824 828.286L282.257 813.431L258.067 793.184L245.634 808.039L233.2 822.893L257.391 843.141L269.824 828.286ZM245.634 808.039L258.067 793.184L233.877 772.936L221.443 787.791L209.01 802.646L233.2 822.893L245.634 808.039ZM221.443 787.791L233.877 772.936C218.843 760.354 205.46 746.356 193.701 730.93L178.295 742.674L162.889 754.417C176.408 772.152 191.789 788.232 209.01 802.646L221.443 787.791ZM178.295 742.674L193.701 730.93L174.743 706.06L159.337 717.804L143.931 729.547L162.889 754.417L178.295 742.674ZM159.337 717.804L174.743 706.06L155.785 681.19L140.38 692.934L124.974 704.677L143.931 729.547L159.337 717.804ZM140.38 692.934L155.785 681.19C144.312 666.139 135.285 649.733 128.677 631.915L110.515 638.65L92.3516 645.386C100.287 666.785 111.17 686.568 124.974 704.677L140.38 692.934ZM110.515 638.65L128.677 631.915L117.77 602.502L99.6073 609.237L81.4444 615.972L92.3516 645.386L110.515 638.65ZM99.6073 609.237L117.77 602.502L106.863 573.089L88.7001 579.824L70.5373 586.559L81.4444 615.972L99.6073 609.237ZM88.7001 579.824L106.863 573.089C100.246 555.245 96.3173 536.807 95.0706 517.714L75.7403 518.976L56.41 520.238C57.9001 543.058 62.6111 565.185 70.5373 586.559L88.7001 579.824ZM75.7403 518.976L95.0706 517.714L93.0179 486.279L73.6876 487.542L54.3573 488.804L56.41 520.238L75.7403 518.976ZM73.6876 487.542L93.0179 486.279L90.9652 454.845L71.6349 456.107L52.3046 457.369L54.3573 488.804L73.6876 487.542ZM71.6349 456.107L90.9652 454.845C89.724 435.838 91.332 417.069 95.8004 398.473L76.965 393.947L58.1297 389.422C52.7543 411.793 50.8088 434.464 52.3046 457.369L71.6349 456.107ZM76.965 393.947L95.8004 398.473L103.183 367.748L84.3478 363.222L65.5125 358.696L58.1297 389.422L76.965 393.947ZM84.3478 363.222L103.183 367.748L110.566 337.023L91.7306 332.497L72.8953 327.971L65.5125 358.696L84.3478 363.222ZM91.7306 332.497L110.566 337.023C115.013 318.516 122.195 301.19 132.14 284.974L115.627 274.846L99.1141 264.718C87.0411 284.403 78.2921 305.511 72.8953 327.971L91.7306 332.497ZM115.627 274.846L132.14 284.974L148.654 258.049L132.141 247.921L115.628 237.793L99.1141 264.718L115.627 274.846ZM132.141 247.921L148.654 258.049L165.168 231.124L148.655 220.996L132.142 210.868L115.628 237.793L132.141 247.921ZM148.655 220.996L165.168 231.124C175.218 214.737 187.33 200.124 201.536 187.241L188.523 172.891L175.51 158.542C158.577 173.898 144.11 191.355 132.142 210.868L148.655 220.996ZM188.523 172.891L201.536 187.241L224.891 166.061L211.878 151.711L198.864 137.362L175.51 158.542L188.523 172.891ZM211.878 151.711L224.891 166.061L248.245 144.881L235.232 130.532L222.219 116.182L198.864 137.362L211.878 151.711ZM235.232 130.532L248.245 144.881C262.298 132.137 277.917 121.949 295.163 114.269L287.282 96.5728L279.401 78.8769C258.386 88.2357 239.305 100.687 222.219 116.182L235.232 130.532ZM287.282 96.5728L295.163 114.269L323.858 101.489L315.977 83.7935L308.097 66.0975L279.401 78.8769L287.282 96.5728ZM315.977 83.7935L323.858 101.489L352.554 88.7101L344.673 71.0141L336.792 53.3182L308.097 66.0975L315.977 83.7935ZM344.673 71.0141L352.554 88.7101C370.032 80.9261 388.157 75.7396 406.978 73.1278L404.316 53.9402L401.653 34.7526C379.211 37.8669 357.574 44.063 336.792 53.3182L344.673 71.0141ZM404.316 53.9402L406.978 73.1278L437.926 68.8333L435.263 49.6457L432.601 30.458L401.653 34.7526L404.316 53.9402ZM435.263 49.6457L437.926 68.8333L468.874 64.5387L466.211 45.3511L463.548 26.1635L432.601 30.458L435.263 49.6457ZM466.211 45.3511L468.874 64.5387C487.524 61.9506 506.023 62.2693 524.442 65.4862L527.774 46.4035L531.107 27.3209C508.705 23.4084 486.161 23.0256 463.548 26.1635L466.211 45.3511ZM527.774 46.4035L524.442 65.4862L555.058 70.8332L558.39 51.7505L561.723 32.6679L531.107 27.3209L527.774 46.4035ZM558.39 51.7505L555.058 70.8332L585.674 76.1802L589.006 57.0975L592.339 38.0149L561.723 32.6679L558.39 51.7505ZM589.006 57.0975L585.674 76.1802C604.801 79.5207 623.479 84.7548 641.725 91.8933L648.783 73.8534L655.841 55.8135C635.206 47.7401 614.033 41.8036 592.339 38.0149L589.006 57.0975ZM648.783 73.8534L641.725 91.8933L670.885 103.302L677.943 85.2623L685.001 67.2223L655.841 55.8135L648.783 73.8534ZM677.943 85.2623L670.885 103.302L700.046 114.711L707.104 96.6711L714.162 78.6312L685.001 67.2223L677.943 85.2623ZM707.104 96.6711L700.046 114.711C717.434 121.514 733.294 131.059 747.691 143.417L760.308 128.718L772.925 114.019C755.264 98.8593 735.654 87.04 714.162 78.6312L707.104 96.6711ZM760.308 128.718L747.691 143.417L771.734 164.055L784.351 149.356L796.968 134.657L772.925 114.019L760.308 128.718ZM784.351 149.356L771.734 164.055L795.777 184.693L808.394 169.994L821.012 155.294L796.968 134.657L784.351 149.356ZM808.394 169.994L795.777 184.693C809.872 196.791 821.011 211.025 829.298 227.501L846.604 218.797L863.91 210.093C853.309 189.015 838.974 170.713 821.012 155.294L808.394 169.994ZM846.604 218.797L829.298 227.501L843.465 255.667L860.771 246.962L878.076 238.258L863.91 210.093L846.604 218.797ZM860.771 246.962L843.465 255.667L857.631 283.832L874.937 275.128L892.243 266.424L878.076 238.258L860.771 246.962ZM874.937 275.128L857.631 283.832C866.464 301.393 873.285 319.525 878.115 338.246L896.872 333.407L915.63 328.568C910.101 307.138 902.299 286.417 892.243 266.424L874.937 275.128ZM896.872 333.407L878.115 338.246L885.883 368.36L904.641 363.521L923.398 358.682L915.63 328.568L896.872 333.407ZM904.641 363.521L885.883 368.36L893.652 398.474L912.409 393.635L931.167 388.796L923.398 358.682L904.641 363.521ZM912.409 393.635L893.652 398.474C898.875 418.719 901.589 431.143 902.311 436.835L921.528 434.398L940.746 431.96C939.667 423.454 936.302 408.703 931.167 388.796L912.409 393.635ZM921.528 434.398L902.311 436.835L903.662 447.484L922.879 445.047L942.097 442.609L940.746 431.96L921.528 434.398ZM922.879 445.047L903.662 447.484L905.012 458.133L924.23 455.696L943.447 453.258L942.097 442.609L922.879 445.047ZM924.23 455.696L905.012 458.133C905.548 462.358 905.064 473.84 902.294 495.018L921.502 497.53L940.71 500.042C943.378 479.639 944.712 463.232 943.447 453.258L924.23 455.696ZM921.502 497.53L902.294 495.018L898.216 526.203L917.424 528.715L936.632 531.227L940.71 500.042L921.502 497.53Z"
            fill="black" fill-opacity="0.3" />
        <path
            d="M1064.55 498.979L1045.32 496.607L1064.55 498.979ZM1050.61 559.99L1032.26 553.786L1050.61 559.99ZM1040.52 589.84L1058.88 596.043L1040.52 589.84ZM1030.43 619.691L1012.08 613.487L1030.43 619.691ZM1001.15 674.45L1016.49 686.275L1001.15 674.45ZM962.752 724.269L947.409 712.444L962.752 724.269ZM920.633 770.363L907.485 756.138L920.633 770.363ZM874.789 812.735L861.641 798.509L874.789 812.735ZM825.154 850.712L835.463 867.113L825.154 850.712ZM798.44 867.504L788.131 851.104L798.44 867.504ZM771.727 884.296L782.036 900.697L771.727 884.296ZM714.122 907.681L710.079 888.736L714.122 907.681ZM652.341 920.866L656.384 939.811L652.341 920.866ZM590.016 928.619L590.731 947.977L590.016 928.619ZM465.401 923.996L460.397 942.711L465.401 923.996ZM404.776 907.787L409.78 889.073L404.776 907.787ZM345.539 887.35L353.136 869.53L345.539 887.35ZM316.614 875.018L309.017 892.837L316.614 875.018ZM287.69 862.686L280.092 880.505L287.69 862.686ZM235.857 828.817L222.588 842.93L235.857 828.817ZM212.948 807.279L199.68 821.393L212.948 807.279ZM190.04 785.742L203.309 771.629L190.04 785.742ZM147.144 739.961L132.197 752.285L147.144 739.961ZM127.156 715.718L112.209 728.041L127.156 715.718ZM107.167 691.475L122.114 679.152L107.167 691.475ZM75.6123 637.93L57.5939 645.042L75.6123 637.93ZM21.6561 394.98L2.53403 391.882L21.6561 394.98ZM45.5979 271.738L27.0164 266.263L45.5979 271.738ZM119.02 99.8607L135.833 109.483L119.02 99.8607ZM157.592 50.8133L170.911 64.8796L157.592 50.8133ZM180.516 29.1073L167.197 15.041L180.516 29.1073ZM306.483 -65.1493L296.104 -81.5053L306.483 -65.1493ZM363.533 -91.3711L357.871 -109.897L363.533 -91.3711ZM734.138 -89.3198L743.346 -106.363L734.138 -89.3198ZM789.691 -59.3053L780.483 -42.2623L789.691 -59.3053ZM842.336 -25.4042L830.618 -9.97948L842.336 -25.4042ZM867.205 -6.5103L878.924 -21.935L867.205 -6.5103ZM892.074 12.3836L903.793 -3.04113L892.074 12.3836ZM938.276 54.5723L952.562 41.4891L938.276 54.5723ZM980.944 101.162L966.659 114.245L980.944 101.162ZM1012.81 154.198L1031.07 147.733L1012.81 154.198ZM1033.87 213.681L1015.61 220.147L1033.87 213.681ZM1051.04 273.827L1069.96 269.696L1051.04 273.827ZM1064.31 334.636L1045.38 338.767L1064.31 334.636ZM1072.23 375.156L1053.01 377.595L1072.23 375.156ZM1074.8 395.385L1055.58 397.824L1074.8 395.385ZM1072.24 436.66L1091.46 439.032L1072.24 436.66ZM1068.39 467.82L1049.17 465.448L1045.32 496.607L1064.55 498.979L1083.77 501.351L1087.62 470.192L1068.39 467.82ZM1064.55 498.979L1045.32 496.607C1042.92 516.072 1038.57 535.126 1032.26 553.786L1050.61 559.99L1068.97 566.193C1076.11 545.053 1081.05 523.433 1083.77 501.351L1064.55 498.979ZM1050.61 559.99L1032.26 553.786L1022.17 583.637L1040.52 589.84L1058.88 596.043L1068.97 566.193L1050.61 559.99ZM1040.52 589.84L1022.17 583.637L1012.08 613.487L1030.43 619.691L1048.79 625.894L1058.88 596.043L1040.52 589.84ZM1030.43 619.691L1012.08 613.487C1006.04 631.365 997.293 647.717 985.803 662.625L1001.15 674.45L1016.49 686.275C1030.6 667.971 1041.37 647.817 1048.79 625.894L1030.43 619.691ZM1001.15 674.45L985.803 662.625L966.606 687.534L981.95 699.359L997.293 711.185L1016.49 686.275L1001.15 674.45ZM981.95 699.359L966.606 687.534L947.409 712.444L962.752 724.269L978.096 736.094L997.293 711.185L981.95 699.359ZM962.752 724.269L947.409 712.444C935.269 728.196 921.962 742.757 907.485 756.138L920.633 770.363L933.781 784.589C949.866 769.723 964.639 753.554 978.096 736.094L962.752 724.269ZM920.633 770.363L907.485 756.138L884.563 777.323L897.711 791.549L910.859 805.775L933.781 784.589L920.633 770.363ZM897.711 791.549L884.563 777.323L861.641 798.509L874.789 812.735L887.937 826.961L910.859 805.775L897.711 791.549ZM874.789 812.735L861.641 798.509C847.246 811.813 831.653 823.746 814.844 834.312L825.154 850.712L835.463 867.113C854.272 855.289 871.769 841.904 887.937 826.961L874.789 812.735ZM825.154 850.712L814.844 834.312L788.131 851.104L798.44 867.504L808.749 883.905L835.463 867.113L825.154 850.712ZM798.44 867.504L788.131 851.104L761.417 867.896L771.727 884.296L782.036 900.697L808.749 883.905L798.44 867.504ZM771.727 884.296L761.417 867.896C745.534 877.88 728.454 884.815 710.079 888.736L714.122 907.681L718.165 926.626C740.979 921.757 762.301 913.102 782.036 900.697L771.727 884.296ZM714.122 907.681L710.079 888.736L679.189 895.328L683.232 914.273L687.275 933.218L718.165 926.626L714.122 907.681ZM683.232 914.273L679.189 895.328L648.298 901.921L652.341 920.866L656.384 939.811L687.275 933.218L683.232 914.273ZM652.341 920.866L648.298 901.921C628.795 906.083 609.134 908.528 589.301 909.261L590.016 928.619L590.731 947.977C612.811 947.162 634.7 944.438 656.384 939.811L652.341 920.866ZM590.016 928.619L589.301 909.261L557.867 910.422L558.582 929.78L559.297 949.138L590.731 947.977L590.016 928.619ZM558.582 929.78L557.867 910.422L526.433 911.582L527.148 930.941L527.862 950.299L559.297 949.138L558.582 929.78ZM527.148 930.941L526.433 911.582C507.399 912.285 488.745 910.186 470.405 905.282L465.401 923.996L460.397 942.711C482.474 948.613 504.984 951.144 527.862 950.299L527.148 930.941ZM465.401 923.996L470.405 905.282L440.092 897.178L435.088 915.892L430.085 934.606L460.397 942.711L465.401 923.996ZM435.088 915.892L440.092 897.178L409.78 889.073L404.776 907.787L399.772 926.501L430.085 934.606L435.088 915.892ZM404.776 907.787L409.78 889.073C390.458 883.906 371.579 877.393 353.136 869.53L345.539 887.35L337.942 905.169C358.065 913.749 378.678 920.86 399.772 926.501L404.776 907.787ZM345.539 887.35L353.136 869.53L324.212 857.198L316.614 875.018L309.017 892.837L337.942 905.169L345.539 887.35ZM316.614 875.018L324.212 857.198L295.287 844.866L287.69 862.686L280.092 880.505L309.017 892.837L316.614 875.018ZM287.69 862.686L295.287 844.866C278.097 837.538 262.74 827.502 249.126 814.703L235.857 828.817L222.588 842.93C239.518 858.847 258.716 871.391 280.092 880.505L287.69 862.686ZM235.857 828.817L249.126 814.703L226.217 793.166L212.948 807.279L199.68 821.393L222.588 842.93L235.857 828.817ZM212.948 807.279L226.217 793.166L203.309 771.629L190.04 785.742L176.771 799.856L199.68 821.393L212.948 807.279ZM190.04 785.742L203.309 771.629C188.633 757.831 174.895 743.168 162.09 727.638L147.144 739.961L132.197 752.285C146.044 769.079 160.903 784.937 176.771 799.856L190.04 785.742ZM147.144 739.961L162.09 727.638L142.102 703.395L127.156 715.718L112.209 728.041L132.197 752.285L147.144 739.961ZM127.156 715.718L142.102 703.395L122.114 679.152L107.167 691.475L92.2209 703.798L112.209 728.041L127.156 715.718ZM107.167 691.475L122.114 679.152C110.082 664.559 100.599 648.47 93.6308 630.817L75.6123 637.93L57.5939 645.042C66.0479 666.459 77.6015 686.066 92.2209 703.798L107.167 691.475ZM75.6123 637.93L93.6308 630.817L82.0641 601.515L64.0456 608.628L46.0272 615.74L57.5939 645.042L75.6123 637.93ZM64.0456 608.628L82.0641 601.515L70.4973 572.213L52.4789 579.325L34.4604 586.438L46.0272 615.74L64.0456 608.628ZM52.4789 579.325L70.4973 572.213C63.22 553.777 57.6712 534.815 53.8482 515.311L34.8385 519.037L15.8288 522.763C20.1041 544.575 26.3155 565.804 34.4604 586.438L52.4789 579.325ZM34.8385 519.037L53.8482 515.311L47.7746 484.324L28.7648 488.05L9.7551 491.776L15.8288 522.763L34.8385 519.037ZM28.7648 488.05L47.7746 484.324L41.7009 453.338L22.6912 457.064L3.68143 460.79L9.7551 491.776L28.7648 488.05ZM22.6912 457.064L41.7009 453.338C38.0918 434.925 37.7868 416.541 40.7782 398.078L21.6561 394.98L2.53403 391.882C-1.19268 414.882 -0.807692 437.887 3.68143 460.79L22.6912 457.064ZM21.6561 394.98L40.7782 398.078L45.8168 366.981L26.6947 363.883L7.57265 360.785L2.53403 391.882L21.6561 394.98ZM26.6947 363.883L45.8168 366.981L50.8554 335.885L31.7333 332.786L12.6113 329.688L7.57265 360.785L26.6947 363.883ZM31.7333 332.786L50.8554 335.885C54.0856 315.949 58.5274 296.394 64.1794 277.214L45.5979 271.738L27.0164 266.263C20.9005 287.017 16.0993 308.161 12.6113 329.688L31.7333 332.786ZM45.5979 271.738L64.1794 277.214L73.0054 247.263L54.4239 241.787L35.8424 236.311L27.0164 266.263L45.5979 271.738ZM54.4239 241.787L73.0054 247.263L81.8314 217.311L63.2499 211.836L44.6684 206.36L35.8424 236.311L54.4239 241.787ZM63.2499 211.836L81.8314 217.311C87.2853 198.803 94.8468 181.096 104.537 164.166L87.7239 154.543L70.9112 144.921C59.7369 164.446 50.9824 184.934 44.6684 206.36L63.2499 211.836ZM87.7239 154.543L104.537 164.166L120.185 136.824L103.372 127.202L86.5592 117.58L70.9112 144.921L87.7239 154.543ZM103.372 127.202L120.185 136.824L135.833 109.483L119.02 99.8607L102.207 90.2384L86.5592 117.58L103.372 127.202ZM119.02 99.8607L135.833 109.483C145.322 92.9032 157.001 78.0506 170.911 64.8796L157.592 50.8133L144.273 36.747C127.618 52.5174 113.582 70.3631 102.207 90.2384L119.02 99.8607ZM157.592 50.8133L170.911 64.8796L193.835 43.1736L180.516 29.1073L167.197 15.041L144.273 36.747L157.592 50.8133ZM180.516 29.1073L193.835 43.1736L216.759 21.4676L203.44 7.40131L190.121 -6.66499L167.197 15.041L180.516 29.1073ZM203.44 7.40131L216.759 21.4676C231.136 7.85445 246.695 -4.2639 263.45 -14.897L253.071 -31.2529L242.691 -47.6088C223.838 -35.6443 206.31 -21.9932 190.121 -6.66499L203.44 7.40131ZM253.071 -31.2529L263.45 -14.897L290.157 -31.8452L279.777 -48.2011L269.397 -64.557L242.691 -47.6088L253.071 -31.2529ZM279.777 -48.2011L290.157 -31.8452L316.863 -48.7934L306.483 -65.1493L296.104 -81.5053L269.397 -64.557L279.777 -48.2011ZM306.483 -65.1493L316.863 -48.7934C333.195 -59.1576 350.623 -67.1698 369.194 -72.8455L363.533 -91.3711L357.871 -109.897C335.984 -103.208 315.381 -93.7387 296.104 -81.5053L306.483 -65.1493ZM363.533 -91.3711L369.194 -72.8455L399.537 -82.119L393.875 -100.645L388.214 -119.17L357.871 -109.897L363.533 -91.3711ZM393.875 -100.645L399.537 -82.119L429.88 -91.3925L424.218 -109.918L418.556 -128.444L388.214 -119.17L393.875 -100.645ZM424.218 -109.918L429.88 -91.3925C448.285 -97.0175 467.021 -99.8251 486.15 -99.8327L486.142 -119.204L486.135 -138.576C463.155 -138.567 440.609 -135.183 418.556 -128.444L424.218 -109.918ZM486.142 -119.204L486.15 -99.8327L517.731 -99.8453L517.723 -119.217L517.716 -138.588L486.135 -138.576L486.142 -119.204ZM517.723 -119.217L517.731 -99.8453L549.312 -99.8578L549.305 -119.229L549.297 -138.601L517.716 -138.588L517.723 -119.217ZM549.305 -119.229L549.312 -99.8578C569.6 -99.8659 589.817 -98.6724 609.968 -96.2771L612.255 -115.513L614.541 -134.749C592.867 -137.325 571.118 -138.609 549.297 -138.601L549.305 -119.229ZM612.255 -115.513L609.968 -96.2771L641.337 -92.5484L643.623 -111.784L645.91 -131.021L614.541 -134.749L612.255 -115.513ZM643.623 -111.784L641.337 -92.5484L672.706 -88.8197L674.992 -108.056L677.279 -127.292L645.91 -131.021L643.623 -111.784ZM674.992 -108.056L672.706 -88.8197C691.195 -86.622 708.562 -81.1202 724.93 -72.2768L734.138 -89.3198L743.346 -106.363C722.678 -117.529 700.615 -124.518 677.279 -127.292L674.992 -108.056ZM734.138 -89.3198L724.93 -72.2768L752.706 -57.2695L761.914 -74.3126L771.123 -91.3556L743.346 -106.363L734.138 -89.3198ZM761.914 -74.3126L752.706 -57.2695L780.483 -42.2623L789.691 -59.3053L798.899 -76.3484L771.123 -91.3556L761.914 -74.3126ZM789.691 -59.3053L780.483 -42.2623C798.133 -32.7263 814.841 -21.9656 830.618 -9.97948L842.336 -25.4042L854.055 -40.8289C836.674 -54.0346 818.285 -65.8747 798.899 -76.3484L789.691 -59.3053ZM842.336 -25.4042L830.618 -9.97948L855.486 8.91441L867.205 -6.5103L878.924 -21.935L854.055 -40.8289L842.336 -25.4042ZM867.205 -6.5103L855.486 8.91441L880.355 27.8083L892.074 12.3836L903.793 -3.04113L878.924 -21.935L867.205 -6.5103ZM892.074 12.3836L880.355 27.8083C895.999 39.6942 910.543 52.9717 923.991 67.6556L938.276 54.5723L952.562 41.4891C937.565 25.1132 921.306 10.2648 903.793 -3.04113L892.074 12.3836ZM938.276 54.5723L923.991 67.6556L945.325 90.9505L959.61 77.8672L973.896 64.784L952.562 41.4891L938.276 54.5723ZM959.61 77.8672L945.325 90.9505L966.659 114.245L980.944 101.162L995.23 88.0789L973.896 64.784L959.61 77.8672ZM980.944 101.162L966.659 114.245C979.128 127.861 988.397 143.29 994.548 160.664L1012.81 154.198L1031.07 147.733C1023.18 125.452 1011.21 105.523 995.23 88.0789L980.944 101.162ZM1012.81 154.198L994.548 160.664L1005.08 190.405L1023.34 183.94L1041.6 177.474L1031.07 147.733L1012.81 154.198ZM1023.34 183.94L1005.08 190.405L1015.61 220.147L1033.87 213.681L1052.13 207.216L1041.6 177.474L1023.34 183.94ZM1033.87 213.681L1015.61 220.147C1022.36 239.221 1027.86 258.491 1032.11 277.958L1051.04 273.827L1069.96 269.696C1065.36 248.624 1059.42 227.796 1052.13 207.216L1033.87 213.681ZM1051.04 273.827L1032.11 277.958L1038.75 308.363L1057.67 304.232L1076.6 300.101L1069.96 269.696L1051.04 273.827ZM1057.67 304.232L1038.75 308.363L1045.38 338.767L1064.31 334.636L1083.24 330.505L1076.6 300.101L1057.67 304.232ZM1064.31 334.636L1045.38 338.767C1049.84 359.189 1052.28 371.85 1053.01 377.595L1072.23 375.156L1091.45 372.717C1090.47 364.975 1087.63 350.623 1083.24 330.505L1064.31 334.636ZM1072.23 375.156L1053.01 377.595L1054.3 387.709L1073.51 385.27L1092.73 382.831L1091.45 372.717L1072.23 375.156ZM1073.51 385.27L1054.3 387.709L1055.58 397.824L1074.8 395.385L1094.02 392.946L1092.73 382.831L1073.51 385.27ZM1074.8 395.385L1055.58 397.824C1056.08 401.745 1055.63 413.049 1053.01 434.288L1072.24 436.66L1091.46 439.032C1093.97 418.724 1095.23 402.512 1094.02 392.946L1074.8 395.385ZM1072.24 436.66L1053.01 434.288L1049.17 465.448L1068.39 467.82L1087.62 470.192L1091.46 439.032L1072.24 436.66Z"
            fill="black" fill-opacity="0.3" />
    </g>
</svg>
