<svg width="117" height="44" viewBox="0 0 117 44" fill="none" xmlns="http://www.w3.org/2000/svg">
<g clip-path="url(#clip0_320_577)">
<path d="M0.296333 21.3444C0.172813 19.714 0.568078 18.3306 1.13627 16.9718C1.58094 15.9466 2.12443 14.9708 2.80379 14.0815C3.02613 13.785 3.12494 13.4886 3.12494 13.118C3.12494 11.7346 3.12494 10.3388 3.12494 8.85656C4.31074 10.0177 5.66946 9.73356 6.99112 9.51122C9.96796 9.00479 12.8213 8.02898 15.6993 7.11493C22.9499 4.81745 30.2623 2.81643 37.7353 1.39595C45.8876 -0.148055 54.077 -0.555671 62.3034 0.790699C68.1089 1.7418 73.6302 3.49579 78.6699 6.62085C79.0034 6.83083 79.3245 7.05317 79.6457 7.27551C79.8804 7.43608 80.1027 7.60901 80.3744 7.81899C79.9298 8.06603 79.4727 8.02898 79.0528 8.16485C77.2 8.80715 75.5942 8.47365 73.8155 7.54725C67.763 4.39749 61.1794 3.16229 54.3982 3.05112C44.5659 2.89054 35.129 4.87921 25.9885 8.38719C25.7662 8.47365 25.5191 8.51071 25.3339 8.74539C26.6926 9.15301 28.0019 9.62239 29.2247 10.2894C32.3251 11.9693 34.7832 14.3532 36.6236 17.3547C36.8336 17.6883 37.0436 17.8365 37.4388 17.8612C45.3935 18.417 53.3482 18.9976 61.2906 19.5658C65.1938 19.8499 69.0847 20.134 72.9879 20.4304C73.1115 20.4304 73.2473 20.381 73.3832 20.5786C72.0492 20.5786 70.7522 20.5786 69.4553 20.5786C58.1161 20.5786 46.777 20.5786 35.4255 20.591C34.919 20.591 34.709 20.4304 34.4744 19.9734C32.7821 16.5889 30.1511 14.0938 26.7914 12.451C20.7636 9.49887 14.6494 9.25183 8.60924 12.451C5.11362 14.3038 2.58146 17.1571 0.654542 20.5786C0.543374 20.7886 0.432206 20.9862 0.259277 21.3197L0.296333 21.3444Z" fill="#484848"/>
<path d="M103.016 17.1197C104.844 16.9097 106.499 16.7244 108.352 16.5145C106.931 15.7733 105.634 15.2669 104.288 14.8222C99.7178 13.3029 94.9994 12.5865 90.2191 12.2654C82.1162 11.7219 74.0503 12.043 66.0956 13.7476C58.1162 15.4522 49.2846 14.2417 42.3057 11.3019C43.2691 11.5119 44.2202 11.7713 45.196 11.9442C49.124 12.673 53.0643 12.5989 57.0169 12.2654C64.6628 11.6354 72.2346 10.4126 79.8187 9.35029C86.9705 8.34977 94.0112 8.53505 100.941 10.7708C105.079 12.1048 108.945 13.9946 112.428 16.6256C112.836 16.9344 113.07 17.2803 113.194 17.7744C113.564 19.3801 113.984 20.9859 114.404 22.7152C111.329 19.3554 107.29 18.1943 103.028 17.1074L103.016 17.1197Z" fill="#484848"/>
<path d="M99.6808 23.5673H99.0632C98.2109 21.3934 96.7905 19.6147 94.703 18.2807C92.7266 17.0207 90.5527 16.4526 88.2182 16.5884C84.5373 16.7984 80.8687 18.9106 79.0159 22.7397H78.1389C78.633 20.084 80.0411 17.836 82.4498 16.082C86.1554 13.3893 90.9232 13.2534 94.7524 15.7485C97.7292 17.6754 99.3103 20.3187 99.6808 23.5673Z" fill="#484848"/>
<path d="M28.5702 21.7645C28.1997 21.7398 27.8167 21.7645 27.4338 21.7769C25.2969 18.3554 21.6407 16.6014 18.2563 16.5767C15.5141 16.5396 13.0684 17.429 10.981 19.2076C9.96809 20.0723 9.16521 21.0605 8.54761 22.1474C8.21411 22.0486 7.89295 21.9621 7.55945 21.9004C8.23881 19.2941 9.84457 17.1449 12.4632 15.5885C16.4405 13.2416 20.5044 13.3898 24.3211 15.9838C26.5321 17.4784 27.9279 19.4423 28.5702 21.7645Z" fill="#484848"/>
<path d="M16.0699 12.7227C15.23 13.0315 14.3653 13.3032 13.5377 13.6614C10.388 15.0572 7.95463 17.1941 6.65767 20.4674C6.65767 20.4921 6.65767 20.5044 6.63297 20.5291C6.44769 20.8873 6.49709 21.4061 6.26241 21.7026C6.22535 21.7643 6.16359 21.8137 6.08948 21.8508C5.70657 22.0361 5.15072 21.9002 4.68135 21.9002H1.92685C1.92685 21.9002 1.87744 21.9002 1.84039 21.8879H1.82803C1.82803 21.8879 1.75392 21.8755 1.67981 21.8632C3.28557 19.0963 5.23719 16.7124 7.88052 14.9831C10.3633 13.365 13.0684 12.488 16.0699 12.7227Z" fill="#484848"/>
<path d="M98.5566 17.8366C103.065 18.9977 107.709 19.7758 111.563 22.6168C111.551 22.6909 111.526 22.765 111.514 22.8391C111.217 22.8391 110.921 22.8391 110.625 22.8391C107.697 22.8391 104.782 22.8391 101.855 22.8391C101.422 22.8391 101.225 22.728 101.076 22.2956C100.508 20.6652 99.8165 19.0965 98.5566 17.8242V17.8366Z" fill="#484848"/>
<path d="M22.6907 12.9448C27.335 13.8589 30.7195 16.6504 33.5975 20.4548C32.5723 20.4548 31.6706 20.4548 30.7689 20.4548C30.4354 20.4548 30.4477 20.1337 30.3489 19.9361C28.879 16.9839 26.7421 14.7235 23.7035 13.3524C23.37 13.2042 23.0242 13.0807 22.6907 12.9448Z" fill="#484848"/>
<path d="M0 24.0124H8.2882V27.7797H4.8914V31.3494H7.91764V34.9315H4.8914V42.8368H0V24V24.0124Z" fill="#484848"/>
<path d="M19.9855 35.4015H13.8959V38.7365C13.8959 39.4282 13.9453 39.8853 14.0442 40.0829C14.143 40.2805 14.3406 40.3917 14.6247 40.3917C14.9829 40.3917 15.2176 40.2558 15.3411 39.9841C15.4646 39.7123 15.5264 39.1935 15.5264 38.4277V36.3896H19.9855V37.526C19.9855 38.4771 19.9237 39.2183 19.8002 39.7247C19.6767 40.2311 19.4049 40.787 18.9603 41.3675C18.5156 41.948 17.9597 42.3804 17.2804 42.6768C16.601 42.9733 15.7487 43.1091 14.7235 43.1091C13.6983 43.1091 12.8584 42.9609 12.0925 42.6768C11.3267 42.3927 10.7462 41.9975 10.3139 41.491C9.89388 40.9846 9.59744 40.4411 9.43686 39.8359C9.27628 39.2306 9.18982 38.366 9.18982 37.2172V32.7087C9.18982 31.3624 9.3751 30.3001 9.73331 29.5219C10.0915 28.7437 10.6968 28.1509 11.5243 27.7309C12.3519 27.3109 13.303 27.1133 14.39 27.1133C15.7117 27.1133 16.7987 27.3603 17.6509 27.8668C18.5032 28.3732 19.1085 29.0278 19.4543 29.8554C19.8002 30.683 19.9731 31.8441 19.9731 33.3387V35.3891L19.9855 35.4015ZM15.2794 32.894V31.77C15.2794 30.9671 15.23 30.4607 15.1558 30.226C15.0694 29.9913 14.8964 29.8801 14.6371 29.8801C14.3159 29.8801 14.1059 29.9789 14.0318 30.1766C13.9577 30.3742 13.9206 30.9053 13.9206 31.77V32.894H15.2917H15.2794Z" fill="#484848"/>
<path d="M26.3592 24.0122V42.849H21.5172V24.0122H26.3592Z" fill="#484848"/>
<path d="M32.8811 24.0122V26.4703H28.0391V24.0122H32.8811ZM32.8811 27.409V42.849H28.0391V27.409H32.8811Z" fill="#484848"/>
<path d="M43.8868 27.4092L42.0092 34.7833L44.282 42.8492H39.7118C39.2547 40.8111 38.9089 39.0571 38.6866 37.5872C38.3778 39.4277 38.0319 41.1693 37.6613 42.8492H33.7334L35.7591 34.7833L33.7334 27.4092H37.6613C38.2913 30.5589 38.6371 32.35 38.6866 32.7823C39.1436 30.1513 39.4894 28.3603 39.7118 27.4092H43.8868Z" fill="#484848"/>
<path d="M64.354 24.0122V42.849H60.0678V30.1388L58.3632 42.849H55.3246L53.5213 30.4229V42.849H49.2351V24.0122H55.5717C55.757 25.1486 55.9546 26.4826 56.1522 28.0143L56.8439 32.8068L57.968 24.0122H64.3416H64.354Z" fill="#484848"/>
<path d="M76.8171 32.8316V36.6113C76.8171 37.9948 76.743 39.02 76.6071 39.6623C76.4712 40.3046 76.1748 40.9098 75.7178 41.478C75.2607 42.0462 74.6678 42.4538 73.9514 42.7256C73.235 42.9973 72.4074 43.1209 71.481 43.1209C70.4435 43.1209 69.5665 43.0097 68.8377 42.775C68.1089 42.5403 67.5531 42.2068 67.1578 41.7374C66.7626 41.2804 66.4785 40.7122 66.3055 40.0576C66.1326 39.4029 66.0461 38.4147 66.0461 37.1054V33.1528C66.0461 31.72 66.1944 30.5959 66.5155 29.793C66.8367 28.9902 67.3802 28.3355 68.1954 27.8538C69.0106 27.372 70.0358 27.125 71.2834 27.125C72.3333 27.125 73.2474 27.2856 74.0008 27.5944C74.7543 27.9032 75.3349 28.3231 75.7548 28.8172C76.1748 29.3113 76.4465 29.8424 76.5948 30.3736C76.743 30.9047 76.8171 31.7199 76.8171 32.8193V32.8316ZM72.1233 31.6705C72.1233 30.88 72.0739 30.3859 71.9998 30.1759C71.9133 29.966 71.7281 29.8671 71.4563 29.8671C71.1846 29.8671 70.9869 29.966 70.9005 30.1759C70.8017 30.3859 70.7646 30.88 70.7646 31.6705V38.6371C70.7646 39.3658 70.814 39.8352 70.9005 40.0576C70.9993 40.2799 71.1722 40.3911 71.444 40.3911C71.7157 40.3911 71.9133 40.2922 71.9998 40.0823C72.0863 39.8846 72.1357 39.4523 72.1357 38.7853V31.6705H72.1233Z" fill="#484848"/>
<path d="M83.3143 25.3589V27.7922H84.5866V30.2379H83.3143V38.5014C83.3143 39.5143 83.3637 40.0825 83.4749 40.206C83.5737 40.3172 84.0184 40.3789 84.7842 40.3789V42.874H82.882C81.8074 42.874 81.0416 42.8246 80.5845 42.7382C80.1275 42.6517 79.7199 42.4417 79.3741 42.1206C79.0282 41.7994 78.8059 41.4289 78.7194 41.0212C78.6329 40.6136 78.5959 39.6255 78.5959 38.0938V30.2503H77.583V27.8046H78.5959V25.3712H83.302L83.3143 25.3589Z" fill="#484848"/>
<path d="M96.2468 32.8316V36.6113C96.2468 37.9948 96.1727 39.02 96.0368 39.6623C95.9009 40.3046 95.6045 40.9098 95.1475 41.478C94.6904 42.0462 94.0975 42.4538 93.3811 42.7256C92.6647 42.9973 91.8371 43.1209 90.9107 43.1209C89.8731 43.1209 88.9962 43.0097 88.2674 42.775C87.5386 42.5403 86.9828 42.2068 86.5875 41.7374C86.1922 41.2804 85.9082 40.7122 85.7352 40.0576C85.5623 39.4029 85.4758 38.4147 85.4758 37.1054V33.1528C85.4758 31.72 85.6241 30.5959 85.9452 29.793C86.2664 28.9902 86.8099 28.3355 87.6251 27.8538C88.4403 27.372 89.4655 27.125 90.7131 27.125C91.763 27.125 92.6771 27.2856 93.4305 27.5944C94.184 27.9032 94.7645 28.3231 95.1845 28.8172C95.6045 29.3113 95.8762 29.8424 96.0244 30.3736C96.1727 30.9047 96.2468 31.7199 96.2468 32.8193V32.8316ZM91.553 31.6705C91.553 30.88 91.5036 30.3859 91.4295 30.1759C91.343 29.966 91.1578 29.8671 90.886 29.8671C90.6143 29.8671 90.4166 29.966 90.3302 30.1759C90.2314 30.3859 90.1943 30.88 90.1943 31.6705V38.6371C90.1943 39.3658 90.2437 39.8352 90.3302 40.0576C90.429 40.2799 90.6019 40.3911 90.8737 40.3911C91.1454 40.3911 91.343 40.2922 91.4295 40.0823C91.516 39.8846 91.5654 39.4523 91.5654 38.7853V31.6705H91.553Z" fill="#484848"/>
<path d="M102.497 27.4091L102.312 29.4348C102.991 27.9773 103.979 27.2115 105.276 27.125V32.5599C104.412 32.5599 103.782 32.6711 103.374 32.9057C102.966 33.1404 102.719 33.4616 102.633 33.8816C102.546 34.3015 102.497 35.2526 102.497 36.7472V42.8491H97.7909V27.4091H102.497Z" fill="#484848"/>
<path d="M115.924 32.3502H111.761V31.5103C111.761 30.7939 111.724 30.3492 111.637 30.1516C111.551 29.9663 111.353 29.8675 111.032 29.8675C110.773 29.8675 110.575 29.954 110.439 30.1269C110.303 30.2998 110.242 30.5592 110.242 30.9174C110.242 31.3868 110.279 31.7326 110.341 31.955C110.402 32.1773 110.6 32.4244 110.933 32.6837C111.267 32.9431 111.934 33.3261 112.959 33.8325C114.318 34.4995 115.22 35.1294 115.64 35.7223C116.072 36.3152 116.282 37.1675 116.282 38.2916C116.282 39.5515 116.121 40.4902 115.788 41.1325C115.467 41.7748 114.911 42.2689 114.157 42.6148C113.391 42.9606 112.477 43.1335 111.39 43.1335C110.192 43.1335 109.179 42.9483 108.327 42.5777C107.475 42.2072 106.894 41.7007 106.573 41.0708C106.252 40.4408 106.091 39.4774 106.091 38.1804V37.4393H110.254V38.4151C110.254 39.2427 110.303 39.7862 110.415 40.0332C110.513 40.2802 110.723 40.4038 111.032 40.4038C111.366 40.4038 111.6 40.3173 111.736 40.1567C111.872 39.9961 111.934 39.6379 111.934 39.1068C111.934 38.3657 111.847 37.9087 111.675 37.7234C111.502 37.5381 110.588 36.9823 108.945 36.0682C107.561 35.29 106.721 34.586 106.425 33.956C106.116 33.3261 105.968 32.5726 105.968 31.7079C105.968 30.4727 106.128 29.571 106.462 28.9781C106.783 28.3976 107.339 27.9406 108.117 27.6194C108.895 27.2983 109.797 27.1377 110.835 27.1377C111.872 27.1377 112.724 27.2736 113.441 27.533C114.157 27.7924 114.713 28.1382 115.096 28.5582C115.479 28.9905 115.714 29.3858 115.8 29.744C115.887 30.1022 115.924 30.6827 115.924 31.4485V32.3379V32.3502Z" fill="#484848"/>
</g>
<defs>
<clipPath id="clip0_320_577">
<rect width="116.282" height="43.1332" fill="white"/>
</clipPath>
</defs>
</svg>
