<svg width="66" height="81" viewBox="0 0 66 81" fill="none" xmlns="http://www.w3.org/2000/svg">
    <g clip-path="url(#clip0_320_568)">
        <path
            d="M43.4607 53.2106C43.0395 53.7482 42.7886 54.1694 42.4481 54.492C40.7455 56.1408 38.1558 56.1677 36.3098 54.6623C35.2166 53.7751 34.5893 52.655 34.3743 51.2929C33.98 48.8107 34.3743 46.5526 36.4353 44.8679C37.3493 44.1242 38.4156 43.7657 39.6164 43.5955C40.7634 43.4342 41.8656 43.4342 42.9857 43.6492C43.38 43.7209 43.4517 43.5327 43.4517 43.2012C43.4607 41.6509 43.8998 40.2351 44.9303 39.0433C45.1543 38.7834 45.0378 38.658 44.8138 38.5146C43.1112 37.4303 41.552 36.122 39.6702 35.3424C38.4604 34.8406 37.2328 34.7241 36.0051 35.1901C34.6968 35.6919 34.0965 36.7762 34.0069 38.1203C33.9083 39.5362 34.3922 40.7459 35.6557 41.4807C36.9729 42.2513 38.7203 41.3731 39.0519 39.8408C39.1504 39.3928 39.1594 38.9358 39.1236 38.4788C39.0967 38.1472 39.2401 38.1024 39.5358 38.1651C40.8082 38.434 41.1308 39.1329 40.4319 40.253C39.9032 41.1133 39.0877 41.6151 38.111 41.8122C36.7668 42.0811 35.4316 42.0273 34.1413 41.5524C31.5157 40.5846 30.9601 37.7798 33.0301 35.889C34.5445 34.5091 36.3994 34.3926 38.2992 34.6076C40.1899 34.8227 41.8208 35.7098 43.3531 36.8031C43.9266 37.2153 44.5091 37.6095 45.0647 38.0486C45.3962 38.3085 45.6292 38.3533 46.0145 38.0934C47.2422 37.2601 48.6222 36.9464 50.1007 37.0988C50.6294 37.1525 51.1312 37.3049 51.5345 37.6723C52.2514 38.3175 52.2066 39.0523 51.427 39.6168C51.0237 39.9125 50.5667 40.029 50.0828 40.0738C49.0881 40.1724 48.1204 40.0738 47.1974 39.6975C46.7314 39.5003 46.5522 39.6795 46.4357 40.1186C46.1848 41.0954 46.1041 42.099 46.0952 43.1026C46.0862 46.9558 46.0683 50.809 46.0952 54.6533C46.0952 55.2806 45.916 55.5225 45.2887 55.4508C44.9034 55.406 44.5091 55.415 44.1327 55.4508C43.5682 55.5046 43.4159 55.2626 43.4517 54.7429C43.4875 54.2949 43.4517 53.8378 43.4517 53.1927L43.4607 53.2106ZM43.4607 48.058C43.4607 46.92 43.4607 45.7819 43.4607 44.6439C43.4607 44.3303 43.4517 44.0704 43.0485 43.9898C40.8082 43.5148 38.3888 44.2138 37.3851 46.5436C36.4801 48.6405 36.498 50.7911 37.2776 52.9328C37.4927 53.5152 37.8511 54.0171 38.3081 54.4472C39.3834 55.4508 40.9785 55.4867 42.0269 54.492C42.923 53.6497 43.4159 52.5833 43.4517 51.3377C43.4786 50.2445 43.4517 49.1513 43.4517 48.058H43.4607ZM49.124 39.8229C49.6796 39.8229 50.0649 39.8229 50.4144 39.6168C50.8266 39.3659 51.1402 39.0433 51.0864 38.5236C51.0416 38.0307 50.728 37.6902 50.28 37.502C49.2405 37.0629 47.4573 37.735 46.9554 38.7386C46.8121 39.0254 46.821 39.2584 47.1705 39.3659C47.8605 39.563 48.5415 39.8677 49.115 39.8139L49.124 39.8229Z"
            fill="#484848" />
        <path
            d="M20.4758 49.5902C20.4758 47.8787 20.4937 46.1761 20.4668 44.4645C20.4579 43.891 20.655 43.7297 21.2106 43.7387C23.1014 43.7656 23.0924 43.7477 23.1103 45.6474C23.1103 46.0596 22.8953 46.6958 23.2895 46.8481C23.7017 47.0005 23.8899 46.3553 24.1677 46.0596C25.3058 44.8319 26.5961 43.8731 28.2718 43.4968C30.2881 43.0487 32.376 44.0344 32.3222 46.6779C32.2595 49.5902 32.3043 52.5115 32.3222 55.4238C32.3222 56.9471 32.6179 58.3719 33.8097 59.4562C34.7865 60.3344 35.9514 60.5047 37.179 60.2985C39.0788 59.976 40.7096 59.053 42.2151 57.8791C42.4033 57.7357 42.6363 57.3952 42.8244 57.5565C43.1291 57.8253 43.1112 58.3003 43.2187 58.6945C43.3083 59.0082 43.0574 59.0799 42.8513 59.1695C39.948 60.4957 36.9192 60.8989 33.8007 60.191C31.1752 59.5906 29.6697 57.5834 29.6697 54.8951C29.6697 52.1351 29.6697 49.3841 29.6697 46.6241C29.6697 44.3212 28.4152 43.5774 26.399 44.6796C25.0907 45.3965 24.096 46.4449 23.3075 47.7084C23.1282 47.9952 23.1103 48.2998 23.1103 48.6314C23.1103 50.6566 23.0924 52.6907 23.1193 54.7159C23.1282 55.3252 22.9221 55.5403 22.3307 55.4776C21.9275 55.4417 21.5063 55.4417 21.1031 55.4776C20.6192 55.5224 20.4668 55.3342 20.4758 54.8592C20.4937 53.1029 20.4758 51.3465 20.4848 49.5992L20.4758 49.5902Z"
            fill="#484848" />
        <path
            d="M13.6386 55.7463C10.5561 55.7552 8.55776 55.1996 7.18674 53.3806C5.44831 51.0776 5.39454 48.4789 6.46986 45.9251C7.53621 43.3981 9.71373 42.4124 12.3393 42.3048C14.4899 42.2242 16.5151 42.6722 17.9668 44.3838C19.974 46.7495 20.1443 49.4736 18.9525 52.2067C17.8055 54.8322 15.4667 55.7015 13.6386 55.7373V55.7463ZM16.8915 49.1241C16.8915 48.918 16.9004 48.7119 16.8915 48.5148C16.8735 48.2907 16.8466 48.0667 16.8108 47.8337C16.6943 46.9645 16.6316 46.9197 15.9506 47.4484C14.6243 48.4789 12.7425 48.694 11.3715 47.4932C11.0489 47.2154 10.7084 47.2065 10.3768 47.4753C9.98255 47.7979 9.52554 48.004 9.02373 48.0846C8.73698 48.1294 8.58464 48.2459 8.57568 48.5596C8.51296 50.2442 8.7101 51.8931 9.54347 53.3806C10.2335 54.6261 11.246 55.4506 12.7694 55.4237C14.2659 55.3968 15.1889 54.5276 15.8789 53.3089C16.6226 52.0095 16.8735 50.5848 16.8915 49.1152V49.1241ZM13.5132 47.8785C14.4272 47.8965 15.6996 47.2961 16.2911 46.5971C16.4344 46.4179 16.4703 46.2745 16.3986 46.0415C16.1298 45.1544 15.7086 44.3479 15.0724 43.6848C13.6207 42.1704 11.4342 42.2959 10.117 43.9357C9.53451 44.6616 9.14918 45.477 8.92516 46.3731C8.82659 46.7853 8.48607 47.3498 8.80867 47.5828C9.20295 47.8696 9.6958 47.4305 10.0811 47.1617C10.6457 46.7584 11.1564 46.7674 11.6941 47.2154C12.2138 47.6545 12.8321 47.8785 13.5132 47.8875V47.8785Z"
            fill="#484848" />
        <path
            d="M50.1096 46.1311C49.796 45.701 49.7601 45.244 49.6257 44.8139C49.5361 44.5271 49.6885 44.3927 49.9394 44.3121C50.7996 44.0253 51.6599 43.7655 52.5739 43.631C53.3983 43.5056 54.2227 43.3443 55.065 43.3622C55.9522 43.3801 56.8214 43.5683 57.6458 43.864C58.9272 44.33 59.6441 45.3157 59.671 46.6688C59.7247 49.4288 59.6889 52.1798 59.7068 54.9398C59.7068 55.3251 59.5276 55.4685 59.1692 55.4685C58.6673 55.4685 58.1655 55.4505 57.6637 55.4685C57.1798 55.4954 57.0006 55.2892 57.0633 54.8233C57.0813 54.7157 57.0813 54.5903 57.0633 54.4828C57.0364 54.2856 57.1529 54.0258 56.9379 53.9182C56.7139 53.8017 56.5794 54.0526 56.4361 54.1691C55.0561 55.2803 53.5237 55.9434 51.7047 55.7104C50.2351 55.5222 49.0074 54.9218 48.4967 53.4343C47.968 51.8662 48.3622 50.4593 49.554 49.3123C50.6742 48.2459 52.0183 47.6007 53.5058 47.1527C54.5811 46.8301 55.6475 46.4269 56.7407 46.1491C57.0364 46.0684 57.0364 45.8534 57.0185 45.6114C56.9558 44.4734 56.2031 43.7117 55.0471 43.6579C53.4341 43.5773 52.1617 44.3569 50.9878 45.3336C50.6921 45.5756 50.4233 45.8444 50.1186 46.1132L50.1096 46.1311ZM57.0364 49.9754C57.0364 48.9718 57.0275 47.9681 57.0364 46.9735C57.0364 46.5254 56.8662 46.4089 56.454 46.5434C55.7192 46.7853 54.9754 46.9914 54.2496 47.2513C51.9018 48.1205 50.6473 50.1277 50.943 52.4845C51.1581 54.187 52.4484 55.1817 54.0972 54.9039C55.0382 54.7426 55.8446 54.2946 56.5974 53.7211C56.8931 53.4971 57.0275 53.2282 57.0275 52.8519C57.0096 51.893 57.0275 50.9432 57.0275 49.9844L57.0364 49.9754Z"
            fill="#484848" />
        <path
            d="M50.7997 20.2793C50.4054 19.876 50.2351 19.4011 50.3158 18.7111C50.3427 18.4961 50.3158 18.2451 50.2441 18.048C50.0021 17.4387 49.796 16.8024 49.4376 16.2558C49.1867 15.8705 49.0164 15.3149 48.425 15.2432C48.3444 14.5891 47.6006 13.8722 46.8927 13.7736H46.9196C46.8569 13.7199 46.812 13.6751 46.7493 13.6213C46.7493 13.4062 46.6328 13.2449 46.4536 13.1464C45.8532 12.8238 45.2528 12.4922 44.6435 12.2055C43.7474 11.8022 42.7617 11.6768 41.8208 11.4438C41.4624 11.3542 41.3638 11.2018 41.4803 10.8703C41.9821 9.50821 42 8.12823 41.7401 6.72136C41.5161 5.48475 41.1846 4.31086 40.4139 3.28035C39.9211 2.6262 39.2848 2.0975 38.783 1.44335C38.5411 1.12972 38.1378 0.959461 37.7077 0.941539C37.5464 0.439726 37.0625 0.0633654 36.5786 0.0633654C36.5069 0.0633654 36.4442 0.0633654 36.3725 0.0902482C35.7094 0.233624 35.6557 0.798164 35.6825 1.3179C35.7184 2.33945 35.8886 3.35204 36.0947 4.35566C36.1485 4.62449 36.1575 4.93813 35.799 5.00981C35.5212 5.05462 35.4764 4.80371 35.4496 4.59761C35.3958 4.16748 35.118 3.9793 34.7327 3.89866C34.6968 3.85385 34.661 3.80008 34.6251 3.75528C34.5983 3.11905 34.2936 2.69789 33.6574 2.52763C33.5946 2.39321 33.5498 2.22296 33.4513 2.11542C32.4297 0.968422 31.0408 0.475569 29.6339 0.0185606C29.5353 -0.00832229 29.4009 0.000638669 29.3023 0.0364825C28.8901 0.233624 28.451 0.233624 28.0299 0.179858C27.1069 0.0723263 26.2466 0.19778 25.3685 0.529335C24.7771 0.744398 24.5172 1.1566 24.4365 1.64945C24.338 2.20503 24.8487 2.40218 25.2789 2.57243C25.4312 2.6262 25.5746 2.67997 25.7269 2.72477C27.5549 3.26243 28.8722 4.47216 30.0192 5.91487C30.1536 6.08513 30.2701 6.25539 30.1805 6.47941C30.0909 6.70344 29.8848 6.74824 29.6697 6.74824C28.8543 6.73928 28.0299 6.81993 27.2144 6.68551C26.7216 6.5959 26.2108 6.5511 25.7269 6.70344C24.3648 7.13356 23.0028 7.55473 21.8199 8.40602C21.3181 8.76446 20.8611 9.14082 20.9955 9.83977C21.1299 10.5746 21.7841 10.6463 22.3217 10.6821C24.3469 10.8434 26.3183 11.2735 28.2629 11.8291C28.9529 12.0262 29.7504 12.1159 30.2612 12.8238C29.6787 13.012 29.141 13.0747 28.5944 13.1105C27.8775 13.1464 27.0979 13.1105 26.4617 13.2808C25.5746 13.5138 24.6606 13.7019 23.7824 13.9887C23.7197 14.0066 23.648 14.0335 23.5852 14.0514L27.7162 15.1984C12.0346 17.6179 0 31.2027 0 47.5385C0 65.5859 14.6781 80.2639 32.7254 80.2639C50.7728 80.2639 65.4508 65.5859 65.4508 47.5385C65.4508 36.176 59.6262 26.1487 50.7997 20.2793ZM32.7254 78.4717C15.6727 78.4717 1.79219 64.6002 1.79219 47.5385C1.79219 30.4769 15.5921 16.6859 32.582 16.6143C32.4835 18.4064 31.7666 19.9925 30.8167 21.5069C30.1447 22.5912 29.2934 23.55 28.3973 24.4641C28.1464 24.7239 27.8327 25.0107 28.012 25.405C28.2091 25.8261 28.6392 25.8709 29.0693 25.8172C31.0587 25.6021 32.7881 24.7866 34.3025 23.5052C34.7506 23.1199 35.1897 22.7256 35.6467 22.3403C35.7453 22.2597 35.8349 22.1163 35.9872 22.188C36.1306 22.2597 36.0947 22.4299 36.0858 22.5643C36.0499 23.6128 35.9155 24.6522 35.5033 25.629C35.109 26.552 34.6699 27.457 34.2488 28.3621C34.1144 28.6757 33.9531 28.9804 33.8366 29.303C33.5677 30.0915 33.8903 30.5037 34.7327 30.3962C36.041 30.226 37.1342 29.5628 38.1378 28.7653C39.6254 27.5914 40.5215 26.0412 40.9695 24.2131C41.0233 23.9891 41.077 23.7651 41.1308 23.55C41.1935 23.3439 41.1666 23.0213 41.4176 23.0124C41.6416 23.0034 41.7312 23.3081 41.8298 23.5052C42.4033 24.715 42.5646 25.9874 42.3764 27.3047C42.3316 27.6004 42.3136 27.8871 42.4122 28.1829C42.5198 28.5054 42.69 28.613 43.0216 28.4875C43.371 28.3531 43.6757 28.1918 43.8818 27.8603C45.7815 24.8315 45.898 21.7937 44.0073 18.747C55.4952 23.2633 63.6497 34.4645 63.6497 47.5385C63.6497 64.5912 49.7781 78.4717 32.7165 78.4717H32.7254Z"
            fill="#484848" />
    </g>
    <defs>
        <clipPath id="clip0_320_568">
            <rect width="65.4508" height="80.2633" fill="white" />
        </clipPath>
    </defs>
</svg>
