<svg width="100" height="58" viewBox="0 0 100 58" fill="none" xmlns="http://www.w3.org/2000/svg">
<g clip-path="url(#clip0_320_622)">
<path d="M42.8351 33.8357C42.8351 23.3125 42.8351 12.7892 42.8395 2.26594C42.8395 1.19223 42.6649 0.0617785 44.3802 0.000672953C46.161 -0.0647973 46.1435 1.10494 46.2352 2.27467C46.2745 2.77661 46.257 3.29165 46.2134 3.79795C45.9719 6.53024 47.0863 8.38232 49.5567 9.35419C52.6818 10.5807 54.7027 15.037 54.048 19.0394C53.5242 22.2518 51.9704 25.0583 50.6348 27.9347C49.0984 31.2474 48.6576 35.0316 47.0427 38.1262C44.3366 43.3114 46.0475 48.4356 45.8118 53.5772C45.7856 54.1577 45.8642 54.7425 45.79 55.3143C45.6416 56.4579 45.096 57.1344 43.7953 57.1257C42.3288 57.1169 42.4292 56.1349 42.4292 55.1877C42.4248 48.0733 42.4292 40.9589 42.4292 33.8401C42.5645 33.8401 42.6998 33.8401 42.8307 33.8401L42.8351 33.8357ZM45.5499 32.2164C46.532 28.3755 47.9854 24.7004 49.7313 21.1301C50.8312 18.8779 51.2066 16.4555 51.3026 13.9764C51.3637 12.4357 47.6799 9.70773 46.2221 10.2009C45.6023 10.4104 45.5587 10.9211 45.5587 11.4274C45.5499 18.3585 45.5543 25.2897 45.5543 32.2208L45.5499 32.2164Z" fill="#484848"/>
<path d="M56.3525 29.8198C56.4092 20.2175 56.0688 12.8149 56.7409 5.42554C56.8631 4.05503 57.0334 2.68888 57.2036 1.32273C57.3258 0.340679 57.9543 0.00896352 58.884 0.0307869C59.8922 0.056975 60.0624 0.67676 60.0057 1.49296C59.997 1.63699 60.0232 1.78539 59.997 1.92942C59.2899 5.83145 60.2021 8.71214 64.593 9.6069C65.5969 9.81205 66.2603 10.7592 66.7273 11.6801C68.7875 15.7437 68.9664 19.7548 66.7055 23.8882C64.2656 28.3489 62.7249 33.1849 61.2584 38.0516C60.5688 40.3343 59.0367 42.3289 59.6042 44.9739C60.2894 48.1864 59.8835 51.4817 59.9315 54.7421C59.9446 55.5889 60.0013 56.5491 58.7618 56.7324C57.2385 56.955 56.7497 56.309 56.7191 54.7989C56.5314 45.7378 56.108 36.6767 56.3525 29.8154V29.8198ZM59.6216 32.8008C59.7918 32.8619 59.9621 32.923 60.1323 32.9842C60.56 28.8901 62.0615 25.1801 63.9034 21.6011C64.8854 19.6937 65.2041 17.6292 65.5663 15.556C65.9504 13.3605 65.6274 11.8154 63.2749 10.7461C60.3767 9.42795 59.6784 9.57199 59.6434 12.7669C59.5692 19.4449 59.6216 26.1229 59.6216 32.8008Z" fill="#484848"/>
<path d="M8.15764 16.4289C7.05774 17.4022 6.15425 18.0307 5.46463 18.8426C3.68384 20.9464 4.63098 23.7834 7.30653 24.4119C8.65522 24.7305 10.0388 24.7305 11.3831 24.2941C15.1804 23.0589 16.0752 20.296 13.5786 17.184C12.2779 15.5647 10.7197 14.1724 9.55434 12.4134C7.24979 8.93911 7.81283 3.91536 12.3041 1.6108C15.3463 0.048245 18.4583 -0.4406 21.6882 0.969194C23.4733 1.74611 24.4205 3.13408 24.1935 5.09819C23.9578 7.13649 22.2468 8.69905 20.274 8.88237C19.7633 8.93038 19.2003 9.0264 18.9035 8.52883C18.6067 8.03562 19.1174 7.76937 19.4011 7.46821C19.9641 6.86588 20.2391 6.12825 20.4355 5.34697C20.9418 3.33049 19.9554 2.02981 17.8822 2.16512C15.3987 2.32661 13.7663 3.70149 12.8104 5.98422C11.7018 8.62485 13.2032 10.4798 14.792 12.1646C15.8831 13.3213 17.1052 14.3513 18.0087 15.6738C19.9772 18.5632 19.7764 22.0812 17.4981 24.7087C13.9889 28.7679 6.52525 29.7237 2.43118 26.6466C0.135351 24.9182 -0.632833 22.0855 0.558726 19.7199C2.02962 16.7999 4.81866 15.4381 8.15764 16.4333V16.4289Z" fill="#484848"/>
<path d="M97.3589 12.2959C94.3386 15.4603 93.0292 18.8953 92.1999 22.5485C91.9947 23.4564 91.6979 24.5301 92.6451 25.1499C93.6533 25.8046 94.4957 24.9666 95.1111 24.3337C96.1674 23.2513 97.0709 22.0161 97.9918 20.8114C98.3803 20.3051 98.8037 19.8119 99.3972 20.2702C100.03 20.7547 99.3187 21.1649 99.0699 21.5228C97.5641 23.6659 95.9491 25.7435 93.7581 27.2144C92.5141 28.048 91.1 28.7769 89.5069 27.904C87.9443 27.0485 88.0927 25.5471 88.0316 24.0936C87.94 21.8851 88.8958 20.0127 89.8648 18.1446C90.5282 16.8657 91.2571 15.6218 91.9729 14.3429C89.1271 13.7493 89.1053 13.9501 88.1407 16.4598C86.648 20.3531 84.6315 24.002 81.0568 26.4069C78.844 27.8953 76.2513 28.3012 73.65 27.8909C71.6029 27.5679 70.1233 25.2023 70.1015 22.7275C70.0622 17.6863 74.021 12.7498 78.9051 11.6587C80.4021 11.3226 81.6548 11.6194 82.6587 12.7105C83.6669 13.8104 83.4967 15.1286 82.9991 16.3943C81.7639 19.5718 79.1407 20.7154 76.0156 21.1257C75.3959 21.2086 74.3789 20.4971 74.2348 21.6494C74.0995 22.745 73.7329 23.9714 74.7761 24.9273C75.876 25.9355 77.1199 25.9661 78.4337 25.5122C84.0685 23.5524 87.7566 17.2542 86.7789 11.292C86.6873 10.7246 85.9802 10.0001 86.9754 9.64217C88.2542 9.18388 89.664 8.43315 90.9167 8.96128C91.6805 9.28427 90.9167 10.3536 90.4453 10.9385C89.5985 11.9904 90.0568 12.2915 91.1436 12.2915C93.0117 12.2959 94.8842 12.2915 97.3589 12.2915V12.2959ZM75.8149 19.5369C77.2246 19.6111 79.778 17.3327 80.2974 15.5694C80.4938 14.906 80.5986 14.2164 79.9919 13.7843C79.3372 13.3129 78.6344 13.4918 78.0016 13.9894C76.5219 15.1504 75.7232 16.7566 75.0554 18.4501C74.7586 19.1965 75.0205 19.55 75.8149 19.5369Z" fill="#484848"/>
<path d="M28.4359 25.6035C27.4102 26.5157 26.3539 27.3537 25.0402 27.8382C23.7046 28.3271 22.3821 28.3751 21.3869 27.3756C20.3874 26.3717 20.4529 25.0186 20.9417 23.7092C22.6308 19.1569 24.4073 14.6394 25.948 10.039C26.8209 7.42896 28.6497 5.08513 28.2962 2.09532C28.2438 1.65885 28.8025 1.61957 29.143 1.66321C30.4785 1.82907 31.6876 1.23984 33.2021 1.03906C32.4339 3.91975 31.1769 6.48619 30.1032 9.10937C28.2395 13.6661 26.1008 18.1137 24.691 22.8494C24.4684 23.6001 23.7482 24.5691 24.835 25.1845C25.8127 25.7388 26.7075 25.1714 27.3491 24.4556C30.1468 21.3392 32.1328 17.8213 32.2026 13.5046C32.2244 12.1821 33.1628 12.7364 33.7215 12.5924C34.6861 12.3436 35.9388 11.7631 36.6109 12.4527C37.4053 13.2689 36.2923 14.2902 36.0042 15.2112C35.1924 17.8038 33.4422 19.9862 32.7744 22.6617C32.5561 23.5259 32.1197 24.5385 32.7045 25.1103C33.512 25.9003 34.4635 25.023 35.2273 24.5909C36.7201 23.7485 37.5974 22.2863 38.5227 20.8984C38.8675 20.379 39.1686 19.8421 39.8626 20.3179C40.4824 20.7456 40.0023 21.2214 39.7884 21.6447C38.4354 24.3377 36.3491 26.3106 33.6473 27.5589C31.382 28.6064 29.9897 28.0346 28.4315 25.6122L28.4359 25.6035Z" fill="#484848"/>
<path d="M38.9768 7.23695C38.7542 8.44596 38.0951 9.30144 36.6984 9.22724C35.4239 9.16177 34.695 8.35867 34.73 7.12346C34.7692 5.76605 35.6815 4.98913 36.9909 5.04588C38.1868 5.09825 38.955 5.84461 38.9768 7.23258V7.23695Z" fill="#484848"/>
<path d="M65.1868 48.7146V43.5294C65.1868 43.0842 65.4356 42.8267 65.8589 42.8267C66.2823 42.8267 66.5311 43.0842 66.5311 43.5294V45.5197H69.4205V43.5294C69.4205 43.0842 69.6693 42.8267 70.0927 42.8267C70.516 42.8267 70.7648 43.0842 70.7648 43.5294V48.7146C70.7648 49.1555 70.516 49.413 70.0927 49.413C69.6693 49.413 69.4205 49.1555 69.4205 48.7146V46.6283H66.5311V48.7146C66.5311 49.1555 66.2823 49.413 65.8589 49.413C65.4356 49.413 65.1868 49.1555 65.1868 48.7146Z" fill="#484848"/>
<path d="M71.6901 47.6365V45.1487C71.6901 44.7035 71.9607 44.4678 72.3404 44.4678C72.7201 44.4678 72.9907 44.7035 72.9907 45.1487V47.3659C72.9907 48.0032 73.305 48.3393 73.8811 48.3393C74.4573 48.3393 74.8195 47.9246 74.8195 47.2961V45.1487C74.8195 44.7035 75.0902 44.4678 75.4699 44.4678C75.8496 44.4678 76.1202 44.7035 76.1202 45.1487V48.7626C76.1202 49.1947 75.8671 49.4217 75.4917 49.4217C75.1163 49.4217 74.8676 49.1947 74.8676 48.7626V48.4702H74.8414C74.6057 49.0682 74.1343 49.4173 73.4141 49.4173C72.384 49.4173 71.6988 48.7452 71.6988 47.6365H71.6901Z" fill="#484848"/>
<path d="M76.9845 48.7621V43.4983C76.9845 43.0531 77.2551 42.8174 77.6348 42.8174C78.0146 42.8174 78.2852 43.0531 78.2852 43.4983V45.3882H78.3114C78.5732 44.8251 79.1057 44.4847 79.7823 44.4847C80.9869 44.4847 81.7202 45.4056 81.7202 46.942C81.7202 48.4784 80.9913 49.3993 79.7866 49.3993C79.0883 49.3993 78.5601 49.0632 78.2939 48.5046H78.2677V48.7577C78.2677 49.1898 78.0015 49.4168 77.6217 49.4168C77.242 49.4168 76.9845 49.1942 76.9845 48.7577V48.7621ZM80.3889 46.9464C80.3889 46.0822 79.983 45.5279 79.3414 45.5279C78.6998 45.5279 78.2808 46.0909 78.2808 46.9464C78.2808 47.8019 78.7129 48.3605 79.3414 48.3605C79.9699 48.3605 80.3889 47.8193 80.3889 46.9464Z" fill="#484848"/>
<path d="M84.0946 46.1049C84.0946 44.0535 85.2687 42.8096 87.1499 42.8096C88.3807 42.8096 89.3453 43.3857 89.7032 44.1713C89.7774 44.3285 89.7992 44.4551 89.7992 44.586C89.7992 44.9264 89.5635 45.1621 89.2143 45.1621C88.9306 45.1621 88.7299 45.0443 88.564 44.7693C88.2498 44.1975 87.7827 43.9182 87.1499 43.9182C86.0936 43.9182 85.4564 44.7213 85.4564 46.0874C85.4564 47.4536 86.1329 48.3265 87.1979 48.3265C88.0708 48.3265 88.6819 47.7897 88.708 46.9953V46.8949H87.7784C87.4597 46.8949 87.2415 46.7116 87.2415 46.4061C87.2415 46.1005 87.4554 45.9172 87.7784 45.9172H89.3453C89.7687 45.9172 90.0175 46.1747 90.0175 46.6156V46.7116C90.0175 48.344 88.983 49.4395 87.176 49.4395C85.2599 49.4395 84.0902 48.1912 84.0902 46.1093L84.0946 46.1049Z" fill="#484848"/>
<path d="M90.8292 48.7446V43.4852C90.8292 43.0662 91.0693 42.8174 91.4708 42.8174C91.8724 42.8174 92.1081 43.0662 92.1081 43.4852V45.4144H92.1343C92.3874 44.8164 92.9068 44.476 93.6314 44.476C94.6876 44.476 95.2943 45.1612 95.2943 46.2611V48.7446C95.2943 49.1898 95.028 49.4212 94.644 49.4212C94.2599 49.4212 93.9936 49.1898 93.9936 48.7446V46.5361C93.9936 45.925 93.6925 45.5497 93.1032 45.5497C92.514 45.5497 92.1299 45.9818 92.1299 46.6059V48.7446C92.1299 49.1898 91.8636 49.4212 91.4796 49.4212C91.0955 49.4212 90.8292 49.1898 90.8292 48.7446Z" fill="#484848"/>
</g>
<defs>
<clipPath id="clip0_320_622">
<rect width="99.6589" height="57.1206" fill="white"/>
</clipPath>
</defs>
</svg>
