<svg width="85" height="45" viewBox="0 0 85 45" fill="none" xmlns="http://www.w3.org/2000/svg">
<path d="M46.9868 36.8996C45.5926 36.9849 45.5156 36.0376 45.9964 35.0476C46.9964 32.9824 48.0445 30.9427 49.0926 28.9031C50.3907 26.3599 51.66 23.8082 53.0831 21.3162C53.6696 20.2921 53.7081 19.2424 53.4869 18.1586C53.0542 16.0677 52.5831 13.9854 52.1311 11.8945C51.7273 10.017 51.333 8.13097 50.9292 6.24492C50.6023 4.68318 50.3138 3.11289 50.9292 1.56821C51.4484 0.262492 53.3138 -0.437308 54.6023 0.399038C55.1216 0.740403 55.3331 1.24392 55.4773 1.75597C55.9966 3.66761 56.4774 5.59633 56.8908 7.53358C57.2177 9.06119 57.6312 10.5803 57.9966 12.0993C58.0639 12.3639 58.0831 12.6455 58.1601 12.9101C58.2466 13.1746 58.4101 13.1917 58.5928 12.9613C59.5062 11.8263 60.4101 10.6741 61.3428 9.54764C62.0736 8.66862 62.8236 7.79814 63.5832 6.93619C64.8621 5.50245 66.0929 4.02605 67.4391 2.63498C68.5833 1.45727 69.9968 0.67213 71.6603 0.211287C72.4199 0.00646735 73.1795 -0.0703399 73.9103 0.262492C74.5738 0.561186 74.7661 0.987893 74.5353 1.62795C74.1988 2.53257 73.6411 3.34332 73.093 4.14552C71.3622 6.65456 69.5064 9.09533 67.6987 11.5617C65.6794 14.3353 63.6025 17.0662 61.7082 19.9166C60.362 21.9307 58.9101 23.8935 57.5447 25.899C56.41 27.5632 55.3235 29.253 54.2273 30.9427C53.6792 31.7961 53.3427 32.7349 52.9485 33.648C52.4869 34.7063 51.7273 35.4146 50.5157 35.8242C49.3522 36.2168 48.2272 36.7203 46.9772 36.8996H46.9868Z" fill="#484848"/>
<path d="M27.7462 0.194216C27.0635 -0.0788766 26.3519 -0.0276717 25.65 0.125943C24.4769 0.381967 23.4096 0.84281 22.4769 1.51701C21.8711 1.95225 21.2461 2.39602 20.8903 3.04462C19.823 4.38448 18.7845 5.74141 17.6787 7.05566C16.0633 8.97585 14.4575 10.9131 12.8902 12.8674C12.794 12.9869 12.7556 13.1917 12.5344 13.1576C12.2652 13.1234 12.3229 12.893 12.294 12.7394C11.9286 11.2118 11.5825 9.68418 11.2171 8.1651C10.6978 6.02303 10.2267 3.8639 9.63052 1.7389C9.38052 0.842811 8.71704 0.168613 7.85164 0.0662038C6.55355 -0.0788766 5.45738 0.69773 5.16891 1.4146C4.74583 2.45576 4.64967 3.57374 4.8516 4.67464C5.18814 6.51801 5.57276 8.35285 5.95739 10.1962C6.30354 11.8518 6.65932 13.4989 7.01509 15.146C7.2651 16.3067 7.55356 17.4673 7.77472 18.628C8.02472 19.9337 7.40933 21.0687 6.79394 22.2123C5.60161 24.4226 4.44775 26.65 3.3035 28.8775C2.28425 30.8744 1.30347 32.8885 0.284222 34.877C0.063065 35.3037 -0.0234748 35.7218 0.00537175 36.1741C0.0342183 36.5496 0.236144 36.7971 0.668843 36.8313C0.97654 36.8569 1.30347 36.8995 1.59193 36.8313C2.91888 36.5155 4.19774 36.0632 5.41892 35.5256C6.7074 34.9623 7.10163 33.8017 7.49587 32.6837C7.43818 32.5471 7.45741 32.4533 7.6401 32.4191C7.71703 32.2399 7.80357 32.0607 7.88049 31.8815C7.88049 31.3438 8.14973 30.9171 8.58243 30.5587C8.64012 30.4648 8.69781 30.3795 8.76512 30.2856C8.73627 30.1576 8.76512 30.0552 8.9382 30.0381C9.02474 29.9186 9.11128 29.8077 9.19782 29.6882C9.22667 29.6882 9.28436 29.6882 9.29397 29.6626C10.4767 27.9046 11.6498 26.138 12.8421 24.38C13.6883 23.134 14.5921 21.9221 15.4095 20.6676C15.9287 19.8654 16.621 19.1571 16.9864 18.2781C17.2652 17.9282 17.5633 17.5953 17.823 17.2369C18.8518 15.7946 19.8518 14.3438 20.8903 12.9101C21.7557 11.7068 22.6596 10.5205 23.525 9.31721C24.8423 7.4909 26.1885 5.67313 27.275 3.72735C27.6596 3.04462 28.1212 2.38749 28.4 1.66209C28.6404 1.02203 28.4193 0.45024 27.7366 0.177148L27.7462 0.194216Z" fill="#484848"/>
<path d="M84.4778 37.2754C84.2374 36.806 84.0355 36.3281 83.8143 35.8501C82.9393 33.9812 82.2854 32.0439 81.7181 30.0896C81.622 29.7653 81.747 29.5605 82.1124 29.4581C82.2566 29.4154 82.3912 29.3471 82.5258 29.2789C82.6893 29.1935 82.9778 29.1679 82.9585 28.9802C82.9393 28.7583 82.6605 28.7156 82.4297 28.6729C82.372 28.6473 82.3047 28.6303 82.247 28.6047C82.0547 28.3742 82.0739 28.178 82.3143 27.9646C82.5643 27.7513 82.5066 27.5891 82.1797 27.4696C81.7662 27.3245 81.372 27.1368 80.92 27.0856C80.545 27.0429 80.4008 26.8466 80.3527 26.5394C79.9585 23.8597 79.4777 21.1885 79.2854 18.4746C79.1027 15.7693 79.2469 13.0981 79.6796 10.4184C79.8143 9.57354 80.0643 8.74573 80.0162 7.88378V7.73016C79.9104 7.12424 79.9296 6.62072 80.7181 6.3135C81.3143 6.08307 81.247 5.15285 80.6797 4.74321C80.4008 4.54693 80.1796 4.33358 80.2854 3.98368V3.43749C80.1989 2.90837 80.0835 2.37926 80.4873 1.89281C80.545 1.75627 80.5643 1.61972 80.5162 1.47464C80.4393 1.39783 80.3623 1.32956 80.2854 1.26129C79.747 0.791908 79.42 0.868715 79.0739 1.58558C78.8142 2.1147 78.6508 2.66942 78.4488 3.2156C78.2565 3.72765 77.8719 4.05195 77.2758 4.16289C76.3334 4.34211 76.1123 4.89683 76.6604 5.60516C76.8815 5.88679 77.295 6.20255 76.7373 6.55245C76.7181 6.65486 76.6988 6.75727 76.6796 6.85968C76.3334 7.31199 76.3238 7.86671 76.17 8.37022C75.1603 11.69 73.7661 14.8732 71.9199 17.8943C70.5641 20.1217 69.1795 22.3321 67.8045 24.551C67.6602 24.7814 67.4679 24.8582 67.1891 24.8155C66.5833 24.7216 65.9679 24.6363 65.3525 24.568C65.2083 24.551 65.0448 24.4059 64.9198 24.5424C64.766 24.7131 64.9871 24.8155 65.0544 24.9435C65.141 25.1227 65.1602 25.302 65.1313 25.4982C65.0544 25.9762 65.141 26.437 65.4967 26.8125C65.7275 27.06 65.6506 27.2307 65.4583 27.444C63.9775 29.0655 62.2563 30.4907 60.6505 32.0098C58.8236 33.7508 56.9581 35.4576 55.2754 37.3095C55.1889 37.4034 55.0735 37.4802 55.1697 37.6167C55.2466 37.7277 55.3716 37.7447 55.5254 37.7447C57.112 37.7362 58.6986 37.7277 60.2851 37.7362C60.612 37.7362 60.9486 37.7106 61.1121 37.4546C61.3236 37.1388 61.6313 36.9084 61.8717 36.6182C62.7755 35.5429 63.8236 34.5871 64.9102 33.6569C65.6121 33.0509 66.3621 32.4962 67.0929 31.9159C67.4391 31.8732 67.6602 31.6343 67.9295 31.4892C69.3141 30.7297 70.8237 30.4139 72.4391 30.4822C72.5353 30.4822 72.6315 30.4992 72.7276 30.5078C73.1411 30.7979 73.6699 30.7979 74.1411 30.9003C76.3623 31.3868 77.9296 32.556 78.9585 34.3567C79.4873 35.2869 79.8239 36.2598 79.9873 37.2839C80.0354 37.574 80.1508 37.7277 80.497 37.7277C81.7181 37.7277 82.9393 37.7191 84.1605 37.7277C84.5643 37.7277 84.6316 37.5911 84.4778 37.2839V37.2754ZM71.9488 25.6092C71.5545 25.5409 71.4968 25.3958 71.6795 25.0715C72.6603 23.305 73.6315 21.5384 74.5834 19.7548C74.9873 19.0038 75.4007 18.2528 75.6988 17.4591C75.7469 17.3225 75.7661 17.0921 75.9873 17.1348C76.2084 17.1775 76.0738 17.3993 76.0738 17.3908C75.968 20.2753 76.045 23.0148 76.3334 25.7543C76.3815 26.2322 76.1796 26.3346 75.7084 26.2492C74.4584 26.0274 73.2084 25.8225 71.9584 25.6092H71.9488Z" fill="#484848"/>
<path d="M46.3426 23.7745C45.7561 23.16 44.9483 23.0576 44.1599 22.9979C43.5541 22.9467 43.3906 22.7419 43.381 22.2298C43.3041 19.1234 43.2175 16.017 43.0733 12.9105C42.9099 9.18965 42.6887 5.46876 42.2848 1.75641C42.1887 0.877396 41.5444 0.228802 40.5444 0.10079C39.179 -0.0784274 37.9771 0.280006 36.9771 1.10782C35.5059 2.31113 34.3232 3.7278 33.2078 5.19567C32.4578 6.16856 31.727 7.15852 30.9866 8.13142C29.5539 10.0004 28.1019 11.8523 26.6981 13.7298C25.323 15.5647 24.0057 17.4336 22.6211 19.2685C21.1788 21.1887 19.7172 23.1003 18.1787 24.9693C16.4191 27.1199 14.6017 29.2278 12.6594 31.2504C11.9478 31.9929 11.2363 32.7439 10.919 33.7082C10.9671 34.0667 10.8709 34.4251 10.8132 34.775C10.7459 34.9542 10.7747 35.1334 10.8421 35.3127C10.8613 36.1661 11.3613 36.6013 12.4094 36.6525C14.4383 36.7635 16.1018 35.9698 17.6595 34.9457C18.7268 34.2459 19.7941 33.5632 21.0441 33.1194C24.2557 31.9843 27.6596 31.643 31.0251 31.1053C32.2655 30.909 33.5059 30.7384 34.7078 30.4226C36.0444 30.0727 36.2078 30.141 36.1886 31.3869C36.1886 31.4382 36.1886 31.4894 36.1886 31.5406C36.0251 32.7865 36.1694 34.0069 36.679 35.1761C37.0925 36.1234 37.7752 36.8488 38.9771 37.0621C39.1117 37.1219 39.2463 37.1219 39.3906 37.0963C39.4771 37.1646 39.5636 37.1987 39.6598 37.0963C39.8713 37.1475 40.0637 37.1219 40.2656 37.0621C41.0156 37.0536 41.6406 36.8403 42.0156 36.2258L42.5925 35.3297C42.8137 35.27 42.8041 35.142 42.7272 34.9884C42.8906 34.775 43.0349 34.5446 43.0445 34.28C43.1695 34.2373 43.1887 34.1605 43.1118 34.0667C43.131 33.9984 43.1406 33.9301 43.1599 33.8704C43.2849 33.8277 43.2945 33.7509 43.2464 33.657C43.3137 33.5632 43.3233 33.4607 43.2945 33.3583C43.4099 33.2645 43.4195 33.1535 43.3329 33.034C43.4099 32.9402 43.4195 32.8377 43.4002 32.7353C43.5349 32.6415 43.5349 32.5391 43.4483 32.4196C43.5156 31.6686 43.6599 30.909 43.3233 30.1666C43.256 29.6801 43.6214 29.407 43.9772 29.1254C44.4003 28.9291 44.7656 28.6731 45.0445 28.3232C45.0157 28.1525 45.0926 28.0842 45.2849 28.1098C45.256 27.9648 45.3041 27.8879 45.4868 27.8879L45.5253 27.8709V27.8282C45.4676 27.5978 45.6118 27.5637 45.8137 27.5722C46.1984 27.1028 46.5445 26.6078 46.7464 26.0446C47.0445 25.2338 47.0253 24.4743 46.3618 23.766L46.3426 23.7745ZM25.0538 25.0205C25.9192 23.911 26.7846 22.8016 27.65 21.6922C29.2943 19.5842 30.9385 17.4678 32.5828 15.3598C33.6789 13.9517 34.7655 12.5436 35.8617 11.1354C35.929 11.0416 35.9867 10.8879 36.1501 10.9221C36.304 10.9562 36.304 11.1098 36.3328 11.2208C36.6213 12.3558 36.7463 13.5165 36.7367 14.6856C36.7367 15.0611 36.7367 15.4452 36.7367 15.8207C36.7751 18.5345 36.3809 21.2313 36.4482 23.9452C36.4482 24.2865 36.2655 24.406 35.8905 24.4572C34.0732 24.6876 32.2847 25.0375 30.477 25.3277C28.8039 25.5923 27.1115 25.7886 25.4096 25.6776C25.198 25.6605 24.9096 25.7373 24.775 25.524C24.6115 25.268 24.9288 25.1912 25.0538 25.029V25.0205Z" fill="#484848"/>
<path d="M0.755371 43.6848V41.2952C0.755371 41.0904 0.889988 40.9624 1.11115 40.9624C1.3323 40.9624 1.46692 41.0819 1.46692 41.2952V43.497H2.66886C2.86117 43.497 2.98617 43.5909 2.98617 43.7616C2.98617 43.9323 2.86117 44.0176 2.66886 44.0176H1.11115C0.889988 44.0176 0.755371 43.8981 0.755371 43.6848Z" fill="#484848"/>
<path d="M7.37097 43.7614C7.37097 43.7102 7.3902 43.6419 7.41905 43.5651L8.34214 41.3291C8.4383 41.0816 8.61137 40.9707 8.87099 40.9707C9.13061 40.9707 9.31331 41.0816 9.40946 41.3291L10.3422 43.5651C10.3806 43.6504 10.3902 43.7016 10.3902 43.7614C10.3902 43.932 10.246 44.0601 10.0345 44.0601C9.82293 44.0601 9.72678 43.9747 9.66908 43.7784L9.48639 43.3005H8.26522L8.08252 43.7699C8.01521 43.9662 7.90944 44.0515 7.72675 44.0515C7.50559 44.0515 7.37097 43.9406 7.37097 43.7528V43.7614ZM9.32292 42.8141L8.87099 41.5852H8.85176L8.40945 42.8141H9.31331H9.32292Z" fill="#484848"/>
<path d="M20.0442 43.7275V41.338C20.0442 41.1331 20.1788 41.0137 20.3999 41.0137H21.4192C22.1115 41.0137 22.5923 41.4233 22.5923 42.0463C22.5923 42.6693 22.1019 43.0789 21.3807 43.0789H20.7461V43.7361C20.7461 43.9409 20.6115 44.0604 20.3903 44.0604C20.1692 44.0604 20.0345 43.9409 20.0345 43.7361L20.0442 43.7275ZM21.2365 42.5754C21.6403 42.5754 21.8807 42.3877 21.8807 42.0378C21.8807 41.6879 21.65 41.5087 21.2365 41.5087H20.7557V42.5754H21.2365Z" fill="#484848"/>
<path d="M26.6981 43.7614C26.6981 43.7102 26.7174 43.6419 26.7462 43.5651L27.6693 41.3291C27.7654 41.0816 27.9385 40.9707 28.1981 40.9707C28.4578 40.9707 28.6405 41.0816 28.7366 41.3291L29.6693 43.5651C29.7078 43.6504 29.7174 43.7016 29.7174 43.7614C29.7174 43.932 29.5732 44.0601 29.3616 44.0601C29.1501 44.0601 29.0539 43.9747 28.9962 43.7784L28.8135 43.3005H27.5924L27.4097 43.7699C27.3424 43.9662 27.2366 44.0515 27.0539 44.0515C26.8327 44.0515 26.6981 43.9406 26.6981 43.7528V43.7614ZM28.6501 42.8141L28.1981 41.5852H28.1789L27.7366 42.8141H28.6405H28.6501Z" fill="#484848"/>
<path d="M34.2751 43.7361V41.338C34.2751 41.1331 34.4097 41.0137 34.6309 41.0137H35.6597C36.4386 41.0137 36.8809 41.3806 36.8809 41.9695C36.8809 42.345 36.6694 42.6693 36.2944 42.8058L36.7847 43.5568C36.8424 43.6422 36.8617 43.7019 36.8617 43.7702C36.8617 43.9409 36.7078 44.0604 36.5059 44.0604C36.3328 44.0604 36.2559 44.0092 36.1405 43.8214L35.5732 42.9168H34.9674V43.7361C34.9674 43.9409 34.8328 44.0604 34.6116 44.0604C34.3905 44.0604 34.2559 43.9409 34.2559 43.7361H34.2751ZM35.5924 42.4645C35.9482 42.4645 36.1597 42.2853 36.1597 41.9866C36.1597 41.6879 35.9386 41.5087 35.5828 41.5087H34.977V42.4645H35.5828H35.5924Z" fill="#484848"/>
<path d="M41.4963 43.7275V41.2952C41.4963 41.0904 41.631 40.9624 41.8521 40.9624C42.0733 40.9624 42.2079 41.0819 42.2079 41.2952V43.7275C42.2079 43.9323 42.0733 44.0518 41.8521 44.0518C41.631 44.0518 41.4963 43.9323 41.4963 43.7275Z" fill="#484848"/>
<path d="M46.8523 43.4883C46.8235 43.437 46.8138 43.3773 46.8138 43.3176C46.8138 43.1469 46.9388 43.0359 47.1215 43.0359C47.2658 43.0359 47.3619 43.0871 47.4485 43.2152C47.5542 43.4456 47.8235 43.548 48.1504 43.548C48.535 43.548 48.785 43.3858 48.785 43.164C48.785 42.9677 48.6216 42.8567 48.1985 42.7799L47.8427 42.7202C47.1696 42.6007 46.8331 42.3105 46.8331 41.8668C46.8331 41.3206 47.3715 40.9536 48.1216 40.9536C48.7369 40.9536 49.2081 41.184 49.362 41.5766C49.3812 41.6193 49.3908 41.6619 49.3908 41.7132C49.3908 41.8668 49.2658 41.9692 49.0831 41.9692C48.9196 41.9692 48.8235 41.9094 48.7466 41.7814C48.6312 41.551 48.4196 41.4571 48.1216 41.4571C47.7754 41.4571 47.535 41.6022 47.535 41.8241C47.535 42.0118 47.6985 42.1228 48.1023 42.1911L48.4581 42.2593C49.1793 42.3873 49.487 42.6434 49.487 43.0957C49.487 43.6845 48.9677 44.0515 48.1216 44.0515C47.4196 44.0515 46.9773 43.804 46.8427 43.4712L46.8523 43.4883Z" fill="#484848"/>
<path d="M54.0735 43.7275V41.2952C54.0735 41.0904 54.2081 40.9624 54.4293 40.9624C54.6504 40.9624 54.785 41.0819 54.785 41.2952V43.7275C54.785 43.9323 54.6504 44.0518 54.4293 44.0518C54.2081 44.0518 54.0735 43.9323 54.0735 43.7275Z" fill="#484848"/>
<path d="M59.4774 43.6849V41.338C59.4774 41.1331 59.612 41.0137 59.8332 41.0137H61.4486C61.6409 41.0137 61.7659 41.1161 61.7659 41.2782C61.7659 41.4404 61.6409 41.5428 61.4486 41.5428H60.189V42.2682H61.3813C61.5544 42.2682 61.6794 42.3621 61.6794 42.5071C61.6794 42.6522 61.564 42.7461 61.3813 42.7461H60.189V43.5056H61.4486C61.6409 43.5056 61.7659 43.5995 61.7659 43.7702C61.7659 43.9409 61.6409 44.0262 61.4486 44.0262H59.8332C59.612 44.0262 59.4774 43.9067 59.4774 43.6934V43.6849Z" fill="#484848"/>
<path d="M66.3718 43.7443V41.2865C66.3718 41.0902 66.5064 40.9707 66.7276 40.9707C66.8718 40.9707 66.968 41.0219 67.0834 41.1499L68.5449 42.9677H68.5642V41.2865C68.5642 41.0816 68.6892 40.9707 68.9007 40.9707C69.1123 40.9707 69.2373 41.0816 69.2373 41.2865V43.7528C69.2373 43.9491 69.1123 44.0601 68.8911 44.0601C68.7372 44.0601 68.6411 44.0089 68.5353 43.8808L67.0641 42.0545H67.0449V43.7443C67.0449 43.9406 66.9199 44.0601 66.7084 44.0601C66.4968 44.0601 66.3718 43.9491 66.3718 43.7443Z" fill="#484848"/>
<path d="M73.9392 43.7443V41.2865C73.9392 41.0902 74.0738 40.9707 74.295 40.9707C74.4392 40.9707 74.5354 41.0219 74.6508 41.1499L76.1123 42.9677H76.1315V41.2865C76.1315 41.0816 76.2565 40.9707 76.4681 40.9707C76.6796 40.9707 76.8046 41.0816 76.8046 41.2865V43.7528C76.8046 43.9491 76.6796 44.0601 76.4585 44.0601C76.3046 44.0601 76.2085 44.0089 76.1027 43.8808L74.6315 42.0545H74.6123V43.7443C74.6123 43.9406 74.4873 44.0601 74.2758 44.0601C74.0642 44.0601 73.9392 43.9491 73.9392 43.7443Z" fill="#484848"/>
<path d="M81.5066 43.6849V41.338C81.5066 41.1331 81.6412 41.0137 81.8624 41.0137H83.4778C83.6701 41.0137 83.7951 41.1161 83.7951 41.2782C83.7951 41.4404 83.6701 41.5428 83.4778 41.5428H82.2181V42.2682H83.4105C83.5835 42.2682 83.7085 42.3621 83.7085 42.5071C83.7085 42.6522 83.5932 42.7461 83.4105 42.7461H82.2181V43.5056H83.4778C83.6701 43.5056 83.7951 43.5995 83.7951 43.7702C83.7951 43.9409 83.6701 44.0262 83.4778 44.0262H81.8624C81.6412 44.0262 81.5066 43.9067 81.5066 43.6934V43.6849Z" fill="#484848"/>
</svg>
