<svg xmlns="http://www.w3.org/2000/svg" version="1.1" xmlns:xlink="http://www.w3.org/1999/xlink" width="1000" height="1000"><g clip-path="url(#SvgjsClipPath1034)"><rect width="1000" height="1000" fill="#014b3c"></rect><g transform="matrix(3.1963470319634704,0,0,3.1963470319634704,150,402.51141552511416)"><svg xmlns="http://www.w3.org/2000/svg" version="1.1" xmlns:xlink="http://www.w3.org/1999/xlink" width="219" height="61"><svg width="219" height="61" viewBox="0 0 219 61" fill="none" xmlns="http://www.w3.org/2000/svg">
<g clip-path="url(#clip0_184_3033)">
<path d="M38.3833 5.1625C38.5422 6.4607 38.5853 37.7136 38.433 39.8166C38.0985 40.0914 37.7077 40.4425 37.2838 40.7505C34.0019 43.1515 30.3159 44.4629 26.2855 44.92C22.881 45.3074 19.5262 45.0955 16.2046 44.2775C9.14723 42.5355 1.69582 36.5942 0.328067 26.7782C-0.181941 23.1188 -0.158759 19.4758 0.838075 15.9091C2.94765 8.37157 7.93182 3.56955 15.2872 1.15529C17.8737 0.307484 20.5595 0.0756619 23.2784 0.0889088C26.1596 0.102156 28.9746 0.473071 31.7035 1.41692C34.1741 2.27135 36.4426 3.48344 38.3866 5.16581L38.3833 5.1625ZM35.4822 22.5856C35.3199 21.3834 35.2769 20.1514 34.9788 18.9824C33.77 14.2665 30.8358 11.2097 26.0504 10.0804C24.6064 9.73932 23.1195 9.74595 21.6292 9.85855C15.9893 10.2891 12.4325 14.3956 11.3628 18.2604C10.5216 21.3006 10.4852 24.3507 11.5052 27.328C12.8464 31.2491 15.5356 33.8488 19.5693 34.9582C21.0066 35.3523 22.4836 35.4715 23.9739 35.3821C29.2727 35.0708 33.4587 31.7293 34.8629 26.6789C35.2338 25.3442 35.4127 23.9831 35.4789 22.5823L35.4822 22.5856Z" fill="white"></path>
<path d="M79.681 3.15973C79.0716 3.76909 78.5219 4.33871 77.9522 4.88515C74.8259 7.88559 72.9184 11.5583 72.2163 15.7973C71.4645 20.3179 71.4778 24.8649 72.4117 29.3722C73.2496 33.4158 75.124 36.9163 78.0748 39.824C78.1874 39.9366 78.2834 40.0691 78.4126 40.1585C80.0386 41.2646 79.7339 42.8377 79.5352 44.4108C79.3067 44.4704 79.1577 44.5399 79.012 44.5399C76.3659 44.5466 73.7198 44.5433 71.0936 44.5433C70.4975 44.1856 70.2127 43.5994 69.8451 43.0927C63.8608 34.8134 57.8864 26.5274 51.9087 18.2447C51.5709 17.7744 51.2232 17.3108 50.9086 16.8836C50.4416 16.9333 50.4747 17.228 50.4681 17.4764C50.4548 17.9533 50.4582 18.4302 50.4582 18.9071C50.4582 26.7956 50.4582 34.6842 50.4582 42.5695C50.4582 43.1424 50.4283 43.712 50.4118 44.3512C48.746 44.6625 47.1663 44.477 45.5998 44.5002C44.0268 44.5234 42.4504 44.5697 40.8508 44.4472C40.7879 44.1359 40.7117 43.9372 40.7117 43.7385C40.7051 29.5013 40.7051 15.2608 40.7051 0.98723C40.9402 0.891189 41.1257 0.748785 41.3111 0.748785C44.3778 0.735538 47.4445 0.738849 50.5708 0.738849C50.9615 1.24886 51.3556 1.73568 51.7266 2.24569C57.3168 9.96205 62.9004 17.6784 68.4972 25.3881C68.8218 25.8385 69.0436 26.4082 69.7259 26.7062C69.7921 26.4578 69.8782 26.2757 69.8848 26.0902C69.908 25.6133 69.9014 25.1364 69.9014 24.6629C69.9014 17.4102 69.9014 10.1574 69.9014 2.90473C69.9014 2.2755 69.9014 1.64295 69.9014 0.960736C70.2259 0.868007 70.4677 0.742161 70.7061 0.738849C73.4582 0.725602 76.2103 0.732226 78.9623 0.738849C79.1146 0.738849 79.267 0.808396 79.4524 0.851448C79.8664 1.5999 79.5419 2.39803 79.681 3.16304V3.15973Z" fill="white"></path>
<path d="M107.128 0.791509C107.794 0.758392 108.261 0.715339 108.731 0.715339C113.811 0.712027 118.888 0.715339 123.968 0.715339C125.936 0.715339 127.88 0.877614 129.764 1.47373C131.387 1.98705 132.927 2.67258 134.192 3.80851C134.374 5.03385 134.434 21.4435 134.265 23.8445C133.467 24.8414 132.238 25.3017 131.162 26.0998C131.314 26.3979 131.423 26.6893 131.595 26.9344C132.334 27.9677 133.086 28.991 133.851 30.0044C134.182 30.4448 134.347 30.9052 134.344 31.4649C134.328 35.1674 134.338 38.8732 134.331 42.5757C134.331 42.7711 134.271 42.9665 134.222 43.2812C133.904 43.1884 133.655 43.1421 133.433 43.046C132.109 42.4631 130.969 41.612 129.93 40.6185C128.466 39.221 127.264 37.6114 126.191 35.9059C124.839 33.7566 123.495 31.6039 122.144 29.4546C121.862 29.0075 121.571 28.5704 121.276 28.1167C119.988 28.0306 118.739 27.9478 117.481 28.163C117.206 28.7823 117.302 29.3718 117.299 29.9415C117.289 34.1739 117.299 38.4063 117.289 42.642C117.289 43.2116 117.368 43.7978 117.16 44.2979C116.997 44.3806 116.905 44.4668 116.812 44.4668C113.904 44.4866 110.993 44.4999 108.085 44.5098C107.83 44.5098 107.575 44.4668 107.224 44.4369C107.175 44.0892 107.112 43.7912 107.092 43.4931C107.069 43.1255 107.082 42.7513 107.082 42.3837C107.082 29.2096 107.082 16.0321 107.082 2.85804C107.082 2.23212 107.108 1.60289 107.125 0.804756L107.128 0.791509ZM117.468 19.9367C117.805 19.9897 118.06 20.0592 118.315 20.0625C119.584 20.0758 120.852 20.0923 122.117 20.0625C122.746 20.046 123.389 19.9797 124.002 19.834C125.757 19.4167 127.065 18.4232 127.681 16.6812C127.982 15.8301 128.108 14.936 128.035 14.0285C127.767 10.7267 125.816 9.40535 123.247 9.02781C123.038 8.998 122.826 8.99469 122.614 8.99469C121.134 8.99138 119.657 8.98476 118.176 8.99469C117.931 8.99469 117.686 9.0808 117.477 9.12054C117.239 10.5148 117.226 18.41 117.468 19.94V19.9367Z" fill="white"></path>
<path d="M136.531 44.3678C136.487 43.977 136.434 43.6723 136.428 43.3643C136.246 36.4693 136.352 2.55707 136.57 0.881327C136.829 0.831651 137.123 0.768728 137.418 0.719052C137.521 0.702493 137.63 0.712429 137.736 0.712429C146.522 0.712429 155.308 0.712429 164.094 0.71574C164.405 0.71574 164.72 0.768728 165.154 0.808469C165.061 1.09659 165.048 1.37147 164.906 1.53374C164.525 1.97089 164.094 2.3683 163.67 2.76571C161.925 4.40171 160.769 6.38544 160.183 8.70366C160.12 8.95535 160.051 9.20704 159.958 9.55147C159.484 9.58127 159.021 9.63426 158.557 9.63426C155.222 9.64088 151.887 9.63426 148.555 9.64088C148.036 9.64088 147.516 9.67731 146.923 9.69718C146.562 11.1543 146.76 12.5784 146.744 13.9793C146.727 15.3404 146.645 16.7081 146.81 18.0428C147.403 18.3607 147.943 18.258 148.456 18.258C151.844 18.268 155.232 18.258 158.617 18.2647C159.14 18.2647 159.663 18.2978 160.206 18.3176C160.319 18.5495 160.425 18.7283 160.498 18.9171C161.061 20.3742 161.869 21.6791 163.064 22.6858C163.836 23.3349 164.111 24.09 164.011 25.057C163.958 25.5737 163.968 26.1002 163.952 26.6036C163.366 27.0209 162.766 26.8851 162.203 26.8851C157.706 26.8984 153.205 26.8917 148.708 26.8951C148.135 26.8951 147.559 26.9348 146.913 26.9613C146.552 28.3887 146.777 29.7564 146.737 31.1076C146.698 32.4753 146.727 33.8464 146.727 35.1347C147.287 35.6248 147.837 35.4725 148.347 35.4758C151.788 35.489 155.229 35.4758 158.666 35.489C159.176 35.489 159.706 35.3897 160.302 35.6612C160.173 35.9957 160.084 36.2872 159.951 36.5554C159.577 37.3138 159.173 38.0589 158.802 38.8206C158.643 39.1485 158.481 39.4962 158.418 39.8506C158.166 41.225 158.507 42.3509 159.819 43.0663C160.458 43.414 161.067 43.8214 161.703 44.2088C161.584 44.3413 161.524 44.4672 161.458 44.4705C159.12 44.6063 137.839 44.5268 136.531 44.3678Z" fill="white"></path>
<path d="M160.643 40.6915C161.183 39.2111 164.117 33.5481 164.925 32.4552C165.316 32.6771 165.726 32.889 166.121 33.1341C168.396 34.5416 170.833 35.5682 173.489 35.906C174.95 36.0915 176.443 36.0484 177.92 36.012C178.48 35.9987 179.053 35.7603 179.593 35.5517C182.103 34.5747 182.451 30.955 180.252 29.4448C179.689 29.0573 179.079 28.7162 178.453 28.4414C176.907 27.7591 175.344 27.11 173.771 26.4808C171.9 25.7357 170.042 24.9574 168.339 23.8811C167.184 23.1492 166.071 22.3246 165.024 21.4403C163.7 20.3177 162.865 18.8406 162.411 17.1682C161.597 14.1678 161.706 11.1872 162.779 8.27285C163.796 5.52411 165.72 3.53375 168.243 2.10308C170.303 0.937345 172.535 0.301491 174.887 0.169022C177.106 0.0431754 179.331 -0.016436 181.58 0.586301C181.636 0.811499 181.749 1.05988 181.752 1.30495C181.762 4.16298 181.755 7.02101 181.752 9.87905C181.752 9.98171 181.702 10.0811 181.646 10.2897C181.368 10.1771 181.086 10.1009 180.838 9.95853C179.411 9.14053 177.867 8.88884 176.248 8.99812C175.387 9.05442 174.579 9.29949 173.847 9.74327C171.962 10.8858 171.731 13.2504 173.383 14.7175C173.85 15.1315 174.41 15.4792 174.983 15.7342C176.526 16.4197 178.106 17.0324 179.662 17.6881C181.368 18.4068 183.083 19.0956 184.759 19.8772C186.104 20.5031 187.319 21.3609 188.462 22.3146C190.19 23.7619 191.28 25.5999 191.773 27.7823C192.32 30.1933 192.293 32.6141 191.71 35.0218C190.965 38.0951 189.243 40.4862 186.643 42.2612C184.593 43.6621 182.298 44.4669 179.864 44.8047C173.83 45.6392 168.051 44.7881 162.617 41.9533C161.921 41.589 161.196 41.2512 160.64 40.6915H160.643Z" fill="white"></path>
<path d="M104.777 44.205C104.031 44.7051 103.151 44.6918 102.333 44.8011C98.2591 45.3476 94.1956 45.2515 90.2016 44.2249C84.4127 42.7346 79.8359 39.552 76.7858 34.3327C75.3783 31.9251 74.5834 29.2955 74.1827 26.5534C73.7025 23.2847 73.6992 20.016 74.3582 16.7606C76.0472 8.40839 81.1672 3.18908 89.228 0.894048C93.7849 -0.404155 98.4379 -0.245191 103.011 1.09938C103.614 1.2749 104.194 1.5299 104.853 1.77166C104.969 3.77195 104.909 5.72257 104.902 7.67318C104.896 9.60724 105.002 11.5479 104.826 13.472C104.27 13.5184 104.124 13.1077 103.876 12.8726C100.524 9.70659 96.59 8.96145 92.2582 10.1835C89.1485 11.0578 87.1349 13.2535 85.8102 16.1115C84.8366 18.2178 84.5087 20.4731 84.6511 22.7681C84.7306 24.0266 84.8863 25.3181 85.2638 26.5137C86.7243 31.1302 89.8671 34.0247 94.593 35.0911C97.4709 35.7402 100.372 35.6342 103.243 34.9387C103.704 34.8295 104.161 34.7169 104.71 34.5811C104.783 34.8063 104.889 34.9884 104.889 35.1673C104.896 38.0253 104.893 40.8833 104.883 43.738C104.883 43.8904 104.813 44.0427 104.777 44.2017V44.205Z" fill="white"></path>
<path d="M184.892 9.60423C184.62 7.94836 184.64 2.11638 184.892 0.887723C185.024 0.841359 185.166 0.745318 185.312 0.745318C196.158 0.732071 207.004 0.72876 217.85 0.72876C218.049 0.72876 218.247 0.801618 218.526 0.857918C218.741 1.82163 218.618 2.7721 218.638 3.70933C218.658 4.6598 218.648 5.61358 218.638 6.56736C218.632 7.51121 218.608 8.45174 218.592 9.48169C218.089 9.52806 217.681 9.5976 217.274 9.60091C214.416 9.61085 211.561 9.60754 208.703 9.60754C208.176 9.60754 207.653 9.60754 207.067 9.60754C206.978 9.98508 206.872 10.2765 206.848 10.5746C206.815 11.0481 206.835 11.525 206.835 12.0019C206.835 22.1623 206.835 32.3195 206.832 42.4799C206.832 43.1025 206.918 43.7383 206.719 44.2947C206.55 44.3808 206.458 44.4636 206.365 44.4669C203.404 44.4868 200.44 44.4967 197.48 44.5034C197.278 44.5034 197.072 44.4504 196.781 44.4106C196.724 44.0861 196.645 43.788 196.628 43.49C196.602 42.9634 196.615 42.4335 196.615 41.9036C196.615 31.7962 196.615 21.6921 196.609 11.5846C196.609 10.9654 196.721 10.3162 196.363 9.64728C194.463 9.57111 192.562 9.62078 190.664 9.61416C188.763 9.60423 186.859 9.61416 184.885 9.61416L184.892 9.60423Z" fill="white"></path>
<path d="M94.2793 49.9878C95.2861 52.0245 96.263 54.0016 97.3195 56.141C97.5877 55.7668 97.7864 55.5515 97.909 55.3031C98.5912 53.9288 99.2502 52.5445 99.9258 51.1701C100.108 50.7992 100.33 50.4448 100.548 50.0507C101.164 50.9515 103.89 58.5089 104.171 60.0853H102.463C101.648 58.3831 101.287 56.5484 100.376 54.76C99.1641 56.396 98.5581 58.2075 97.442 59.88C97.2168 59.5819 97.0148 59.3733 96.8823 59.1282C96.2531 57.9658 95.6504 56.7901 95.0244 55.6277C94.8853 55.3661 94.6966 55.1342 94.4449 54.7633C93.862 55.7072 93.6633 56.6378 93.3321 57.5088C93.0142 58.3466 92.7128 59.1878 92.385 60.0853H90.6562C90.8649 58.7043 93.5971 51.0476 94.276 49.9878H94.2793Z" fill="white"></path>
<path d="M135.872 49.7162C137.233 49.5473 138.554 49.5473 139.852 49.7526C140.505 49.8553 141.177 50.16 141.73 50.5375C143.72 51.892 144.37 53.9453 143.846 56.247C143.363 58.3698 141.396 59.9627 139.14 60.1084C138.087 60.178 137.031 60.1217 135.925 60.1217C135.845 59.9031 135.713 59.7144 135.713 59.5256C135.706 56.4059 135.713 53.2863 135.723 50.1666C135.723 50.0706 135.785 49.9712 135.872 49.7162ZM137.683 58.2174C139.409 58.4592 140.809 58.0618 141.7 56.5682C142.409 55.3793 142.363 54.1308 141.584 52.9849C140.644 51.5973 139.286 51.2893 137.733 51.5807C137.478 52.7994 137.448 56.4622 137.683 58.2208V58.2174Z" fill="white"></path>
<path d="M125.664 49.6533C127.479 49.6003 129.204 49.5772 130.966 49.6699C131.218 50.2494 131.211 50.7396 130.983 51.286C129.863 51.6602 128.674 51.2562 127.509 51.5708C127.161 52.263 127.33 52.9783 127.379 53.7201C128.201 54.154 129.092 53.7533 129.91 54.0679C130.31 54.4951 130.181 55.0084 130.065 55.5681C129.267 56.0351 128.293 55.5317 127.452 55.9655C127.247 56.6875 127.234 57.3929 127.492 58.2109C128.654 58.2473 129.797 58.2804 131.022 58.3168C131.072 58.6348 131.135 58.8798 131.141 59.1282C131.148 59.3865 131.098 59.6449 131.075 59.8833C130.006 60.178 127.631 60.2244 125.657 59.9959C125.611 59.8369 125.505 59.6449 125.502 59.4528C125.492 56.3927 125.492 53.3327 125.502 50.2726C125.502 50.1236 125.578 49.9779 125.667 49.6533H125.664Z" fill="white"></path>
<path d="M120.919 51.3117C120.226 51.4144 119.667 51.4972 119.018 51.5932C118.872 53.0603 118.971 54.4778 118.938 55.8919C118.905 57.2497 119.024 58.6174 118.849 60.0315C118.263 60.164 117.766 60.2004 117.219 59.9918C116.988 58.5711 117.143 57.1503 117.1 55.7329C117.06 54.3751 117.176 53.0073 117.021 51.5965C116.378 51.4906 115.822 51.4011 115.183 51.2952C115.156 50.7951 115.13 50.3381 115.106 49.8645C116.077 49.4174 117.037 49.6559 117.964 49.6227C118.905 49.5896 119.849 49.636 120.813 49.6492C121.134 50.2089 121.051 50.7123 120.919 51.3084V51.3117Z" fill="white"></path>
<path d="M76.1507 49.729C76.409 51.1299 76.2468 52.501 76.2733 53.8621C76.3031 55.2298 76.2799 56.6009 76.2799 58.0349C76.6607 58.1243 76.9522 58.2369 77.2469 58.2501C78.0285 58.2866 78.8167 58.2833 79.5419 58.2932C79.9559 58.8827 79.7506 59.3993 79.7506 59.9325C78.8962 60.267 78.045 60.0882 77.2171 60.118C76.3759 60.1478 75.5347 60.1246 74.6339 60.1246C74.5611 59.8067 74.4617 59.5616 74.4584 59.3165C74.4485 56.3558 74.4518 53.3951 74.4584 50.4344C74.4584 50.2324 74.5213 50.0304 74.5511 49.8582C75.0943 49.5005 75.5943 49.633 76.1507 49.7257V49.729Z" fill="white"></path>
<path d="M85.7378 60.0783H84.2376C83.8733 58.9092 84.1018 57.7435 84.062 56.6009C84.0223 55.4915 84.0289 54.3821 84.062 53.2726C84.0952 52.1202 83.9163 50.9577 84.1912 49.8185C84.7244 49.5403 85.2178 49.5734 85.7014 49.7523C85.9299 51.014 85.9696 58.2336 85.7444 60.075L85.7378 60.0783Z" fill="white"></path>
<path d="M110.506 60.0753H108.904C108.602 58.893 108.791 57.7339 108.758 56.5914C108.725 55.4886 108.745 54.3825 108.751 53.2763C108.758 52.1272 108.711 50.978 108.794 49.8652C109.387 49.5341 109.887 49.5837 110.381 49.7427C110.444 49.8553 110.533 49.948 110.536 50.0374C110.559 53.0876 110.573 56.1377 110.583 59.1878C110.583 59.4428 110.54 59.6978 110.506 60.072V60.0753Z" fill="white"></path>
</g>
<defs>
<clipPath id="clip0_184_3033">
<rect width="218.654" height="60.1445" fill="white"></rect>
</clipPath>
<clipPath id="SvgjsClipPath1034"><rect width="1000" height="1000" x="0" y="0" rx="350" ry="350"></rect></clipPath></defs>
</svg></svg></g></g></svg>