<svg width="25" height="24" viewBox="0 0 25 24" fill="none" xmlns="http://www.w3.org/2000/svg">
<path opacity="0.2" d="M20.3783 19.7119C18.763 21.3272 14.0033 19.1841 9.74147 14.925C5.47959 10.666 3.33928 5.90629 4.95459 4.28817C6.56991 2.67004 11.3296 4.81598 15.5915 9.07504C19.8533 13.3341 21.9937 18.0938 20.3783 19.7119Z" fill="#229EFF"/>
<path d="M19.0526 12.0001C21.3636 8.75542 22.542 5.40198 20.9032 3.76323C19.2645 2.12448 15.9111 3.30292 12.6664 5.61386C9.42168 3.30292 6.06824 2.12448 4.42949 3.76323C2.79074 5.40198 3.96918 8.75542 6.28012 12.0001C3.96918 15.2448 2.79074 18.5982 4.42949 20.237C4.9573 20.7648 5.6623 21.0001 6.48355 21.0001C8.21605 21.0001 10.4661 19.9529 12.6711 18.3864C14.8667 19.9529 17.1167 21.0001 18.8539 21.0001C19.6751 21.0001 20.3811 20.7639 20.9079 20.237C22.542 18.5982 21.3636 15.2448 19.0526 12.0001ZM19.8429 4.82354C20.5592 5.53979 20.0754 7.86104 18.1067 10.756C17.4838 9.98503 16.8207 9.24744 16.1201 8.54636C15.419 7.8467 14.6814 7.18453 13.9104 6.56261C16.8054 4.59386 19.1267 4.10636 19.8429 4.82354ZM17.1936 12.0001C16.5302 12.8393 15.8177 13.6385 15.0598 14.3935C14.3048 15.1514 13.5056 15.8639 12.6664 16.5273C11.8271 15.8639 11.0279 15.1514 10.2729 14.3935C9.51507 13.6385 8.80258 12.8393 8.13918 12.0001C9.47015 10.3229 10.9891 8.80389 12.6664 7.47292C13.5056 8.13632 14.3048 8.84881 15.0598 9.60667C15.8177 10.3617 16.5302 11.1609 17.1936 12.0001ZM5.4898 4.82354C5.69605 4.61636 6.03637 4.50948 6.48543 4.50948C7.59355 4.50948 9.36262 5.15636 11.4214 6.56261C10.6512 7.18503 9.9139 7.84718 9.21262 8.54636C8.51296 9.24751 7.85079 9.9851 7.22887 10.756C5.26012 7.86104 4.77355 5.53979 5.4898 4.82354ZM5.4898 19.1767C4.77355 18.4604 5.26012 16.1392 7.22887 13.2442C7.8517 14.0152 8.51481 14.7528 9.21543 15.4539C9.91613 16.153 10.6527 16.8151 11.4223 17.4376C8.5273 19.4064 6.20605 19.8939 5.4898 19.1767ZM19.8429 19.1767C19.1267 19.8939 16.8054 19.4092 13.9104 17.4404C14.681 16.8171 15.4186 16.154 16.1201 15.4539C16.8198 14.7527 17.4819 14.0151 18.1039 13.2442C20.0726 16.1392 20.5592 18.4604 19.8429 19.1767ZM13.7914 12.0001C13.7914 12.2226 13.7254 12.4401 13.6018 12.6251C13.4782 12.8101 13.3025 12.9543 13.0969 13.0395C12.8913 13.1246 12.6651 13.1469 12.4469 13.1035C12.2287 13.0601 12.0282 12.9529 11.8709 12.7956C11.7135 12.6383 11.6064 12.4378 11.563 12.2196C11.5196 12.0014 11.5419 11.7752 11.627 11.5696C11.7121 11.364 11.8563 11.1883 12.0413 11.0647C12.2264 10.9411 12.4439 10.8751 12.6664 10.8751C12.9647 10.8751 13.2509 10.9936 13.4619 11.2046C13.6728 11.4156 13.7914 11.7017 13.7914 12.0001Z" fill="#229EFF"/>
</svg>
