<svg width="30" height="29" viewBox="0 0 30 29" fill="none" xmlns="http://www.w3.org/2000/svg">
<path d="M24.8671 8.76309H20.2546C20.2546 7.29512 19.6714 5.88727 18.6334 4.84925C17.5954 3.81124 16.1875 3.22809 14.7196 3.22809C13.2516 3.22809 11.8437 3.81124 10.8057 4.84925C9.76771 5.88727 9.18456 7.29512 9.18456 8.76309H4.57205C4.08273 8.76309 3.61344 8.95748 3.26744 9.30348C2.92143 9.64949 2.72705 10.1188 2.72705 10.6081V24.4456C2.72705 24.9349 2.92143 25.4042 3.26744 25.7502C3.61344 26.0962 4.08273 26.2906 4.57205 26.2906H24.8671C25.3564 26.2906 25.8257 26.0962 26.1717 25.7502C26.5177 25.4042 26.7121 24.9349 26.7121 24.4456V10.6081C26.7121 10.1188 26.5177 9.64949 26.1717 9.30348C25.8257 8.95748 25.3564 8.76309 24.8671 8.76309ZM14.7196 5.07309C15.6982 5.07309 16.6368 5.46186 17.3288 6.15387C18.0208 6.84588 18.4096 7.78444 18.4096 8.76309H11.0296C11.0296 7.78444 11.4183 6.84588 12.1103 6.15387C12.8023 5.46186 13.7409 5.07309 14.7196 5.07309ZM24.8671 24.4456H4.57205V10.6081H9.18456V12.4531C9.18456 12.6978 9.28175 12.9324 9.45475 13.1054C9.62775 13.2784 9.86239 13.3756 10.1071 13.3756C10.3517 13.3756 10.5864 13.2784 10.7594 13.1054C10.9324 12.9324 11.0296 12.6978 11.0296 12.4531V10.6081H18.4096V12.4531C18.4096 12.6978 18.5068 12.9324 18.6798 13.1054C18.8528 13.2784 19.0874 13.3756 19.3321 13.3756C19.5767 13.3756 19.8114 13.2784 19.9844 13.1054C20.1574 12.9324 20.2546 12.6978 20.2546 12.4531V10.6081H24.8671V24.4456Z" fill="white"/>
<path opacity="0.2" d="M26.0966 9.51264V22.6294C26.0966 22.8614 25.9994 23.0838 25.8264 23.2478C25.6534 23.4118 25.4187 23.5039 25.1741 23.5039H4.87904C4.63438 23.5039 4.39974 23.4118 4.22674 23.2478C4.05373 23.0838 3.95654 22.8614 3.95654 22.6294V9.51264C3.95654 9.28072 4.05373 9.0583 4.22674 8.89431C4.39974 8.73031 4.63438 8.63818 4.87904 8.63818H25.1741C25.4187 8.63818 25.6534 8.73031 25.8264 8.89431C25.9994 9.0583 26.0966 9.28072 26.0966 9.51264Z" fill="white"/>
</svg>
