<svg width="25" height="24" viewBox="0 0 25 24" fill="none" xmlns="http://www.w3.org/2000/svg">
<path opacity="0.2" d="M21.3335 6V19.5H3.3335V4.5H19.8335C20.2313 4.5 20.6129 4.65804 20.8942 4.93934C21.1755 5.22064 21.3335 5.60218 21.3335 6Z" fill="#FF3B30"/>
<path d="M22.0835 19.5C22.0835 19.6989 22.0045 19.8897 21.8638 20.0303C21.7232 20.171 21.5324 20.25 21.3335 20.25H3.3335C3.13458 20.25 2.94382 20.171 2.80317 20.0303C2.66251 19.8897 2.5835 19.6989 2.5835 19.5V4.5C2.5835 4.30109 2.66251 4.11032 2.80317 3.96967C2.94382 3.82902 3.13458 3.75 3.3335 3.75C3.53241 3.75 3.72317 3.82902 3.86383 3.96967C4.00448 4.11032 4.0835 4.30109 4.0835 4.5V14.6897L8.80287 9.96937C8.87253 9.89964 8.95524 9.84432 9.04629 9.80658C9.13734 9.76884 9.23493 9.74941 9.3335 9.74941C9.43206 9.74941 9.52965 9.76884 9.6207 9.80658C9.71175 9.84432 9.79447 9.89964 9.86412 9.96937L12.3335 12.4397L17.2732 7.5H15.3335C15.1346 7.5 14.9438 7.42098 14.8032 7.28033C14.6625 7.13968 14.5835 6.94891 14.5835 6.75C14.5835 6.55109 14.6625 6.36032 14.8032 6.21967C14.9438 6.07902 15.1346 6 15.3335 6H19.0835C19.2824 6 19.4732 6.07902 19.6138 6.21967C19.7545 6.36032 19.8335 6.55109 19.8335 6.75V10.5C19.8335 10.6989 19.7545 10.8897 19.6138 11.0303C19.4732 11.171 19.2824 11.25 19.0835 11.25C18.8846 11.25 18.6938 11.171 18.5532 11.0303C18.4125 10.8897 18.3335 10.6989 18.3335 10.5V8.56031L12.8641 14.0306C12.7945 14.1004 12.7118 14.1557 12.6207 14.1934C12.5297 14.2312 12.4321 14.2506 12.3335 14.2506C12.2349 14.2506 12.1373 14.2312 12.0463 14.1934C11.9552 14.1557 11.8725 14.1004 11.8029 14.0306L9.3335 11.5603L4.0835 16.8103V18.75H21.3335C21.5324 18.75 21.7232 18.829 21.8638 18.9697C22.0045 19.1103 22.0835 19.3011 22.0835 19.5Z" fill="#FF3B30"/>
</svg>
