<svg width="38" height="38" viewBox="0 0 38 38" fill="none" xmlns="http://www.w3.org/2000/svg">
<path opacity="0.2" d="M33.8304 15.1654C33.8304 18.6651 27.9976 22.1648 18.6651 22.1648C9.33257 22.1648 3.49976 18.6651 3.49976 15.1654C3.49976 11.6657 9.33257 8.16602 18.6651 8.16602C27.9976 8.16602 33.8304 11.6657 33.8304 15.1654Z" fill="#30927E"/>
<path d="M30.2694 9.30931C27.2466 7.79861 23.2336 6.99951 18.6651 6.99951C14.0965 6.99951 10.0835 7.79861 7.06069 9.30931C4.03783 10.82 2.33319 12.9461 2.33319 15.1654V22.1648C2.33319 24.3842 4.05679 26.5176 7.06069 28.021C10.0646 29.5244 14.0965 30.3308 18.6651 30.3308C23.2336 30.3308 27.2466 29.5317 30.2694 28.021C33.2923 26.5103 34.9969 24.3842 34.9969 22.1648V15.1654C34.9969 12.9461 33.2733 10.8127 30.2694 9.30931ZM18.6651 9.33264C27.7992 9.33264 32.6638 12.72 32.6638 15.1654C32.6638 17.6109 27.7992 20.9983 18.6651 20.9983C9.53088 20.9983 4.66632 17.6109 4.66632 15.1654C4.66632 12.72 9.53088 9.33264 18.6651 9.33264ZM17.4985 23.311V27.9772C14.7279 27.8868 12.3948 27.4785 10.4991 26.885V22.3179C12.7843 22.9268 15.1341 23.2601 17.4985 23.311ZM19.8316 23.311C22.196 23.2601 24.5458 22.9268 26.831 22.3179V26.8836C24.9353 27.4771 22.6022 27.8854 19.8316 27.9758V23.311ZM4.66632 22.1648V19.4715C5.40046 20.0809 6.20417 20.6012 7.06069 21.0216C7.41503 21.198 7.78979 21.3643 8.166 21.5218V25.9562C5.85767 24.8129 4.66632 23.3737 4.66632 22.1648ZM29.1641 25.9562V21.5218C29.5447 21.3643 29.9151 21.198 30.2694 21.0216C31.126 20.6012 31.9297 20.0809 32.6638 19.4715V22.1648C32.6638 23.3737 31.4725 24.8129 29.1641 25.9562Z" fill="#30927E"/>
</svg>
