<svg width="38" height="38" viewBox="0 0 38 38" fill="none" xmlns="http://www.w3.org/2000/svg">
<path opacity="0.2" d="M31.0735 25.1511C29.9425 27.3146 28.2653 29.1447 26.2084 30.4598C24.1516 31.7748 21.7866 32.5291 19.3481 32.6477L19.8104 30.2504C19.8448 30.0705 19.8363 29.885 19.7856 29.7089C19.7349 29.5328 19.6435 29.3712 19.5187 29.237L16.6402 26.2725C16.4851 26.105 16.3825 25.8956 16.3451 25.6704C16.3078 25.4451 16.3374 25.2139 16.4303 25.0053L18.428 20.5228C18.5307 20.2924 18.7053 20.1016 18.9256 19.9788C19.1459 19.856 19.4001 19.808 19.65 19.8418L22.9776 20.2909C23.1388 20.313 23.2936 20.3681 23.4326 20.4528L31.0735 25.1511ZM17.0194 13.853L18.8115 12.8672C18.8906 12.8244 18.9641 12.772 19.0302 12.7112L22.9543 9.16337C23.1496 8.98573 23.2789 8.74709 23.321 8.48646C23.3631 8.22583 23.3155 7.95862 23.1861 7.7285L21.655 4.98562C20.6728 4.77286 19.6707 4.66581 18.6657 4.66628C15.4703 4.6614 12.3702 5.75431 9.88439 7.76204L8.16663 11.8231C8.0506 12.0981 8.04434 12.407 8.14913 12.6864L9.82606 17.1587C9.89496 17.3414 10.0086 17.5039 10.1567 17.6313C10.3047 17.7587 10.4823 17.8469 10.6733 17.8878L11.0655 17.9724L13.0079 14.5821C13.1104 14.4045 13.2579 14.257 13.4356 14.1546C13.6133 14.0522 13.8148 13.9985 14.0199 13.9988H16.4565C16.6535 13.9991 16.8473 13.9489 17.0194 13.853Z" fill="#30927E"/>
<path d="M18.6651 3.49976C15.6657 3.49976 12.7336 4.38919 10.2397 6.05557C7.74576 7.72196 5.80198 10.0905 4.65415 12.8616C3.50633 15.6327 3.206 18.6819 3.79116 21.6237C4.37632 24.5655 5.82067 27.2677 7.94158 29.3886C10.0625 31.5095 12.7647 32.9538 15.7065 33.539C18.6483 34.1241 21.6975 33.8238 24.4686 32.676C27.2397 31.5282 29.6082 29.5844 31.2746 27.0905C32.941 24.5965 33.8304 21.6645 33.8304 18.6651C33.8261 14.6443 32.227 10.7894 29.3839 7.94626C26.5408 5.10313 22.6859 3.504 18.6651 3.49976ZM31.4973 18.6651C31.4985 20.3113 31.1816 21.9424 30.564 23.4684L24.0458 19.4598C23.7687 19.2888 23.4587 19.178 23.1359 19.1346L19.8083 18.6855C19.3498 18.6257 18.8838 18.7026 18.4688 18.9064C18.0537 19.1103 17.7081 19.4322 17.4752 19.8316H16.2036L15.6495 18.6855C15.4963 18.3663 15.2721 18.0865 14.9941 17.8673C14.7161 17.6482 14.3916 17.4956 14.0455 17.4212L12.8789 17.169L14.0192 15.1654H16.4559C16.8502 15.1646 17.2379 15.0643 17.5831 14.8737L19.3694 13.888C19.5263 13.8005 19.673 13.6959 19.8068 13.5759L23.7309 10.0267C24.1243 9.6741 24.3858 9.19795 24.4722 8.67677C24.5586 8.1556 24.4648 7.62053 24.2062 7.15985L24.1537 7.06506C26.3495 8.10621 28.205 9.74873 29.5048 11.802C30.8046 13.8552 31.4955 16.235 31.4973 18.6651ZM20.8976 6.02828L22.1648 8.29724L18.2407 11.8465L16.4559 12.8323H14.0192C13.6091 12.8317 13.2061 12.9392 12.8507 13.144C12.4954 13.3488 12.2003 13.6436 11.9953 13.9988L10.7222 16.2197L9.24217 12.2767L10.8374 8.50431C12.2495 7.41327 13.8738 6.6292 15.6065 6.20232C17.3391 5.77544 19.1418 5.71517 20.899 6.02536L20.8976 6.02828ZM5.83289 18.6651C5.83094 16.7578 6.25647 14.8743 7.07819 13.1531L8.7318 17.567C8.8696 17.9325 9.09695 18.2575 9.39299 18.5123C9.68904 18.7671 10.0443 18.9434 10.4262 19.0252L13.5512 19.6975L14.1067 20.8524C14.2995 21.2452 14.5984 21.5762 14.9694 21.8081C15.3405 22.04 15.769 22.1636 16.2065 22.1648H16.4224L15.3681 24.5314C15.1823 24.9481 15.1228 25.4102 15.1969 25.8604C15.2711 26.3106 15.4756 26.7291 15.7851 27.0643L15.8055 27.0847L18.6651 30.0303L18.3822 31.4885C15.031 31.4105 11.843 30.0259 9.4984 27.6301C7.15385 25.2344 5.83845 22.0172 5.83289 18.6651ZM20.7911 31.3194L20.9559 30.4721C21.0236 30.1122 21.0062 29.7414 20.9049 29.3895C20.8036 29.0375 20.6213 28.7141 20.3726 28.4452C20.3655 28.4388 20.3587 28.432 20.3522 28.4248L17.4985 25.4807L19.4962 20.9982L22.8239 21.4473L29.4908 25.5478C28.5249 27.0647 27.2516 28.3621 25.7531 29.3562C24.2546 30.3504 22.5642 31.0191 20.7911 31.3194Z" fill="#30927E"/>
</svg>
