<svg width="18" height="17" viewBox="0 0 18 17" fill="none" xmlns="http://www.w3.org/2000/svg">
<path d="M11.5 8.85938C11.5 9.35383 11.3534 9.83718 11.0787 10.2483C10.804 10.6594 10.4135 10.9799 9.95671 11.1691C9.49989 11.3583 8.99723 11.4078 8.51227 11.3113C8.02732 11.2149 7.58186 10.9768 7.23223 10.6271C6.8826 10.2775 6.6445 9.83205 6.54804 9.3471C6.45157 8.86215 6.50108 8.35948 6.6903 7.90267C6.87952 7.44585 7.19995 7.0554 7.61107 6.7807C8.0222 6.506 8.50555 6.35938 9 6.35938C9.66304 6.35938 10.2989 6.62277 10.7678 7.09161C11.2366 7.56045 11.5 8.19633 11.5 8.85938ZM17.125 5.10938V12.6094C17.1238 13.7693 16.6624 14.8814 15.8422 15.7016C15.022 16.5218 13.9099 16.9831 12.75 16.9844H5.25C4.09006 16.9831 2.97798 16.5218 2.15778 15.7016C1.33758 14.8814 0.876241 13.7693 0.875 12.6094V5.10938C0.876241 3.94943 1.33758 2.83736 2.15778 2.01715C2.97798 1.19695 4.09006 0.735616 5.25 0.734375H12.75C13.9099 0.735616 15.022 1.19695 15.8422 2.01715C16.6624 2.83736 17.1238 3.94943 17.125 5.10938ZM12.75 8.85938C12.75 8.11769 12.5301 7.39267 12.118 6.77599C11.706 6.1593 11.1203 5.67866 10.4351 5.39483C9.74984 5.111 8.99584 5.03674 8.26841 5.18143C7.54098 5.32613 6.8728 5.68328 6.34835 6.20772C5.8239 6.73217 5.46675 7.40036 5.32206 8.12779C5.17736 8.85522 5.25162 9.60921 5.53545 10.2944C5.81928 10.9797 6.29993 11.5653 6.91661 11.9774C7.5333 12.3894 8.25832 12.6094 9 12.6094C9.99424 12.6083 10.9475 12.2129 11.6505 11.5099C12.3535 10.8068 12.749 9.85362 12.75 8.85938ZM14.625 4.17188C14.625 3.98645 14.57 3.8052 14.467 3.65103C14.364 3.49686 14.2176 3.37669 14.0463 3.30574C13.875 3.23478 13.6865 3.21622 13.5046 3.25239C13.3227 3.28856 13.1557 3.37785 13.0246 3.50896C12.8935 3.64007 12.8042 3.80712 12.768 3.98898C12.7318 4.17083 12.7504 4.35933 12.8214 4.53064C12.8923 4.70195 13.0125 4.84836 13.1667 4.95138C13.3208 5.05439 13.5021 5.10938 13.6875 5.10938C13.9361 5.10938 14.1746 5.0106 14.3504 4.83479C14.5262 4.65897 14.625 4.42052 14.625 4.17188Z" fill="#767676"/>
</svg>
