<svg width="38" height="38" viewBox="0 0 38 38" fill="none" xmlns="http://www.w3.org/2000/svg">
<path opacity="0.2" d="M31.4972 10.4991V25.6645H5.83282V10.4991C5.83282 9.88036 6.07864 9.28692 6.51618 8.84937C6.95373 8.41183 7.54717 8.16602 8.16595 8.16602H29.1641C29.7829 8.16602 30.3763 8.41183 30.8138 8.84937C31.2514 9.28692 31.4972 9.88036 31.4972 10.4991Z" fill="#30927E"/>
<path d="M33.8304 24.4979H32.6638V10.4992C32.6638 9.57102 32.2951 8.68087 31.6388 8.02455C30.9825 7.36823 30.0923 6.99951 29.1641 6.99951H8.166C7.23783 6.99951 6.34767 7.36823 5.69135 8.02455C5.03503 8.68087 4.66632 9.57102 4.66632 10.4992V24.4979H3.49975C3.19036 24.4979 2.89364 24.6209 2.67487 24.8396C2.4561 25.0584 2.33319 25.3551 2.33319 25.6645V27.9976C2.33319 28.9258 2.70191 29.816 3.35823 30.4723C4.01454 31.1286 4.9047 31.4973 5.83288 31.4973H31.4973C32.4254 31.4973 33.3156 31.1286 33.9719 30.4723C34.6282 29.816 34.9969 28.9258 34.9969 27.9976V25.6645C34.9969 25.3551 34.874 25.0584 34.6553 24.8396C34.4365 24.6209 34.1398 24.4979 33.8304 24.4979ZM6.99944 10.4992C6.99944 10.1898 7.12235 9.89309 7.34112 9.67431C7.55989 9.45554 7.85661 9.33264 8.166 9.33264H29.1641C29.4735 9.33264 29.7702 9.45554 29.989 9.67431C30.2078 9.89309 30.3307 10.1898 30.3307 10.4992V24.4979H6.99944V10.4992ZM32.6638 27.9976C32.6638 28.307 32.5409 28.6037 32.3221 28.8225C32.1034 29.0413 31.8066 29.1642 31.4973 29.1642H5.83288C5.52349 29.1642 5.22677 29.0413 5.00799 28.8225C4.78922 28.6037 4.66632 28.307 4.66632 27.9976V26.8311H32.6638V27.9976ZM22.1648 12.8323C22.1648 13.1417 22.0418 13.4384 21.8231 13.6572C21.6043 13.876 21.3076 13.9989 20.9982 13.9989H16.3319C16.0225 13.9989 15.7258 13.876 15.5071 13.6572C15.2883 13.4384 15.1654 13.1417 15.1654 12.8323C15.1654 12.5229 15.2883 12.2262 15.5071 12.0074C15.7258 11.7887 16.0225 11.6658 16.3319 11.6658H20.9982C21.3076 11.6658 21.6043 11.7887 21.8231 12.0074C22.0418 12.2262 22.1648 12.5229 22.1648 12.8323Z" fill="#30927E"/>
</svg>
