<svg width="77" height="48" viewBox="0 0 77 48" fill="none" xmlns="http://www.w3.org/2000/svg">
<path d="M76.6971 5.33337C76.6971 8.27889 74.3093 10.6667 71.3638 10.6667C68.4183 10.6667 66.0304 8.27889 66.0304 5.33337C66.0304 2.38786 68.4183 4.05312e-05 71.3638 4.05312e-05C74.3093 4.05312e-05 76.6971 2.38786 76.6971 5.33337ZM8.07088 47.0405C7.68035 47.431 7.04719 47.431 6.65666 47.0405L0.292702 40.6765C-0.0978241 40.286 -0.0978241 39.6528 0.292702 39.2623C0.683228 38.8718 1.31639 38.8718 1.70692 39.2623L7.36377 44.9192L13.0206 39.2623C13.4111 38.8718 14.0443 38.8718 14.4348 39.2623C14.8254 39.6528 14.8254 40.286 14.4348 40.6765L8.07088 47.0405ZM71.3638 5.33337H72.3638V7.39675H71.3638H70.3638V5.33337H71.3638ZM71.3638 11.5235H72.3638V13.5869H71.3638H70.3638V11.5235H71.3638ZM71.3638 13.5869H72.3638C72.3638 14.3385 72.3149 15.0793 72.2201 15.806L71.2285 15.6766L70.2369 15.5473C70.3206 14.9061 70.3638 14.2518 70.3638 13.5869H71.3638ZM70.1497 19.7115L71.0734 20.0946C70.5001 21.4772 69.7498 22.7673 68.8511 23.9368L68.0582 23.3274L67.2652 22.7181C68.0587 21.6856 68.7205 20.5474 69.226 19.3284L70.1497 19.7115ZM65.1043 26.2813L65.7136 27.0742C64.5442 27.9729 63.254 28.7232 61.8714 29.2965L61.4884 28.3728L61.1053 27.4491C62.3242 26.9436 63.4625 26.2818 64.495 25.4884L65.1043 26.2813ZM57.4535 29.4517L57.5829 30.4433C56.8561 30.5381 56.1154 30.5869 55.3638 30.5869V29.5869V28.5869C56.0287 28.5869 56.683 28.5437 57.3242 28.4601L57.4535 29.4517ZM55.3638 29.5869V30.5869H53.3638V29.5869V28.5869H55.3638V29.5869ZM49.3638 29.5869V30.5869H45.3638V29.5869V28.5869H49.3638V29.5869ZM41.3638 29.5869V30.5869H37.3638V29.5869V28.5869H41.3638V29.5869ZM33.3638 29.5869V30.5869H29.3638V29.5869V28.5869H33.3638V29.5869ZM25.3638 29.5869V30.5869H23.3638V29.5869V28.5869H25.3638V29.5869ZM23.3638 29.5869V30.5869C22.6989 30.5869 22.0445 30.6301 21.4034 30.7137L21.274 29.7221L21.1447 28.7305C21.8714 28.6357 22.6121 28.5869 23.3638 28.5869V29.5869ZM17.2392 30.801L17.6222 31.7247C16.4033 32.2302 15.265 32.892 14.2326 33.6854L13.6232 32.8925L13.0139 32.0996C14.1834 31.2009 15.4735 30.4506 16.8561 29.8773L17.2392 30.801ZM10.6694 35.8463L11.4623 36.4557C10.6689 37.4882 10.007 38.6264 9.50158 39.8453L8.57786 39.4623L7.65413 39.0792C8.22747 37.6966 8.97776 36.4065 9.87646 35.237L10.6694 35.8463ZM7.499 43.4971L8.4906 43.6265C8.40697 44.2677 8.36377 44.922 8.36377 45.5869H7.36377H6.36377C6.36377 44.8353 6.41261 44.0945 6.50741 43.3678L7.499 43.4971ZM7.36377 45.5869H8.36377V45.7735H7.36377H6.36377V45.5869H7.36377ZM7.36377 46.1468H8.36377V46.3334H7.36377H6.36377V46.1468H7.36377Z" fill="white"/>
</svg>
