<svg width="18" height="17" viewBox="0 0 18 17" fill="none" xmlns="http://www.w3.org/2000/svg">
<path d="M15.875 0.734375H2.125C1.79348 0.734375 1.47554 0.866071 1.24112 1.10049C1.0067 1.33491 0.875 1.65285 0.875 1.98438V15.7344C0.875 16.0659 1.0067 16.3838 1.24112 16.6183C1.47554 16.8527 1.79348 16.9844 2.125 16.9844H15.875C16.2065 16.9844 16.5245 16.8527 16.7589 16.6183C16.9933 16.3838 17.125 16.0659 17.125 15.7344V1.98438C17.125 1.65285 16.9933 1.33491 16.7589 1.10049C16.5245 0.866071 16.2065 0.734375 15.875 0.734375ZM6.5 12.6094C6.5 12.7751 6.43415 12.9341 6.31694 13.0513C6.19973 13.1685 6.04076 13.2344 5.875 13.2344C5.70924 13.2344 5.55027 13.1685 5.43306 13.0513C5.31585 12.9341 5.25 12.7751 5.25 12.6094V7.60938C5.25 7.44361 5.31585 7.28464 5.43306 7.16743C5.55027 7.05022 5.70924 6.98438 5.875 6.98438C6.04076 6.98438 6.19973 7.05022 6.31694 7.16743C6.43415 7.28464 6.5 7.44361 6.5 7.60938V12.6094ZM5.875 6.35938C5.68958 6.35938 5.50832 6.30439 5.35415 6.20138C5.19998 6.09836 5.07982 5.95195 5.00886 5.78064C4.93791 5.60933 4.91934 5.42083 4.95551 5.23898C4.99169 5.05712 5.08098 4.89007 5.21209 4.75896C5.3432 4.62785 5.51025 4.53856 5.6921 4.50239C5.87396 4.46622 6.06246 4.48478 6.23377 4.55574C6.40507 4.62669 6.55149 4.74686 6.6545 4.90103C6.75752 5.0552 6.8125 5.23645 6.8125 5.42188C6.8125 5.67052 6.71373 5.90897 6.53791 6.08479C6.3621 6.2606 6.12364 6.35938 5.875 6.35938ZM13.375 12.6094C13.375 12.7751 13.3092 12.9341 13.1919 13.0513C13.0747 13.1685 12.9158 13.2344 12.75 13.2344C12.5842 13.2344 12.4253 13.1685 12.3081 13.0513C12.1908 12.9341 12.125 12.7751 12.125 12.6094V9.79688C12.125 9.38247 11.9604 8.98505 11.6674 8.69202C11.3743 8.39899 10.9769 8.23438 10.5625 8.23438C10.1481 8.23438 9.75067 8.39899 9.45765 8.69202C9.16462 8.98505 9 9.38247 9 9.79688V12.6094C9 12.7751 8.93415 12.9341 8.81694 13.0513C8.69973 13.1685 8.54076 13.2344 8.375 13.2344C8.20924 13.2344 8.05027 13.1685 7.93306 13.0513C7.81585 12.9341 7.75 12.7751 7.75 12.6094V7.60938C7.75078 7.45628 7.80771 7.3088 7.91001 7.19491C8.01231 7.08101 8.15285 7.00862 8.30498 6.99147C8.45711 6.97433 8.61024 7.01361 8.73533 7.10187C8.86041 7.19013 8.94876 7.32124 8.98359 7.47031C9.4064 7.1835 9.89934 7.01726 10.4095 6.98947C10.9196 6.96167 11.4277 7.07336 11.8792 7.31255C12.3306 7.55173 12.7084 7.90937 12.972 8.34706C13.2355 8.78476 13.3748 9.28597 13.375 9.79688V12.6094Z" fill="#767676"/>
</svg>
