<svg width="35" height="33" viewBox="0 0 35 33" fill="none" xmlns="http://www.w3.org/2000/svg">
    <path
        d="M28.4145 4.48193H5.18815C4.62815 4.48193 4.09108 4.70439 3.6951 5.10037C3.29912 5.49635 3.07666 6.03342 3.07666 6.59342V27.7083C3.07676 27.8882 3.12284 28.0652 3.21054 28.2223C3.29824 28.3794 3.42464 28.5115 3.57775 28.606C3.73086 28.7006 3.90558 28.7544 4.08534 28.7624C4.2651 28.7704 4.44393 28.7324 4.60485 28.6519L8.35538 26.7766L12.1059 28.6519C12.2526 28.7253 12.4143 28.7635 12.5784 28.7635C12.7424 28.7635 12.9041 28.7253 13.0508 28.6519L16.8013 26.7766L20.5519 28.6519C20.6985 28.7253 20.8603 28.7635 21.0243 28.7635C21.1883 28.7635 21.3501 28.7253 21.4967 28.6519L25.2473 26.7766L28.9978 28.6519C29.1587 28.7324 29.3375 28.7704 29.5173 28.7624C29.6971 28.7544 29.8718 28.7006 30.0249 28.606C30.178 28.5115 30.3044 28.3794 30.3921 28.2223C30.4798 28.0652 30.5259 27.8882 30.526 27.7083V6.59342C30.526 6.03342 30.3035 5.49635 29.9075 5.10037C29.5116 4.70439 28.9745 4.48193 28.4145 4.48193ZM28.4145 26.0006L25.7197 24.6519C25.573 24.5785 25.4113 24.5403 25.2473 24.5403C25.0833 24.5403 24.9215 24.5785 24.7748 24.6519L21.0243 26.5285L17.2738 24.6519C17.1271 24.5785 16.9653 24.5403 16.8013 24.5403C16.6373 24.5403 16.4756 24.5785 16.3289 24.6519L12.5784 26.5285L8.82782 24.6519C8.68115 24.5785 8.51939 24.5403 8.35538 24.5403C8.19136 24.5403 8.02961 24.5785 7.88293 24.6519L5.18815 26.0006V6.59342H28.4145V26.0006ZM17.8571 13.9836C17.8571 13.7036 17.9683 13.4351 18.1663 13.2371C18.3643 13.0391 18.6328 12.9279 18.9128 12.9279H25.2473C25.5273 12.9279 25.7958 13.0391 25.9938 13.2371C26.1918 13.4351 26.303 13.7036 26.303 13.9836C26.303 14.2636 26.1918 14.5322 25.9938 14.7301C25.7958 14.9281 25.5273 15.0394 25.2473 15.0394H18.9128C18.6328 15.0394 18.3643 14.9281 18.1663 14.7301C17.9683 14.5322 17.8571 14.2636 17.8571 13.9836ZM17.8571 18.2066C17.8571 17.9266 17.9683 17.6581 18.1663 17.4601C18.3643 17.2621 18.6328 17.1509 18.9128 17.1509H25.2473C25.5273 17.1509 25.7958 17.2621 25.9938 17.4601C26.1918 17.6581 26.303 17.9266 26.303 18.2066C26.303 18.4866 26.1918 18.7551 25.9938 18.9531C25.7958 19.1511 25.5273 19.2623 25.2473 19.2623H18.9128C18.6328 19.2623 18.3643 19.1511 18.1663 18.9531C17.9683 18.7551 17.8571 18.4866 17.8571 18.2066ZM8.35538 21.3738H14.6898C14.9698 21.3738 15.2384 21.2626 15.4364 21.0646C15.6343 20.8666 15.7456 20.5981 15.7456 20.3181V11.8721C15.7456 11.5921 15.6343 11.3236 15.4364 11.1256C15.2384 10.9276 14.9698 10.8164 14.6898 10.8164H8.35538C8.07538 10.8164 7.80684 10.9276 7.60885 11.1256C7.41086 11.3236 7.29963 11.5921 7.29963 11.8721V20.3181C7.29963 20.5981 7.41086 20.8666 7.60885 21.0646C7.80684 21.2626 8.07538 21.3738 8.35538 21.3738ZM9.41112 12.9279H13.6341V19.2623H9.41112V12.9279Z"
        fill="currentColor" />
    <path opacity="0.2"
        d="M28.766 6.39514H5.53963C5.25963 6.39514 4.9911 6.50289 4.79311 6.69469C4.59512 6.88649 4.48389 7.14663 4.48389 7.41788V27.8725L8.70686 25.8271L12.9298 27.8725L17.1528 25.8271L21.3758 27.8725L25.5988 25.8271L29.8217 27.8725V7.41788C29.8217 7.14663 29.7105 6.88649 29.5125 6.69469C29.3145 6.50289 29.046 6.39514 28.766 6.39514ZM15.0413 20.7134H8.70686V12.5315H15.0413V20.7134Z"
        fill="var(--process-ilstrxn-fill-bg)" />
</svg>
