<svg width="39" height="38" viewBox="0 0 39 38" fill="none" xmlns="http://www.w3.org/2000/svg">
<path d="M18.665 3.177C15.6018 3.177 12.6073 4.08536 10.0603 5.7872C7.51336 7.48904 5.52822 9.90793 4.35598 12.738C3.18373 15.568 2.87701 18.6822 3.47462 21.6865C4.07223 24.6909 5.54731 27.4506 7.71335 29.6166C9.87938 31.7827 12.6391 33.2577 15.6434 33.8554C18.6478 34.453 21.7619 34.1462 24.592 32.974C27.422 31.8018 29.8409 29.8166 31.5428 27.2696C33.2446 24.7227 34.153 21.7282 34.153 18.665C34.1486 14.5586 32.5155 10.6217 29.6119 7.71811C26.7082 4.81449 22.7713 3.18134 18.665 3.177ZM18.665 31.7702C16.073 31.7702 13.5393 31.0016 11.3841 29.5616C9.22899 28.1215 7.54927 26.0748 6.55736 23.6801C5.56546 21.2855 5.30593 18.6504 5.8116 16.1083C6.31727 13.5661 7.56542 11.231 9.39822 9.39819C11.231 7.5654 13.5661 6.31725 16.1083 5.81158C18.6505 5.30591 21.2855 5.56544 23.6801 6.55734C26.0748 7.54924 28.1216 9.22897 29.5616 11.3841C31.0016 13.5393 31.7702 16.073 31.7702 18.665C31.7663 22.1395 30.3843 25.4706 27.9274 27.9274C25.4706 30.3843 22.1395 31.7662 18.665 31.7702ZM23.4305 21.0477H22.2391V11.5167C22.2389 11.2686 22.1612 11.0268 22.017 10.825C21.8727 10.6232 21.6691 10.4714 21.4344 10.3909C21.1998 10.3104 20.9459 10.3052 20.7081 10.3759C20.4703 10.4466 20.2606 10.5898 20.1081 10.7855L11.7684 21.5079C11.6316 21.6839 11.5469 21.8948 11.5239 22.1165C11.501 22.3383 11.5407 22.562 11.6386 22.7623C11.7365 22.9626 11.8886 23.1314 12.0777 23.2495C12.2667 23.3676 12.4852 23.4303 12.7081 23.4305H19.8564V25.8133C19.8564 26.1292 19.9819 26.4323 20.2053 26.6557C20.4288 26.8791 20.7318 27.0047 21.0478 27.0047C21.3637 27.0047 21.6668 26.8791 21.8902 26.6557C22.1136 26.4323 22.2391 26.1292 22.2391 25.8133V23.4305H23.4305C23.7465 23.4305 24.0495 23.305 24.273 23.0816C24.4964 22.8581 24.6219 22.5551 24.6219 22.2391C24.6219 21.9232 24.4964 21.6201 24.273 21.3967C24.0495 21.1733 23.7465 21.0477 23.4305 21.0477ZM19.8564 21.0477H15.1445L19.8564 14.9896V21.0477Z" fill="#30927E"/>
<path opacity="0.2" d="M33.3578 18.665C33.3578 21.4337 32.5194 24.1402 30.9484 26.4423C29.3775 28.7444 27.1447 30.5386 24.5323 31.5982C21.92 32.6577 19.0454 32.9349 16.2721 32.3948C13.4989 31.8546 10.9514 30.5214 8.95203 28.5636C6.95262 26.6059 5.591 24.1115 5.03936 21.396C4.48772 18.6805 4.77084 15.8659 5.85292 13.3079C6.93499 10.75 8.76742 8.56368 11.1185 7.02547C13.4696 5.48727 16.2336 4.66626 19.0612 4.66626C22.8529 4.66626 26.4893 6.14112 29.1705 8.7664C31.8516 11.3917 33.3578 14.9523 33.3578 18.665Z" fill="#30927E"/>
</svg>
