<svg width="100%" height="100%" viewBox="0 0 343 40" fill="none" xmlns="http://www.w3.org/2000/svg">
    <g clip-path="url(#clip0_81_962)">
        <g opacity="0.02">
            <path
                d="M60.2016 8.72579C60.451 10.8893 60.5186 62.9738 60.2796 66.4785C59.7549 66.9366 59.1418 67.5216 58.4768 68.0349C53.3284 72.0363 47.5461 74.2219 41.2235 74.9835C35.8828 75.6292 30.62 75.276 25.4092 73.9128C14.3382 71.0097 2.64892 61.1083 0.503295 44.7495C-0.296769 38.6508 -0.260403 32.5797 1.30336 26.6355C4.61272 14.0739 12.4315 6.07107 23.9701 2.04759C28.0276 0.63468 32.2409 0.248338 36.5062 0.270414C41.0261 0.292491 45.442 0.910639 49.7229 2.4836C53.5985 3.90755 57.1572 5.92757 60.2068 8.73131L60.2016 8.72579ZM55.6506 37.7622C55.3961 35.7587 55.3285 33.7056 54.861 31.7573C52.9647 23.898 48.3617 18.8038 40.8546 16.9218C38.5895 16.3533 36.2568 16.3643 33.919 16.552C25.0715 17.2695 19.4918 24.1133 17.8138 30.5541C16.4942 35.6207 16.4371 40.7039 18.0372 45.6656C20.1413 52.2003 24.3598 56.5329 30.6876 58.3818C32.9423 59.0386 35.2594 59.2373 37.5972 59.0883C45.9096 58.5695 52.4763 53.0006 54.6791 44.5839C55.261 42.3597 55.5415 40.0913 55.6454 37.7567L55.6506 37.7622Z"
                fill="white" />
            <path
                d="M124.987 5.38906C124.031 6.40459 123.168 7.35389 122.275 8.26455C117.37 13.2649 114.378 19.3857 113.277 26.4502C112.097 33.9839 112.118 41.5617 113.583 49.0733C114.897 55.8123 117.838 61.646 122.467 66.4919C122.644 66.6795 122.794 66.9003 122.997 67.0493C125.548 68.8927 125.07 71.5143 124.758 74.1359C124.4 74.2353 124.166 74.3512 123.937 74.3512C119.786 74.3622 115.635 74.3567 111.515 74.3567C110.58 73.7606 110.133 72.7837 109.557 71.9393C100.169 58.1414 90.7968 44.3324 81.4194 30.5289C80.8895 29.7452 80.344 28.9725 79.8505 28.2605C79.118 28.3433 79.1699 28.8345 79.1595 29.2485C79.1387 30.0432 79.1439 30.838 79.1439 31.6327C79.1439 44.7794 79.1439 57.9261 79.1439 71.0673C79.1439 72.0221 79.0972 72.9714 79.0712 74.0366C76.458 74.5554 73.9799 74.2463 71.5225 74.285C69.0548 74.3236 66.5819 74.4009 64.0726 74.1966C63.9739 73.6778 63.8544 73.3467 63.8544 73.0155C63.844 49.2886 63.844 25.5561 63.844 1.76848C64.2129 1.60843 64.5038 1.3711 64.7947 1.3711C69.6055 1.34902 74.4163 1.35454 79.3206 1.35454C79.9336 2.2045 80.5518 3.01582 81.1337 3.86577C89.9032 16.7255 98.6624 29.5851 107.442 42.4338C107.951 43.1844 108.3 44.1337 109.37 44.6304C109.474 44.2165 109.609 43.9129 109.619 43.6038C109.655 42.8091 109.645 42.0143 109.645 41.2251C109.645 29.1381 109.645 17.0511 109.645 4.96409C109.645 3.91544 109.645 2.86128 109.645 1.72433C110.154 1.56979 110.533 1.36006 110.908 1.35454C115.225 1.33247 119.542 1.3435 123.859 1.35454C124.098 1.35454 124.337 1.47045 124.628 1.54219C125.278 2.78953 124.768 4.11965 124.987 5.39458V5.38906Z"
                fill="white" />
            <path
                d="M168.044 1.44189C169.089 1.3867 169.821 1.31495 170.559 1.31495C178.528 1.30943 186.493 1.31495 194.462 1.31495C197.548 1.31495 200.598 1.58539 203.554 2.57884C206.099 3.43432 208.515 4.57679 210.5 6.46986C210.785 8.51196 210.879 35.8595 210.614 39.8609C209.362 41.5222 207.435 42.2893 205.746 43.6194C205.985 44.1162 206.157 44.6019 206.427 45.0103C207.585 46.7323 208.765 48.4377 209.965 50.1266C210.484 50.8606 210.744 51.6278 210.739 52.5605C210.713 58.731 210.728 64.9069 210.718 71.0774C210.718 71.403 210.624 71.7286 210.547 72.2529C210.048 72.0984 209.658 72.0211 209.31 71.8611C207.232 70.8897 205.445 69.4713 203.813 67.8155C201.517 65.4864 199.631 62.8041 197.948 59.9617C195.828 56.3798 193.719 52.7923 191.6 49.2104C191.158 48.4653 190.701 47.7368 190.238 46.9806C188.217 46.8371 186.259 46.6992 184.285 47.0579C183.853 48.09 184.004 49.0724 183.999 50.0217C183.983 57.0752 183.999 64.1287 183.983 71.1877C183.983 72.137 184.108 73.1139 183.781 73.9473C183.526 74.0853 183.381 74.2288 183.235 74.2288C178.674 74.2619 174.107 74.284 169.546 74.3006C169.146 74.3006 168.746 74.2288 168.195 74.1791C168.117 73.5996 168.018 73.1029 167.987 72.6062C167.951 71.9935 167.972 71.3699 167.972 70.7572C167.972 48.802 167.972 26.8411 167.972 4.88586C167.972 3.84274 168.013 2.79409 168.039 1.46397L168.044 1.44189ZM184.264 33.3483C184.794 33.4366 185.194 33.5525 185.594 33.558C187.584 33.5801 189.573 33.6077 191.558 33.558C192.545 33.5304 193.553 33.42 194.514 33.1772C197.267 32.4817 199.32 30.826 200.286 27.9229C200.759 26.5045 200.956 25.0143 200.842 23.502C200.421 17.9994 197.361 15.7973 193.33 15.1681C193.002 15.1184 192.67 15.1129 192.337 15.1129C190.015 15.1074 187.698 15.0963 185.376 15.1129C184.991 15.1129 184.607 15.2564 184.279 15.3226C183.905 17.6462 183.885 30.8039 184.264 33.3538V33.3483Z"
                fill="white" />
            <path
                d="M214.167 74.0639C214.1 73.4126 214.017 72.9049 214.006 72.3916C213.721 60.9007 213.887 4.38428 214.23 1.59158C214.635 1.50879 215.097 1.40393 215.56 1.32114C215.721 1.29354 215.892 1.3101 216.058 1.3101C229.841 1.3101 243.624 1.3101 257.407 1.31562C257.896 1.31562 258.389 1.40393 259.07 1.47016C258.924 1.95033 258.903 2.40842 258.68 2.67886C258.083 3.40739 257.407 4.06969 256.742 4.73199C254.004 7.45847 252.191 10.7645 251.272 14.6279C251.173 15.0473 251.064 15.4668 250.918 16.0408C250.176 16.0905 249.448 16.1788 248.721 16.1788C243.489 16.1898 238.258 16.1788 233.031 16.1898C232.216 16.1898 231.4 16.2505 230.47 16.2836C229.904 18.7121 230.215 21.0853 230.189 23.4199C230.163 25.6883 230.034 27.9677 230.293 30.192C231.223 30.7218 232.07 30.5507 232.875 30.5507C238.19 30.5673 243.505 30.5507 248.814 30.5617C249.635 30.5617 250.456 30.6169 251.308 30.65C251.485 31.0364 251.651 31.3344 251.765 31.649C252.648 34.0775 253.916 36.252 255.792 37.9298C257.002 39.0116 257.433 40.27 257.277 41.8816C257.194 42.7426 257.21 43.6201 257.184 44.459C256.264 45.1544 255.324 44.9282 254.441 44.9282C247.386 44.9502 240.325 44.9392 233.27 44.9447C232.371 44.9447 231.467 45.0109 230.454 45.0551C229.888 47.4339 230.241 49.7133 230.179 51.9651C230.117 54.2445 230.163 56.5295 230.163 58.6764C231.041 59.4933 231.904 59.2394 232.704 59.2449C238.102 59.267 243.5 59.2449 248.892 59.267C249.692 59.267 250.524 59.1014 251.459 59.554C251.256 60.1114 251.116 60.5971 250.908 61.0442C250.321 62.308 249.687 63.5499 249.105 64.8193C248.856 65.3657 248.601 65.9452 248.503 66.5357C248.108 68.8262 248.643 70.7027 250.7 71.8949C251.703 72.4744 252.659 73.1532 253.656 73.799C253.469 74.0198 253.376 74.2295 253.272 74.235C249.604 74.4613 216.22 74.3288 214.167 74.0639Z"
                fill="white" />
            <path
                d="M251.994 67.9365C252.841 65.4694 257.444 56.0316 258.711 54.2103C259.324 54.5801 259.969 54.9333 260.587 55.3417C264.156 57.6874 267.98 59.3983 272.146 59.9613C274.437 60.2704 276.78 60.1986 279.097 60.1379C279.975 60.1158 280.874 59.7184 281.721 59.3707C285.659 57.7426 286.205 51.7101 282.755 49.1934C281.872 48.5476 280.916 47.9791 279.934 47.5211C277.508 46.3841 275.056 45.3023 272.588 44.2537C269.653 43.0119 266.738 41.7149 264.068 39.9212C262.255 38.7014 260.509 37.3271 258.867 35.8535C256.789 33.9825 255.48 31.521 254.768 28.7338C253.49 23.7334 253.662 18.7661 255.345 13.9093C256.94 9.32835 259.958 6.01133 263.917 3.62704C267.148 1.68429 270.65 0.624612 274.339 0.403845C277.819 0.194116 281.311 0.0947706 284.838 1.09926C284.926 1.47456 285.103 1.8885 285.108 2.29692C285.124 7.05997 285.114 11.823 285.108 16.5861C285.108 16.7572 285.03 16.9227 284.942 17.2704C284.506 17.0828 284.064 16.9559 283.674 16.7185C281.435 15.3553 279.014 14.9358 276.474 15.118C275.123 15.2118 273.855 15.6202 272.707 16.3598C269.751 18.2639 269.388 22.2046 271.98 24.6496C272.713 25.3395 273.591 25.919 274.489 26.344C276.91 27.4864 279.388 28.5075 281.83 29.6003C284.506 30.798 287.197 31.9459 289.826 33.2485C291.935 34.2916 293.842 35.7211 295.634 37.3106C298.346 39.7225 300.055 42.7856 300.829 46.4227C301.686 50.4407 301.645 54.4752 300.73 58.4877C299.561 63.6095 296.86 67.5943 292.782 70.5526C289.566 72.8872 285.966 74.2283 282.147 74.7913C272.681 76.1821 263.616 74.7637 255.09 70.0393C253.999 69.4322 252.862 68.8692 251.989 67.9365H251.994Z"
                fill="white" />
            <path
                d="M164.356 73.7922C163.187 74.6256 161.805 74.6035 160.522 74.7856C154.131 75.6963 147.757 75.5362 141.491 73.8253C132.41 71.3417 125.23 66.0377 120.446 57.3395C118.238 53.3271 116.991 48.9448 116.362 44.375C115.609 38.9275 115.604 33.4801 116.638 28.0547C119.287 14.1354 127.319 5.43716 139.964 1.61237C147.113 -0.551148 154.412 -0.286227 161.587 1.95456C162.532 2.24708 163.441 2.67205 164.475 3.07495C164.657 6.40854 164.563 9.65933 164.553 12.9101C164.543 16.1333 164.709 19.3676 164.434 22.5742C163.561 22.6515 163.332 21.9671 162.943 21.5752C157.685 16.2989 151.513 15.0571 144.718 17.0937C139.839 18.5507 136.681 22.2099 134.603 26.973C133.075 30.4832 132.561 34.2417 132.784 38.0665C132.909 40.1638 133.153 42.3163 133.745 44.3087C136.036 52.0025 140.967 56.8262 148.38 58.6034C152.895 59.6852 157.446 59.5085 161.95 58.3495C162.672 58.1674 163.389 57.9797 164.252 57.7534C164.366 58.1287 164.532 58.4323 164.532 58.7303C164.543 63.4934 164.538 68.2564 164.522 73.014C164.522 73.2679 164.413 73.5217 164.356 73.7867V73.7922Z"
                fill="white" />
            <path
                d="M290.034 16.1278C289.608 13.3682 289.639 3.64896 290.034 1.60135C290.241 1.52408 290.465 1.36402 290.693 1.36402C307.708 1.34194 324.722 1.33643 341.737 1.33643C342.048 1.33643 342.36 1.45785 342.796 1.55167C343.134 3.15775 342.942 4.74176 342.973 6.30368C343.004 7.88769 342.989 9.47721 342.973 11.0667C342.963 12.6397 342.926 14.2071 342.9 15.9236C342.111 16.0009 341.472 16.1168 340.833 16.1223C336.349 16.1389 331.871 16.1333 327.387 16.1333C326.561 16.1333 325.74 16.1333 324.821 16.1333C324.681 16.7625 324.514 17.2482 324.478 17.7449C324.426 18.5342 324.457 19.3289 324.457 20.1237C324.457 37.0565 324.457 53.9839 324.452 70.9167C324.452 71.9543 324.587 73.014 324.275 73.9412C324.01 74.0847 323.865 74.2227 323.719 74.2282C319.075 74.2613 314.425 74.2779 309.781 74.2889C309.464 74.2889 309.142 74.2006 308.685 74.1344C308.596 73.5935 308.471 73.0968 308.446 72.6C308.404 71.7225 308.425 70.8394 308.425 69.9564C308.425 53.1118 308.425 36.2728 308.414 19.4283C308.414 18.3962 308.591 17.3144 308.03 16.1996C305.048 16.0726 302.066 16.1554 299.089 16.1444C296.107 16.1278 293.12 16.1444 290.023 16.1444L290.034 16.1278Z"
                fill="white" />
        </g>
    </g>
    <defs>
        <clipPath id="clip0_81_962">
            <rect width="100%" height="100%" fill="white" />
        </clipPath>
    </defs>
</svg>
