<svg width="34" height="34" viewBox="0 0 34 34" fill="none" xmlns="http://www.w3.org/2000/svg">
<path d="M28.1301 5.99204H17.6489V3.89578C17.6489 3.6178 17.5385 3.35121 17.3419 3.15465C17.1453 2.95808 16.8787 2.84766 16.6007 2.84766C16.3228 2.84766 16.0562 2.95808 15.8596 3.15465C15.663 3.35121 15.5526 3.6178 15.5526 3.89578V5.99204H5.07135C4.51539 5.99204 3.9822 6.21289 3.58908 6.60602C3.19595 6.99914 2.9751 7.53233 2.9751 8.08829V23.8102C2.9751 24.3662 3.19595 24.8993 3.58908 25.2925C3.9822 25.6856 4.51539 25.9065 5.07135 25.9065H10.2281L7.39688 29.4439C7.22315 29.6611 7.1428 29.9383 7.17351 30.2148C7.20422 30.4912 7.34348 30.7441 7.56065 30.9178C7.77783 31.0915 8.05512 31.1719 8.33154 31.1412C8.60795 31.1105 8.86084 30.9712 9.03458 30.754L12.9113 25.9065H20.2902L24.1669 30.754C24.2529 30.8616 24.3593 30.9511 24.4799 31.0175C24.6006 31.084 24.7331 31.126 24.87 31.1412C25.0068 31.1564 25.1454 31.1445 25.2776 31.1062C25.4099 31.0678 25.5333 31.0038 25.6408 30.9178C25.7484 30.8318 25.8379 30.7254 25.9043 30.6048C25.9708 30.4842 26.0128 30.3516 26.028 30.2148C26.0432 30.0779 26.0313 29.9394 25.993 29.8071C25.9546 29.6748 25.8906 29.5514 25.8046 29.4439L22.9734 25.9065H28.1301C28.6861 25.9065 29.2193 25.6856 29.6124 25.2925C30.0055 24.8993 30.2264 24.3662 30.2264 23.8102V8.08829C30.2264 7.53233 30.0055 6.99914 29.6124 6.60602C29.2193 6.21289 28.6861 5.99204 28.1301 5.99204ZM28.1301 23.8102H5.07135V8.08829H28.1301V23.8102ZM13.4564 16.4733V19.6177C13.4564 19.8957 13.3459 20.1623 13.1494 20.3588C12.9528 20.5554 12.6862 20.6658 12.4082 20.6658C12.1303 20.6658 11.8637 20.5554 11.6671 20.3588C11.4705 20.1623 11.3601 19.8957 11.3601 19.6177V16.4733C11.3601 16.1953 11.4705 15.9287 11.6671 15.7322C11.8637 15.5356 12.1303 15.4252 12.4082 15.4252C12.6862 15.4252 12.9528 15.5356 13.1494 15.7322C13.3459 15.9287 13.4564 16.1953 13.4564 16.4733ZM17.6489 14.3771V19.6177C17.6489 19.8957 17.5385 20.1623 17.3419 20.3588C17.1453 20.5554 16.8787 20.6658 16.6007 20.6658C16.3228 20.6658 16.0562 20.5554 15.8596 20.3588C15.663 20.1623 15.5526 19.8957 15.5526 19.6177V14.3771C15.5526 14.0991 15.663 13.8325 15.8596 13.6359C16.0562 13.4394 16.3228 13.3289 16.6007 13.3289C16.8787 13.3289 17.1453 13.4394 17.3419 13.6359C17.5385 13.8325 17.6489 14.0991 17.6489 14.3771ZM21.8414 12.2808V19.6177C21.8414 19.8957 21.731 20.1623 21.5344 20.3588C21.3378 20.5554 21.0712 20.6658 20.7933 20.6658C20.5153 20.6658 20.2487 20.5554 20.0521 20.3588C19.8556 20.1623 19.7451 19.8957 19.7451 19.6177V12.2808C19.7451 12.0028 19.8556 11.7362 20.0521 11.5397C20.2487 11.3431 20.5153 11.2327 20.7933 11.2327C21.0712 11.2327 21.3378 11.3431 21.5344 11.5397C21.731 11.7362 21.8414 12.0028 21.8414 12.2808Z" fill="white"/>
<path opacity="0.2" d="M29.5286 7.46617V23.3521C29.5286 23.633 29.4182 23.9023 29.2216 24.101C29.025 24.2996 28.7584 24.4111 28.4805 24.4111H5.42166C5.14368 24.4111 4.87709 24.2996 4.68052 24.101C4.48396 23.9023 4.37354 23.633 4.37354 23.3521V7.46617C4.37354 7.18529 4.48396 6.91591 4.68052 6.7173C4.87709 6.51868 5.14368 6.4071 5.42166 6.4071H28.4805C28.7584 6.4071 29.025 6.51868 29.2216 6.7173C29.4182 6.91591 29.5286 7.18529 29.5286 7.46617Z" fill="white"/>
</svg>
