<svg width="77" height="48" viewBox="0 0 77 48" fill="none" xmlns="http://www.w3.org/2000/svg">
    <path
        d="M0.000162601 5.33337C0.000162601 8.27889 2.38798 10.6667 5.3335 10.6667C8.27901 10.6667 10.6668 8.27889 10.6668 5.33337C10.6668 2.38786 8.27901 4.05312e-05 5.3335 4.05312e-05C2.38798 4.05312e-05 0.000162601 2.38786 0.000162601 5.33337ZM68.6264 47.0405C69.0169 47.431 69.6501 47.431 70.0406 47.0405L76.4046 40.6765C76.7951 40.286 76.7951 39.6528 76.4046 39.2623C76.014 38.8718 75.3809 38.8718 74.9903 39.2623L69.3335 44.9192L63.6766 39.2623C63.2861 38.8718 62.653 38.8718 62.2624 39.2623C61.8719 39.6528 61.8719 40.286 62.2624 40.6765L68.6264 47.0405ZM5.3335 5.33337H4.3335V7.39675H5.3335H6.3335V5.33337H5.3335ZM5.3335 11.5235H4.3335V13.5869H5.3335H6.3335V11.5235H5.3335ZM5.3335 13.5869H4.3335C4.3335 14.3385 4.38234 15.0793 4.47713 15.806L5.46873 15.6766L6.46033 15.5473C6.3767 14.9061 6.3335 14.2518 6.3335 13.5869H5.3335ZM6.54758 19.7115L5.62386 20.0946C6.1972 21.4772 6.94748 22.7673 7.84619 23.9368L8.63911 23.3274L9.43202 22.7181C8.6386 21.6856 7.97678 20.5474 7.47131 19.3284L6.54758 19.7115ZM11.593 26.2813L10.9836 27.0742C12.1531 27.9729 13.4432 28.7232 14.8258 29.2965L15.2089 28.3728L15.5919 27.4491C14.373 26.9436 13.2348 26.2818 12.2023 25.4884L11.593 26.2813ZM19.2437 29.4517L19.1144 30.4433C19.8411 30.5381 20.5819 30.5869 21.3335 30.5869V29.5869V28.5869C20.6686 28.5869 20.0143 28.5437 19.3731 28.4601L19.2437 29.4517ZM21.3335 29.5869V30.5869H23.3335V29.5869V28.5869H21.3335V29.5869ZM27.3335 29.5869V30.5869H31.3335V29.5869V28.5869H27.3335V29.5869ZM35.3335 29.5869V30.5869H39.3335V29.5869V28.5869H35.3335V29.5869ZM43.3335 29.5869V30.5869H47.3335V29.5869V28.5869H43.3335V29.5869ZM51.3335 29.5869V30.5869H53.3335V29.5869V28.5869H51.3335V29.5869ZM53.3335 29.5869V30.5869C53.9984 30.5869 54.6527 30.6301 55.2939 30.7137L55.4232 29.7221L55.5526 28.7305C54.8259 28.6357 54.0851 28.5869 53.3335 28.5869V29.5869ZM59.4581 30.801L59.0751 31.7247C60.294 32.2302 61.4322 32.892 62.4647 33.6854L63.074 32.8925L63.6834 32.0996C62.5139 31.2009 61.2238 30.4506 59.8412 29.8773L59.4581 30.801ZM66.0279 35.8463L65.235 36.4557C66.0284 37.4882 66.6902 38.6264 67.1957 39.8453L68.1194 39.4623L69.0431 39.0792C68.4698 37.6966 67.7195 36.4065 66.8208 35.237L66.0279 35.8463ZM69.1983 43.4971L68.2067 43.6265C68.2903 44.2677 68.3335 44.922 68.3335 45.5869H69.3335H70.3335C70.3335 44.8353 70.2847 44.0945 70.1899 43.3678L69.1983 43.4971ZM69.3335 45.5869H68.3335V45.7735H69.3335H70.3335V45.5869H69.3335ZM69.3335 46.1468H68.3335V46.3334H69.3335H70.3335V46.1468H69.3335Z"
        fill="white" />
</svg>
