<svg width="28" height="28" viewBox="0 0 32 32" fill="none" xmlns="http://www.w3.org/2000/svg">
    <g opacity="0.2">
        <path
            d="M30.0008 16C30.004 16.4101 29.8793 16.8111 29.6441 17.1471C29.4089 17.4832 29.0748 17.7376 28.6883 17.875L20.7583 20.7587L17.8758 28.6875C17.7337 29.0702 17.4779 29.4003 17.1427 29.6335C16.8076 29.8666 16.4091 29.9915 16.0008 29.9915C15.5925 29.9915 15.194 29.8666 14.8589 29.6335C14.5237 29.4003 14.2679 29.0702 14.1258 28.6875L11.2433 20.7575L3.31331 17.875C2.93055 17.7329 2.60045 17.4771 2.36734 17.1419C2.13423 16.8067 2.00928 16.4083 2.00928 16C2.00928 15.5917 2.13423 15.1932 2.36734 14.858C2.60045 14.5229 2.93055 14.2671 3.31331 14.125L11.2433 11.2425L14.1258 3.31248C14.2679 2.92973 14.5237 2.59962 14.8589 2.36651C15.194 2.1334 15.5925 2.00845 16.0008 2.00845C16.4091 2.00845 16.8076 2.1334 17.1427 2.36651C17.4779 2.59962 17.7337 2.92973 17.8758 3.31248L20.7596 11.2425L28.6883 14.125C29.0748 14.2624 29.4089 14.5168 29.6441 14.8528C29.8793 15.1889 30.004 15.5898 30.0008 16Z"
            fill="white" />
    </g>
</svg>
