<svg width="21" height="19" viewBox="0 0 21 19" fill="none" xmlns="http://www.w3.org/2000/svg">
<path d="M7.69737 8.4671C7.69737 8.26296 7.77847 8.06717 7.92282 7.92282C8.06717 7.77847 8.26296 7.69737 8.46711 7.69737H11.5461C11.7502 7.69737 11.946 7.77847 12.0903 7.92282C12.2347 8.06717 12.3158 8.26296 12.3158 8.4671C12.3158 8.67125 12.2347 8.86704 12.0903 9.01139C11.946 9.15574 11.7502 9.23684 11.5461 9.23684H8.46711C8.26296 9.23684 8.06717 9.15574 7.92282 9.01139C7.77847 8.86704 7.69737 8.67125 7.69737 8.4671ZM20.0132 4.61842V16.9342C20.0132 17.3425 19.851 17.7341 19.5623 18.0228C19.2736 18.3115 18.882 18.4737 18.4737 18.4737H1.53947C1.13118 18.4737 0.739609 18.3115 0.450901 18.0228C0.162194 17.7341 0 17.3425 0 16.9342V4.61842C0 4.21013 0.162194 3.81856 0.450901 3.52985C0.739609 3.24114 1.13118 3.07895 1.53947 3.07895H5.38816V2.30921C5.38816 1.69677 5.63145 1.10941 6.06451 0.676352C6.49757 0.243291 7.08493 0 7.69737 0H12.3158C12.9282 0 13.5156 0.243291 13.9486 0.676352C14.3817 1.10941 14.625 1.69677 14.625 2.30921V3.07895H18.4737C18.882 3.07895 19.2736 3.24114 19.5623 3.52985C19.851 3.81856 20.0132 4.21013 20.0132 4.61842ZM6.92763 3.07895H13.0855V2.30921C13.0855 2.10506 13.0044 1.90928 12.8601 1.76492C12.7157 1.62057 12.5199 1.53947 12.3158 1.53947H7.69737C7.49322 1.53947 7.29744 1.62057 7.15308 1.76492C7.00873 1.90928 6.92763 2.10506 6.92763 2.30921V3.07895ZM1.53947 4.61842V8.62298C4.13774 10.0366 7.04868 10.7769 10.0066 10.7763C12.9646 10.7768 15.8756 10.0362 18.4737 8.62201V4.61842H1.53947ZM18.4737 16.9342V10.3558C15.8374 11.6455 12.9414 12.3159 10.0066 12.3158C7.07183 12.3164 4.17575 11.6463 1.53947 10.3568V16.9342H18.4737Z" fill="#30927E"/>
</svg>
