<svg width="24" height="24" viewBox="0 0 24 24" fill="none" xmlns="http://www.w3.org/2000/svg">
<path opacity="0.2" d="M16.5 12C16.5 12.89 16.2361 13.76 15.7416 14.5001C15.2471 15.2401 14.5443 15.8169 13.7221 16.1575C12.8998 16.4981 11.995 16.5872 11.1221 16.4135C10.2492 16.2399 9.44736 15.8113 8.81802 15.182C8.18869 14.5526 7.7601 13.7508 7.58647 12.8779C7.41283 12.005 7.50195 11.1002 7.84254 10.2779C8.18314 9.45566 8.75991 8.75285 9.49994 8.25839C10.24 7.76392 11.11 7.5 12 7.5C13.1935 7.5 14.3381 7.97411 15.182 8.81802C16.0259 9.66193 16.5 10.8065 16.5 12Z" fill="#FFB400"/>
<path d="M20.8004 7.79614C21.8412 9.97282 22.0387 12.4579 21.355 14.7717C20.6713 17.0855 19.1547 19.064 17.098 20.3253C15.0413 21.5867 12.5902 22.0416 10.2179 21.602C7.84557 21.1625 5.72013 19.8598 4.25179 17.9454C2.78344 16.0309 2.0763 13.6405 2.26682 11.2353C2.45735 8.83012 3.53204 6.58078 5.28348 4.92139C7.03492 3.26199 9.33895 2.31018 11.7509 2.24966C14.1628 2.18913 16.5117 3.02418 18.3442 4.59363L20.4695 2.46738C20.6102 2.32665 20.8011 2.24759 21.0001 2.24759C21.1991 2.24759 21.39 2.32665 21.5307 2.46738C21.6715 2.60812 21.7505 2.79899 21.7505 2.99801C21.7505 3.19703 21.6715 3.3879 21.5307 3.52863L12.5307 12.5286C12.39 12.6694 12.1991 12.7484 12.0001 12.7484C11.8011 12.7484 11.6102 12.6694 11.4695 12.5286C11.3288 12.3879 11.2497 12.197 11.2497 11.998C11.2497 11.799 11.3288 11.6081 11.4695 11.4674L14.0682 8.86864C13.3639 8.40284 12.5231 8.18838 11.6817 8.25996C10.8404 8.33154 10.0478 8.68498 9.43231 9.26306C8.81683 9.84114 8.41446 10.61 8.29034 11.4452C8.16622 12.2805 8.32762 13.1331 8.7484 13.8652C9.16919 14.5973 9.82473 15.1659 10.6089 15.4791C11.3931 15.7922 12.26 15.8315 13.0693 15.5907C13.8786 15.3498 14.5829 14.8428 15.0683 14.1519C15.5536 13.4609 15.7915 12.6263 15.7435 11.7833C15.738 11.6848 15.7519 11.5862 15.7845 11.4931C15.8171 11.4 15.8677 11.3142 15.9334 11.2406C15.9991 11.1671 16.0787 11.1072 16.1676 11.0644C16.2564 11.0216 16.3529 10.9967 16.4514 10.9911C16.6503 10.9799 16.8455 11.0482 16.994 11.181C17.0676 11.2467 17.1275 11.3263 17.1703 11.4151C17.2131 11.504 17.238 11.6005 17.2435 11.6989C17.3119 12.8922 16.9711 14.073 16.2774 15.0463C15.5838 16.0196 14.5788 16.7271 13.4285 17.0518C12.2783 17.3765 11.0517 17.2991 9.95148 16.8322C8.85123 16.3654 7.94322 15.5371 7.3775 14.4843C6.81178 13.4315 6.62223 12.2171 6.84017 11.042C7.05811 9.86682 7.67049 8.80121 8.57611 8.02125C9.48173 7.2413 10.6264 6.7937 11.8208 6.75243C13.0153 6.71115 14.1881 7.07868 15.1454 7.79426L17.2782 5.66145C15.7152 4.36376 13.7279 3.68929 11.6979 3.76758C9.66793 3.84587 7.73844 4.67141 6.28003 6.08563C4.82163 7.49986 3.93715 9.40304 3.79646 11.4297C3.65578 13.4563 4.26881 15.4634 5.51782 17.0656C6.76683 18.6678 8.56375 19.752 10.5634 20.11C12.5631 20.468 14.6246 20.0746 16.3519 19.0053C18.0792 17.9361 19.3506 16.2663 19.9218 14.3168C20.493 12.3672 20.3238 10.2754 19.4467 8.44301C19.3609 8.26349 19.3499 8.05725 19.4162 7.86965C19.4825 7.68206 19.6206 7.52848 19.8001 7.4427C19.9796 7.35692 20.1859 7.34596 20.3735 7.41224C20.5611 7.47853 20.7146 7.61662 20.8004 7.79614Z" fill="#FFB400"/>
</svg>
