<svg width="36" height="34" viewBox="0 0 36 34" fill="none" xmlns="http://www.w3.org/2000/svg">
<g clip-path="url(#clip0_213_776)">
<path d="M34.78 19.2227C34.6644 19.3094 34.5329 19.3725 34.3929 19.4084C34.2529 19.4442 34.1072 19.4522 33.9641 19.4317C33.8211 19.4113 33.6834 19.3629 33.5591 19.2893C33.4347 19.2156 33.3261 19.1182 33.2394 19.0026C32.5761 18.111 31.7127 17.3877 30.7188 16.8907C29.7249 16.3937 28.6281 16.1371 27.5169 16.1414C27.225 16.1414 26.9451 16.0254 26.7388 15.8191C26.5324 15.6127 26.4164 15.3328 26.4164 15.0409C26.4164 14.749 26.5324 14.4691 26.7388 14.2628C26.9451 14.0564 27.225 13.9404 27.5169 13.9404C28.1344 13.9404 28.7394 13.7672 29.2634 13.4405C29.7874 13.1138 30.2092 12.6467 30.481 12.0922C30.7528 11.5378 30.8637 10.9183 30.801 10.304C30.7383 9.68972 30.5047 9.10532 30.1265 8.61719C29.7484 8.12906 29.2409 7.75675 28.6618 7.54257C28.0827 7.32838 27.4551 7.2809 26.8503 7.40551C26.2456 7.53013 25.6879 7.82184 25.2406 8.24752C24.7933 8.6732 24.4744 9.21579 24.32 9.81365C24.2839 9.95365 24.2205 10.0852 24.1336 10.2007C24.0466 10.3162 23.9378 10.4135 23.8132 10.4869C23.6887 10.5604 23.5509 10.6086 23.4077 10.6287C23.2646 10.6489 23.1188 10.6407 22.9788 10.6046C22.8388 10.5685 22.7073 10.5051 22.5918 10.4182C22.4763 10.3312 22.379 10.2224 22.3056 10.0978C22.2321 9.97329 22.1839 9.83549 22.1637 9.69233C22.1435 9.54916 22.1517 9.40341 22.1879 9.26341C22.4021 8.43436 22.8069 7.66676 23.37 7.02168C23.9331 6.3766 24.6391 5.87185 25.4316 5.54759C26.2241 5.22333 27.0814 5.08851 27.9351 5.15387C28.7889 5.21922 29.6157 5.48294 30.3496 5.92404C31.0836 6.36513 31.7044 6.97144 32.1628 7.69471C32.6212 8.41798 32.9044 9.23825 32.99 10.0902C33.0756 10.9423 32.9612 11.8025 32.6558 12.6025C32.3504 13.4024 31.8626 14.1201 31.231 14.6984C32.7274 15.3463 34.0282 16.3744 35.0043 17.6807C35.091 17.7966 35.154 17.9285 35.1896 18.0687C35.2253 18.209 35.2329 18.355 35.2121 18.4982C35.1913 18.6415 35.1424 18.7792 35.0682 18.9035C34.9941 19.0278 34.8962 19.1363 34.78 19.2227ZM27.3683 27.6964C27.4452 27.8216 27.4961 27.961 27.5182 28.1063C27.5403 28.2516 27.5331 28.3998 27.4969 28.5423C27.4608 28.6847 27.3965 28.8185 27.3078 28.9357C27.2192 29.0529 27.1079 29.1511 26.9807 29.2246C26.8534 29.2981 26.7127 29.3454 26.5669 29.3636C26.4211 29.3819 26.2731 29.3708 26.1317 29.3309C25.9902 29.291 25.8582 29.2232 25.7434 29.1315C25.6286 29.0398 25.5333 28.926 25.4631 28.7968C24.7698 27.6233 23.7826 26.6508 22.5987 25.9752C21.4149 25.2996 20.0754 24.9443 18.7124 24.9443C17.3494 24.9443 16.0099 25.2996 14.8261 25.9752C13.6423 26.6508 12.655 27.6233 11.9617 28.7968C11.8929 28.9284 11.7982 29.0446 11.6833 29.1386C11.5684 29.2325 11.4357 29.3023 11.2932 29.3436C11.1507 29.385 11.0012 29.3971 10.8539 29.3792C10.7065 29.3613 10.5644 29.3138 10.4359 29.2395C10.3074 29.1652 10.1952 29.0657 10.1062 28.947C10.0171 28.8282 9.95301 28.6927 9.9177 28.5486C9.88239 28.4044 9.87661 28.2546 9.9007 28.1081C9.92478 27.9617 9.97825 27.8216 10.0579 27.6964C11.1248 25.8632 12.7516 24.4206 14.6991 23.5806C13.6032 22.7415 12.7978 21.5801 12.3961 20.2597C11.9944 18.9392 12.0166 17.526 12.4595 16.2188C12.9025 14.9116 13.744 13.7761 14.8657 12.9718C15.9874 12.1676 17.3329 11.7351 18.7131 11.7351C20.0933 11.7351 21.4389 12.1676 22.5605 12.9718C23.6822 13.7761 24.5237 14.9116 24.9667 16.2188C25.4096 17.526 25.4318 18.9392 25.0301 20.2597C24.6284 21.5801 23.823 22.7415 22.7271 23.5806C24.6747 24.4206 26.3014 25.8632 27.3683 27.6964ZM18.7131 22.7442C19.5837 22.7442 20.4348 22.4861 21.1587 22.0024C21.8826 21.5187 22.4468 20.8312 22.7799 20.0269C23.1131 19.2225 23.2003 18.3374 23.0304 17.4836C22.8606 16.6297 22.4413 15.8453 21.8257 15.2297C21.2101 14.6141 20.4258 14.1949 19.5719 14.025C18.718 13.8552 17.8329 13.9423 17.0286 14.2755C16.2242 14.6087 15.5367 15.1729 15.0531 15.8968C14.5694 16.6207 14.3112 17.4717 14.3112 18.3423C14.3112 19.5098 14.775 20.6294 15.6005 21.4549C16.426 22.2805 17.5457 22.7442 18.7131 22.7442ZM11.0098 15.0409C11.0098 14.749 10.8938 14.4691 10.6875 14.2628C10.4811 14.0564 10.2012 13.9404 9.90931 13.9404C9.29184 13.9404 8.68677 13.7672 8.16281 13.4405C7.63886 13.1138 7.21702 12.6467 6.94522 12.0922C6.67342 11.5378 6.56256 10.9183 6.62521 10.304C6.68787 9.68972 6.92154 9.10532 7.29968 8.61719C7.67782 8.12906 8.18527 7.75675 8.7644 7.54257C9.34353 7.32838 9.97111 7.2809 10.5759 7.40551C11.1806 7.53013 11.7383 7.82184 12.1856 8.24752C12.6329 8.6732 12.9518 9.21579 13.1062 9.81365C13.1792 10.0964 13.3615 10.3386 13.613 10.4869C13.8645 10.6352 14.1646 10.6776 14.4474 10.6046C14.7301 10.5316 14.9723 10.3494 15.1206 10.0978C15.269 9.8463 15.3113 9.54615 15.2384 9.26341C15.0241 8.43436 14.6193 7.66676 14.0562 7.02168C13.4931 6.3766 12.7872 5.87185 11.9946 5.54759C11.2021 5.22333 10.3449 5.08851 9.49107 5.15387C8.63728 5.21922 7.81052 5.48294 7.07658 5.92404C6.34265 6.36513 5.72179 6.97144 5.26341 7.69471C4.80503 8.41798 4.52177 9.23825 4.43619 10.0902C4.35061 10.9423 4.46505 11.8025 4.77043 12.6025C5.0758 13.4024 5.56366 14.1201 6.19521 14.6984C4.70032 15.3469 3.40098 16.375 2.42608 17.6807C2.25078 17.9142 2.17541 18.2077 2.21656 18.4968C2.2577 18.7858 2.41199 19.0467 2.64549 19.222C2.87898 19.3973 3.17254 19.4727 3.4616 19.4315C3.75066 19.3904 4.01154 19.2361 4.18684 19.0026C4.85013 18.111 5.71349 17.3877 6.70742 16.8907C7.70135 16.3937 8.79807 16.1371 9.90931 16.1414C10.2012 16.1414 10.4811 16.0254 10.6875 15.8191C10.8938 15.6127 11.0098 15.3328 11.0098 15.0409Z" fill="white"/>
<path opacity="0.2" d="M23.8477 19.3285C23.8477 20.3499 23.525 21.3484 22.9204 22.1977C22.3158 23.0471 21.4564 23.709 20.451 24.0999C19.4456 24.4908 18.3392 24.5931 17.2719 24.3938C16.2045 24.1945 15.2241 23.7026 14.4546 22.9804C13.6851 22.2581 13.161 21.3379 12.9487 20.336C12.7364 19.3342 12.8454 18.2958 13.2618 17.3521C13.6783 16.4084 14.3835 15.6018 15.2884 15.0343C16.1933 14.4668 17.2571 14.1639 18.3454 14.1639C19.8047 14.1639 21.2042 14.708 22.2361 15.6766C23.268 16.6451 23.8477 17.9587 23.8477 19.3285ZM9.54155 7.96643C8.67094 7.96643 7.81987 8.20875 7.09599 8.66274C6.3721 9.11673 5.80789 9.76201 5.47473 10.517C5.14156 11.2719 5.05438 12.1027 5.22423 12.9041C5.39408 13.7056 5.81332 14.4418 6.42894 15.0196C7.04455 15.5974 7.8289 15.9909 8.68278 16.1503C9.53667 16.3098 10.4217 16.2279 11.2261 15.9152C12.0304 15.6025 12.7179 15.0729 13.2016 14.3935C13.6853 13.7141 13.9434 12.9152 13.9434 12.0981C13.9434 11.0023 13.4797 9.9514 12.6542 9.17656C11.8286 8.40173 10.709 7.96643 9.54155 7.96643ZM27.1491 7.96643C26.2785 7.96643 25.4275 8.20875 24.7036 8.66274C23.9797 9.11673 23.4155 9.76201 23.0823 10.517C22.7492 11.2719 22.662 12.1027 22.8318 12.9041C23.0017 13.7056 23.4209 14.4418 24.0365 15.0196C24.6522 15.5974 25.4365 15.9909 26.2904 16.1503C27.1443 16.3098 28.0293 16.2279 28.8337 15.9152C29.638 15.6025 30.3255 15.0729 30.8092 14.3935C31.2929 13.7141 31.5511 12.9152 31.5511 12.0981C31.5511 11.0023 31.0873 9.9514 30.2618 9.17656C29.4362 8.40173 28.3166 7.96643 27.1491 7.96643Z" fill="white"/>
</g>
<defs>
<clipPath id="clip0_213_776">
<rect width="35.2152" height="33.0532" fill="white" transform="translate(0.738281 0.735962)"/>
</clipPath>
</defs>
</svg>
