<svg width="56" height="57" viewBox="0 0 56 57" fill="none" xmlns="http://www.w3.org/2000/svg">
<rect y="0.593506" width="56" height="56" rx="8" fill="#A2D9DB" fill-opacity="0.25"/>
<g clip-path="url(#clip0_79_487)">
<path opacity="0.2" d="M30.3333 14.5935H25.6667C25.0223 14.5935 24.5 15.1158 24.5 15.7602V20.4268C24.5 21.0712 25.0223 21.5935 25.6667 21.5935H30.3333C30.9777 21.5935 31.5 21.0712 31.5 20.4268V15.7602C31.5 15.1158 30.9777 14.5935 30.3333 14.5935Z" fill="#20AFB8"/>
<path opacity="0.2" d="M21 34.4269H16.3333C15.689 34.4269 15.1666 34.9492 15.1666 35.5935V40.2602C15.1666 40.9045 15.689 41.4269 16.3333 41.4269H21C21.6443 41.4269 22.1666 40.9045 22.1666 40.2602V35.5935C22.1666 34.9492 21.6443 34.4269 21 34.4269Z" fill="#20AFB8"/>
<path opacity="0.2" d="M39.6667 34.4269H35C34.3557 34.4269 33.8334 34.9492 33.8334 35.5935V40.2602C33.8334 40.9045 34.3557 41.4269 35 41.4269H39.6667C40.311 41.4269 40.8334 40.9045 40.8334 40.2602V35.5935C40.8334 34.9492 40.311 34.4269 39.6667 34.4269Z" fill="#20AFB8"/>
<path d="M30.3333 14.5935H25.6667C25.0223 14.5935 24.5 15.1158 24.5 15.7602V20.4268C24.5 21.0712 25.0223 21.5935 25.6667 21.5935H30.3333C30.9777 21.5935 31.5 21.0712 31.5 20.4268V15.7602C31.5 15.1158 30.9777 14.5935 30.3333 14.5935Z" stroke="#20AFB8" stroke-width="2.33333" stroke-linecap="round" stroke-linejoin="round"/>
<path d="M21 34.4269H16.3333C15.689 34.4269 15.1666 34.9492 15.1666 35.5935V40.2602C15.1666 40.9045 15.689 41.4269 16.3333 41.4269H21C21.6443 41.4269 22.1666 40.9045 22.1666 40.2602V35.5935C22.1666 34.9492 21.6443 34.4269 21 34.4269Z" stroke="#20AFB8" stroke-width="2.33333" stroke-linecap="round" stroke-linejoin="round"/>
<path d="M39.6667 34.4269H35C34.3557 34.4269 33.8334 34.9492 33.8334 35.5935V40.2602C33.8334 40.9045 34.3557 41.4269 35 41.4269H39.6667C40.311 41.4269 40.8334 40.9045 40.8334 40.2602V35.5935C40.8334 34.9492 40.311 34.4269 39.6667 34.4269Z" stroke="#20AFB8" stroke-width="2.33333" stroke-linecap="round" stroke-linejoin="round"/>
<path d="M28 21.5935V27.4268" stroke="#20AFB8" stroke-width="2.33333" stroke-linecap="round" stroke-linejoin="round"/>
<path d="M37.3334 27.4269V34.4269" stroke="#20AFB8" stroke-width="2.33333" stroke-linecap="round" stroke-linejoin="round"/>
<path d="M18.6666 34.4269V27.4269" stroke="#20AFB8" stroke-width="2.33333" stroke-linecap="round" stroke-linejoin="round"/>
<path d="M12.8334 27.4269H43.1667" stroke="#20AFB8" stroke-width="2.33333" stroke-linecap="round" stroke-linejoin="round"/>
</g>
<defs>
<clipPath id="clip0_79_487">
<rect width="37.3333" height="37.3333" fill="white" transform="translate(9.33337 9.92688)"/>
</clipPath>
</defs>
</svg>
