<svg width="134" height="37" viewBox="0 0 134 37" fill="none" xmlns="http://www.w3.org/2000/svg">
<g clip-path="url(#clip0_81_926)">
<path d="M23.5227 3.16382C23.6201 3.95941 23.6465 23.1124 23.5531 24.4012C23.3481 24.5696 23.1086 24.7848 22.8488 24.9735C20.8375 26.445 18.5786 27.2487 16.1087 27.5287C14.0223 27.7662 11.9663 27.6363 9.93067 27.135C5.60566 26.0675 1.03914 22.4264 0.20093 16.4108C-0.111623 14.1681 -0.097416 11.9356 0.513483 9.74976C1.80632 5.13047 4.86081 2.1876 9.36847 0.708044C10.9536 0.188475 12.5995 0.0464057 14.2658 0.054524C16.0315 0.0626422 17.7567 0.289954 19.429 0.86838C20.9431 1.39201 22.3333 2.13483 23.5247 3.16585L23.5227 3.16382ZM21.7448 13.8414C21.6453 13.1046 21.6189 12.3496 21.4363 11.6332C20.6955 8.74309 18.8973 6.8698 15.9646 6.17772C15.0797 5.96868 14.1684 5.97274 13.2551 6.04174C9.79874 6.30558 7.61899 8.82225 6.96344 11.1907C6.44793 13.0539 6.42561 14.9231 7.05071 16.7477C7.87269 19.1507 9.52069 20.7439 11.9927 21.4238C12.8735 21.6653 13.7787 21.7384 14.692 21.6836C17.9393 21.4928 20.5047 19.445 21.3652 16.3499C21.5925 15.532 21.7021 14.6978 21.7427 13.8393L21.7448 13.8414Z" fill="white"/>
<path d="M48.8314 1.93654C48.4579 2.30998 48.121 2.65907 47.772 2.99394C45.856 4.83273 44.687 7.08352 44.2567 9.68136C43.796 12.4517 43.8041 15.2383 44.3765 18.0005C44.89 20.4786 46.0387 22.6239 47.847 24.4059C47.916 24.4749 47.9749 24.556 48.0541 24.6108C49.0506 25.2887 48.8639 26.2528 48.7421 27.2168C48.602 27.2533 48.5107 27.296 48.4214 27.296C46.7998 27.3 45.1782 27.298 43.5687 27.298C43.2034 27.0788 43.0289 26.7196 42.8036 26.409C39.1362 21.3351 35.4748 16.2572 31.8115 11.1812C31.6044 10.893 31.3913 10.6089 31.1985 10.3471C30.9124 10.3775 30.9327 10.5581 30.9286 10.7104C30.9205 11.0026 30.9225 11.2949 30.9225 11.5871C30.9225 16.4215 30.9225 21.256 30.9225 26.0884C30.9225 26.4395 30.9042 26.7886 30.8941 27.1803C29.8732 27.371 28.9051 27.2574 27.9451 27.2716C26.9811 27.2858 26.015 27.3142 25.0347 27.2391C24.9962 27.0484 24.9495 26.9266 24.9495 26.8048C24.9454 18.0797 24.9454 9.35257 24.9454 0.605147C25.0895 0.546289 25.2032 0.459018 25.3168 0.459018C27.1962 0.4509 29.0756 0.452929 30.9915 0.452929C31.231 0.765482 31.4725 1.06383 31.6998 1.37638C35.1257 6.10527 38.5476 10.8342 41.9775 15.559C42.1764 15.835 42.3124 16.1841 42.7305 16.3667C42.7711 16.2145 42.8239 16.1029 42.8279 15.9892C42.8421 15.697 42.8381 15.4047 42.8381 15.1145C42.8381 10.6698 42.8381 6.22501 42.8381 1.78026C42.8381 1.39465 42.8381 1.007 42.8381 0.58891C43.037 0.532082 43.1851 0.454959 43.3313 0.452929C45.0178 0.444811 46.7044 0.44887 48.391 0.452929C48.4843 0.452929 48.5777 0.49555 48.6913 0.521934C48.945 0.980616 48.7461 1.46974 48.8314 1.93857V1.93654Z" fill="white"/>
<path d="M65.6524 0.485082C66.0604 0.464786 66.3465 0.438402 66.6347 0.438402C69.7481 0.436372 72.8594 0.438402 75.9728 0.438402C77.1783 0.438402 78.3697 0.537851 79.5245 0.903172C80.519 1.21775 81.4627 1.63787 82.238 2.33402C82.3497 3.08495 82.3862 13.1414 82.2827 14.6129C81.7936 15.2238 81.0406 15.5059 80.381 15.995C80.4743 16.1777 80.5413 16.3563 80.6469 16.5065C81.0994 17.1397 81.5602 17.7668 82.029 18.3879C82.2319 18.6578 82.3334 18.9399 82.3314 19.2829C82.3212 21.552 82.3273 23.823 82.3233 26.0921C82.3233 26.2118 82.2867 26.3316 82.2563 26.5244C82.0615 26.4676 81.9092 26.4392 81.7733 26.3803C80.9614 26.0231 80.2633 25.5015 79.626 24.8926C78.7289 24.0362 77.9922 23.0498 77.3346 22.0046C76.5065 20.6874 75.6825 19.3682 74.8545 18.051C74.682 17.777 74.5034 17.5091 74.3227 17.231C73.5332 17.1783 72.7681 17.1275 71.9968 17.2594C71.8284 17.639 71.8873 18.0002 71.8852 18.3493C71.8791 20.9431 71.8852 23.5369 71.8791 26.1327C71.8791 26.4818 71.9278 26.841 71.8 27.1475C71.7005 27.1982 71.6437 27.251 71.5869 27.251C69.8049 27.2632 68.0209 27.2713 66.239 27.2774C66.0827 27.2774 65.9264 27.251 65.7113 27.2327C65.6808 27.0196 65.6423 26.837 65.6301 26.6543C65.6159 26.429 65.624 26.1997 65.624 25.9744C65.624 17.9008 65.624 9.82514 65.624 1.75153C65.624 1.36794 65.6403 0.982325 65.6504 0.4932L65.6524 0.485082ZM71.9887 12.218C72.1957 12.2505 72.352 12.2931 72.5083 12.2951C73.2856 12.3032 74.0629 12.3134 74.8382 12.2951C75.2239 12.285 75.6176 12.2444 75.9931 12.1551C77.0687 11.8994 77.8704 11.2905 78.2479 10.2229C78.4326 9.70134 78.5097 9.15335 78.4651 8.59725C78.3007 6.57378 77.1053 5.76398 75.5303 5.53261C75.4025 5.51434 75.2726 5.51231 75.1427 5.51231C74.2355 5.51028 73.3303 5.50623 72.4231 5.51231C72.2729 5.51231 72.1227 5.56508 71.9948 5.58944C71.8487 6.44388 71.8406 11.2824 71.9887 12.22V12.218Z" fill="white"/>
<path d="M83.6709 27.1901C83.6445 26.9506 83.612 26.7639 83.608 26.5752C83.4963 22.3496 83.5613 1.56685 83.6952 0.53989C83.8535 0.509446 84.0342 0.470884 84.2148 0.440441C84.2777 0.430293 84.3447 0.436382 84.4096 0.436382C89.7941 0.436382 95.1785 0.436382 100.563 0.438411C100.754 0.438411 100.947 0.470884 101.212 0.495239C101.156 0.671811 101.147 0.840265 101.06 0.939714C100.827 1.20762 100.563 1.45116 100.303 1.69471C99.2336 2.69732 98.5253 3.91303 98.166 5.33372C98.1275 5.48797 98.0848 5.64222 98.028 5.85329C97.7378 5.87156 97.4537 5.90403 97.1695 5.90403C95.1257 5.90809 93.082 5.90403 91.0402 5.90809C90.7216 5.90809 90.4029 5.93042 90.0397 5.94259C89.8184 6.8356 89.9402 7.70831 89.9301 8.56682C89.9199 9.40097 89.8692 10.2392 89.9706 11.0571C90.3339 11.2519 90.6648 11.189 90.9793 11.189C93.0556 11.1951 95.1318 11.189 97.206 11.1931C97.5267 11.1931 97.8474 11.2134 98.1802 11.2256C98.2492 11.3676 98.3142 11.4772 98.3588 11.5929C98.7039 12.4859 99.1991 13.2856 99.9318 13.9025C100.405 14.3003 100.573 14.7631 100.512 15.3557C100.48 15.6723 100.486 15.995 100.476 16.3035C100.116 16.5592 99.7491 16.476 99.4041 16.476C96.6479 16.4842 93.8897 16.4801 91.1336 16.4821C90.7825 16.4821 90.4293 16.5065 90.0336 16.5227C89.8123 17.3975 89.9503 18.2357 89.926 19.0637C89.9016 19.9019 89.9199 20.7422 89.9199 21.5317C90.2629 21.8321 90.5998 21.7387 90.9124 21.7407C93.0211 21.7488 95.1298 21.7407 97.2365 21.7488C97.549 21.7488 97.8738 21.688 98.2391 21.8544C98.1599 22.0594 98.1051 22.238 98.024 22.4024C97.7946 22.8671 97.547 23.3238 97.3197 23.7906C97.2223 23.9915 97.1228 24.2046 97.0843 24.4218C96.93 25.2641 97.1391 25.9541 97.9428 26.3925C98.3345 26.6056 98.7079 26.8552 99.0976 27.0927C99.0245 27.1739 98.988 27.251 98.9474 27.253C97.5145 27.3362 84.4726 27.2875 83.6709 27.1901Z" fill="white"/>
<path d="M98.4482 24.937C98.779 24.0297 100.577 20.5592 101.072 19.8894C101.312 20.0254 101.564 20.1553 101.805 20.3055C103.199 21.1681 104.693 21.7972 106.321 22.0042C107.216 22.1179 108.131 22.0915 109.036 22.0692C109.379 22.0611 109.731 21.9149 110.061 21.7871C111.6 21.1884 111.813 18.97 110.465 18.0446C110.12 17.8071 109.747 17.5981 109.363 17.4296C108.415 17.0115 107.457 16.6137 106.493 16.2281C105.347 15.7714 104.208 15.2945 103.165 14.6349C102.457 14.1864 101.775 13.681 101.133 13.1391C100.321 12.4511 99.81 11.5459 99.532 10.521C99.0327 8.68217 99.0997 6.85557 99.7573 5.06955C100.38 3.38501 101.56 2.16524 103.106 1.28847C104.368 0.574062 105.736 0.184385 107.177 0.103203C108.537 0.0260792 109.901 -0.010453 111.279 0.358928C111.314 0.496938 111.383 0.649156 111.385 0.799344C111.391 2.55086 111.387 4.30237 111.385 6.05389C111.385 6.1168 111.354 6.17769 111.32 6.30555C111.149 6.23655 110.977 6.18987 110.824 6.1026C109.95 5.60129 109.004 5.44705 108.012 5.51402C107.484 5.54853 106.989 5.69871 106.54 5.97067C105.385 6.67088 105.243 8.11998 106.256 9.01908C106.542 9.27278 106.885 9.48588 107.236 9.64216C108.182 10.0623 109.15 10.4377 110.104 10.8396C111.149 11.28 112.201 11.7022 113.227 12.1811C114.051 12.5647 114.796 13.0904 115.497 13.6749C116.556 14.5618 117.224 15.6882 117.526 17.0257C117.861 18.5032 117.845 19.9869 117.488 21.4623C117.031 23.3458 115.976 24.8111 114.382 25.899C113.126 26.7575 111.72 27.2507 110.228 27.4577C106.53 27.9691 102.988 27.4475 99.6578 25.7102C99.2316 25.487 98.7871 25.28 98.4462 24.937H98.4482Z" fill="white"/>
<path d="M64.2113 27.0905C63.7547 27.3969 63.2148 27.3888 62.7135 27.4558C60.2172 27.7907 57.7269 27.7318 55.2792 27.1026C51.7315 26.1893 48.9267 24.2389 47.0575 21.0403C46.1949 19.5648 45.7078 17.9533 45.4622 16.2729C45.1679 14.2697 45.1659 12.2665 45.5698 10.2714C46.6049 5.15288 49.7426 1.95429 54.6825 0.547797C57.4752 -0.247792 60.3267 -0.150373 63.1296 0.67363C63.499 0.781197 63.8541 0.937474 64.258 1.08563C64.3291 2.31149 64.2925 3.5069 64.2885 4.70232C64.2844 5.88758 64.3493 7.07691 64.2418 8.25609C63.9008 8.2845 63.8115 8.03283 63.6593 7.88873C61.6054 5.94847 59.1943 5.49182 56.5396 6.24073C54.6338 6.77653 53.3998 8.12213 52.588 9.87365C51.9913 11.1645 51.7904 12.5466 51.8777 13.9531C51.9264 14.7243 52.0218 15.5158 52.2531 16.2485C53.1482 19.0777 55.0742 20.8516 57.9704 21.5051C59.7341 21.9029 61.512 21.8379 63.2717 21.4117C63.5538 21.3448 63.8338 21.2757 64.1707 21.1925C64.2154 21.3305 64.2803 21.4422 64.2803 21.5518C64.2844 23.3033 64.2824 25.0548 64.2763 26.8043C64.2763 26.8976 64.2337 26.991 64.2113 27.0884V27.0905Z" fill="white"/>
<path d="M113.309 5.88552C113.142 4.87074 113.154 1.29668 113.309 0.543708C113.39 0.515294 113.477 0.456437 113.566 0.456437C120.213 0.448319 126.86 0.446289 133.507 0.446289C133.629 0.446289 133.75 0.490939 133.921 0.525442C134.053 1.11605 133.978 1.69853 133.99 2.2729C134.002 2.85538 133.996 3.4399 133.99 4.02441C133.986 4.60284 133.972 5.17923 133.962 5.81043C133.653 5.83884 133.403 5.88146 133.154 5.88349C131.402 5.88958 129.653 5.88755 127.901 5.88755C127.579 5.88755 127.258 5.88755 126.899 5.88755C126.844 6.11892 126.779 6.29753 126.765 6.48019C126.744 6.77041 126.757 7.06267 126.757 7.35493C126.757 13.5816 126.757 19.8063 126.755 26.033C126.755 26.4146 126.807 26.8043 126.686 27.1452C126.582 27.198 126.525 27.2487 126.468 27.2508C124.654 27.2629 122.837 27.269 121.023 27.2731C120.899 27.2731 120.773 27.2406 120.595 27.2163C120.56 27.0174 120.512 26.8347 120.501 26.652C120.485 26.3293 120.493 26.0046 120.493 25.6799C120.493 19.4856 120.493 13.2934 120.489 7.0992C120.489 6.71967 120.558 6.32188 120.339 5.91191C119.174 5.86523 118.009 5.89567 116.846 5.89161C115.681 5.88552 114.514 5.89161 113.305 5.89161L113.309 5.88552Z" fill="white"/>
<path d="M57.7776 30.6343C58.3946 31.8825 58.9933 33.0941 59.6407 34.4052C59.8051 34.1759 59.9269 34.0439 60.002 33.8917C60.4201 33.0495 60.824 32.2011 61.238 31.3588C61.3496 31.1315 61.4856 30.9144 61.6196 30.6728C61.9971 31.2249 63.6674 35.8563 63.8399 36.8224H62.7927C62.2934 35.7792 62.0722 34.6548 61.514 33.5589C60.7712 34.5615 60.3998 35.6717 59.7158 36.6966C59.5778 36.5139 59.454 36.3861 59.3728 36.2359C58.9872 35.5235 58.6178 34.803 58.2342 34.0906C58.149 33.9303 58.0333 33.7882 57.8791 33.5609C57.5219 34.1393 57.4001 34.7096 57.1971 35.2434C57.0023 35.7569 56.8176 36.2724 56.6167 36.8224H55.5573C55.6851 35.9761 57.3595 31.2837 57.7756 30.6343H57.7776Z" fill="white"/>
<path d="M83.267 30.4681C84.1012 30.3646 84.911 30.3646 85.7066 30.4904C86.1064 30.5534 86.5184 30.7401 86.8573 30.9714C88.0771 31.8015 88.4749 33.0599 88.1542 34.4704C87.8579 35.7714 86.6523 36.7476 85.2702 36.8369C84.6248 36.8795 83.9774 36.845 83.2995 36.845C83.2508 36.7111 83.1696 36.5954 83.1696 36.4797C83.1655 34.5678 83.1696 32.656 83.1757 30.7441C83.1757 30.6853 83.2142 30.6244 83.267 30.4681ZM84.3772 35.678C85.4346 35.8262 86.2931 35.5826 86.8391 34.6673C87.2734 33.9387 87.245 33.1735 86.768 32.4713C86.1916 31.6209 85.3595 31.4322 84.4076 31.6108C84.2514 32.3576 84.2331 34.6023 84.3772 35.68V35.678Z" fill="white"/>
<path d="M77.0119 30.4293C78.1241 30.3968 79.1815 30.3826 80.2612 30.4395C80.4154 30.7946 80.4114 31.095 80.2713 31.4299C79.5853 31.6592 78.8567 31.4116 78.1423 31.6044C77.9292 32.0286 78.0327 32.467 78.0632 32.9216C78.5665 33.1875 79.1125 32.9419 79.6138 33.1347C79.8593 33.3965 79.7802 33.7111 79.7091 34.0541C79.22 34.3403 78.6233 34.0318 78.1078 34.2977C77.982 34.7401 77.9739 35.1724 78.1322 35.6737C78.8446 35.696 79.5448 35.7163 80.2957 35.7387C80.3261 35.9335 80.3647 36.0837 80.3688 36.2359C80.3728 36.3942 80.3424 36.5525 80.3282 36.6986C79.6726 36.8793 78.2174 36.9077 77.0078 36.7676C76.9794 36.6702 76.9144 36.5525 76.9124 36.4348C76.9063 34.5595 76.9063 32.6842 76.9124 30.8088C76.9124 30.7175 76.9591 30.6282 77.0139 30.4293H77.0119Z" fill="white"/>
<path d="M74.1036 31.4458C73.6795 31.5087 73.3365 31.5594 72.9387 31.6183C72.8494 32.5174 72.9103 33.386 72.89 34.2527C72.8697 35.0848 72.9427 35.923 72.8352 36.7896C72.4759 36.8708 72.1715 36.8931 71.8366 36.7653C71.6945 35.8946 71.7899 35.0239 71.7635 34.1553C71.7392 33.3231 71.8102 32.4849 71.7148 31.6203C71.3211 31.5554 70.9801 31.5006 70.5884 31.4356C70.5722 31.1292 70.556 30.8491 70.5417 30.5589C71.1364 30.2849 71.725 30.431 72.2933 30.4107C72.8697 30.3904 73.4481 30.4188 74.0387 30.4269C74.2356 30.7699 74.1848 31.0784 74.1036 31.4438V31.4458Z" fill="white"/>
<path d="M46.6679 30.4761C46.8262 31.3346 46.7268 32.1748 46.743 33.009C46.7613 33.8472 46.7471 34.6874 46.7471 35.5662C46.9805 35.621 47.1591 35.69 47.3397 35.6982C47.8187 35.7205 48.3017 35.7184 48.7462 35.7245C48.9999 36.0858 48.874 36.4024 48.874 36.7292C48.3504 36.9342 47.8288 36.8246 47.3214 36.8428C46.8059 36.8611 46.2904 36.8469 45.7384 36.8469C45.6937 36.652 45.6328 36.5019 45.6308 36.3517C45.6247 34.5372 45.6267 32.7228 45.6308 30.9084C45.6308 30.7846 45.6694 30.6608 45.6876 30.5552C46.0205 30.336 46.3269 30.4172 46.6679 30.474V30.4761Z" fill="white"/>
<path d="M52.5435 36.8183H51.6241C51.4008 36.1019 51.5409 35.3875 51.5165 34.6873C51.4922 34.0074 51.4962 33.3275 51.5165 32.6476C51.5368 31.9413 51.4272 31.2289 51.5957 30.5307C51.9224 30.3603 52.2248 30.3806 52.5211 30.4901C52.6612 31.2634 52.6855 35.6879 52.5475 36.8163L52.5435 36.8183Z" fill="white"/>
<path d="M67.7225 36.8167H66.7402C66.5555 36.0921 66.6712 35.3818 66.6509 34.6816C66.6306 34.0057 66.6428 33.3278 66.6469 32.65C66.6509 31.9457 66.6225 31.2414 66.6732 30.5595C67.0365 30.3566 67.343 30.387 67.6454 30.4844C67.684 30.5534 67.7388 30.6102 67.7408 30.665C67.755 32.5343 67.7631 34.4035 67.7692 36.2727C67.7692 36.429 67.7428 36.5853 67.7225 36.8146V36.8167Z" fill="white"/>
</g>
<defs>
<clipPath id="clip0_81_926">
<rect width="134" height="36.8589" fill="white"/>
</clipPath>
</defs>
</svg>
